<?xml version="1.0" standalone="no"?>
<!DOCTYPE svg PUBLIC "-//W3C//DTD SVG 20010904//EN"
 "http://www.w3.org/TR/2001/REC-SVG-20010904/DTD/svg10.dtd">
<svg version="1.0" xmlns="http://www.w3.org/2000/svg"
 width="376.000000pt" height="376.000000pt" viewBox="0 0 376.000000 376.000000"
 preserveAspectRatio="xMidYMid meet">
<metadata>
Created by potrace 1.11, written by Peter Selinger 2001-2013
</metadata>
<g transform="translate(0.000000,376.000000) scale(0.100000,-0.100000)"
fill="#000000" stroke="none">
<path d="M1607 3032 c-151 -108 -305 -219 -343 -247 -226 -162 -440 -316 -514
-369 -47 -33 -89 -64 -95 -69 -11 -8 -415 -299 -557 -400 -48 -34 -87 -65 -85
-69 1 -3 85 -66 187 -139 102 -73 302 -217 445 -319 143 -103 343 -247 445
-320 102 -74 203 -146 225 -162 75 -52 360 -257 370 -265 42 -35 185 -133 194
-133 7 0 130 85 274 188 357 257 729 524 927 667 91 65 181 130 202 144 170
120 468 337 468 342 0 3 -26 23 -57 45 -55 38 -366 262 -987 708 -153 111
-295 213 -315 227 -132 93 -479 343 -493 354 -15 13 -46 -7 -291 -183z m369
43 c49 -36 100 -73 114 -83 14 -9 90 -64 170 -121 80 -58 174 -125 210 -151
36 -26 211 -152 390 -280 179 -129 363 -261 410 -294 47 -33 87 -63 90 -66 3
-3 12 -9 21 -15 46 -28 249 -178 249 -184 0 -7 -164 -127 -635 -464 -99 -71
-191 -137 -205 -147 -95 -71 -895 -643 -905 -646 -6 -3 -51 25 -101 61 -49 36
-100 73 -114 83 -26 17 -331 236 -603 433 -87 63 -168 121 -180 129 -30 21
-706 507 -735 528 -12 9 -22 20 -22 24 0 3 35 31 78 61 78 56 796 570 842 604
180 132 825 593 830 593 4 0 47 -29 96 -65z"/>
<path d="M1439 2370 c-4 -13 -5 -306 0 -315 3 -5 8 46 11 114 l5 124 34 -122
c18 -66 37 -121 40 -121 6 0 28 65 37 110 2 8 12 42 23 75 l19 60 1 -124 c1
-68 4 -121 8 -117 10 9 11 293 2 308 -7 10 -23 -37 -65 -190 -20 -74 -30 -84
-39 -40 -15 76 -71 251 -76 238z"/>
<path d="M1680 2350 c-23 -23 -22 -21 -22 -152 0 -53 5 -105 11 -116 21 -40
90 -41 111 -1 6 11 12 69 12 129 1 86 -3 114 -16 135 -20 31 -67 34 -96 5z
m91 -18 c6 -31 5 -221 -2 -238 -14 -39 -69 -38 -88 2 -13 30 -15 193 -2 228 6
14 20 26 33 28 24 4 57 -7 59 -20z"/>
<path d="M1823 2210 c0 -88 4 -160 9 -160 4 0 8 60 8 133 l1 132 51 -125 c28
-69 54 -129 59 -135 5 -5 9 60 9 153 0 89 -3 162 -8 162 -4 0 -7 -54 -6 -121
0 -66 -2 -122 -6 -124 -3 -2 -27 52 -54 121 -26 68 -51 124 -55 124 -4 0 -8
-72 -8 -160z"/>
<path d="M1998 2363 c-1 -5 -2 -77 -3 -160 l-1 -153 60 0 c66 0 69 14 3 15
l-42 1 -3 71 -3 70 46 -1 c26 -1 49 2 51 6 3 5 -18 8 -46 8 l-51 0 3 67 3 68
48 -1 c26 0 47 4 47 8 0 10 -109 11 -112 1z"/>
<path d="M2172 2288 c39 -75 43 -90 43 -155 0 -39 4 -75 8 -79 4 -4 7 28 7 72
0 82 3 92 66 202 14 23 20 42 15 42 -5 0 -27 -32 -49 -71 -44 -79 -38 -81 -92
24 -14 26 -29 47 -33 47 -4 0 11 -37 35 -82z"/>
<path d="M1120 1883 c0 -11 7 -20 15 -20 18 0 16 28 -2 35 -8 2 -13 -5 -13
-15z"/>
<path d="M1202 1880 c4 -20 53 -20 53 0 0 10 -10 15 -28 15 -20 1 -27 -3 -25
-15z"/>
<path d="M1310 1880 c0 -14 7 -20 24 -20 28 0 42 26 20 34 -29 11 -44 6 -44
-14z"/>
<path d="M1420 1881 c0 -13 7 -18 25 -18 18 0 25 5 25 18 0 14 -7 19 -25 19
-18 0 -25 -5 -25 -19z"/>
<path d="M1530 1880 c0 -15 6 -19 25 -18 17 2 25 8 25 20 0 13 -8 18 -25 18
-18 0 -25 -5 -25 -20z"/>
<path d="M1634 1888 c-8 -12 14 -28 39 -28 10 0 17 8 17 19 0 13 -7 19 -25 19
-14 0 -28 -5 -31 -10z"/>
<path d="M1745 1890 c-9 -15 0 -23 31 -27 20 -3 25 0 22 14 -4 20 -43 30 -53
13z"/>
<path d="M1854 1883 c2 -11 13 -18 30 -20 37 -3 32 31 -6 35 -21 3 -26 -1 -24
-15z"/>
<path d="M1962 1882 c4 -22 50 -23 53 -1 2 11 -6 16 -27 17 -22 0 -28 -3 -26
-16z"/>
<path d="M2070 1880 c0 -14 7 -18 29 -18 38 1 36 32 -2 35 -20 1 -27 -3 -27
-17z"/>
<path d="M2180 1878 c0 -19 25 -24 47 -10 18 11 1 31 -25 29 -14 -1 -22 -8
-22 -19z"/>
<path d="M2293 1894 c-20 -9 -2 -34 23 -34 17 0 24 6 24 20 0 19 -19 25 -47
14z"/>
<path d="M2393 1888 c6 -32 57 -39 57 -8 0 16 -7 20 -30 20 -19 0 -29 -5 -27
-12z"/>
<path d="M2505 1890 c-10 -16 2 -25 31 -25 17 -1 24 4 22 15 -4 18 -43 26 -53
10z"/>
<path d="M2612 1882 c5 -23 28 -27 28 -4 0 10 -7 19 -15 19 -9 0 -15 -7 -13
-15z"/>
</g>
</svg>
