<?xml version="1.0" encoding="iso-8859-1"?>
<!-- Generator: Adobe Illustrator 16.0.0, SVG Export Plug-In . SVG Version: 6.00 Build 0)  -->
<!DOCTYPE svg PUBLIC "-//W3C//DTD SVG 1.1//EN" "http://www.w3.org/Graphics/SVG/1.1/DTD/svg11.dtd">
<svg version="1.1" id="Capa_1" xmlns="http://www.w3.org/2000/svg" xmlns:xlink="http://www.w3.org/1999/xlink" x="0px" y="0px"
	 width="60.731px" height="60.731px" viewBox="0 0 60.731 60.731" style="enable-background:new 0 0 60.731 60.731;"
	 xml:space="preserve">
<g>
	<path d="M4.241,38.673l1.645-5.579h7.692c-0.049-1.072-0.075-2.172-0.075-3.301c0-0.97,0.028-1.935,0.075-2.903H4.241l1.645-5.576
		h8.325c0.89-4.786,2.55-8.937,4.982-12.443C23.277,2.957,28.916,0,36.116,0c6.127,0,10.881,1.923,14.269,5.769
		c3.387,3.851,5.267,8.221,5.639,13.114H49.62c-0.705-3.716-2.151-6.665-4.32-8.835c-2.176-2.171-5.205-3.26-9.105-3.26
		c-4.789,0-8.651,2.002-11.58,6.007c-1.625,2.198-2.787,5.036-3.495,8.519h21.904l-1.646,5.576H20.335
		c-0.078,1.333-0.12,2.747-0.12,4.24c0,0.682,0.015,1.334,0.042,1.964h22.766l-1.646,5.575H20.841
		c0.633,3.431,1.747,6.396,3.34,8.909c2.648,4.188,6.591,6.277,11.857,6.277c4.845,0,8.531-2.212,11.067-6.635
		c1.335-2.327,2.336-5.393,2.981-9.184h6.403c-0.58,6.067-2.478,11.156-5.694,15.267c-3.843,4.955-9.023,7.428-15.543,7.428
		c-5.623,0-10.346-2.03-14.165-6.082c-3.616-3.823-5.936-9.146-6.952-15.977H4.241L4.241,38.673z"/>
</g>
<g>
</g>
<g>
</g>
<g>
</g>
<g>
</g>
<g>
</g>
<g>
</g>
<g>
</g>
<g>
</g>
<g>
</g>
<g>
</g>
<g>
</g>
<g>
</g>
<g>
</g>
<g>
</g>
<g>
</g>
</svg>
