<?xml version="1.0" encoding="iso-8859-1"?>
<!-- Generator: Adobe Illustrator 16.0.0, SVG Export Plug-In . SVG Version: 6.00 Build 0)  -->
<!DOCTYPE svg PUBLIC "-//W3C//DTD SVG 1.1//EN" "http://www.w3.org/Graphics/SVG/1.1/DTD/svg11.dtd">
<svg version="1.1" id="Capa_1" xmlns="http://www.w3.org/2000/svg" xmlns:xlink="http://www.w3.org/1999/xlink" x="0px" y="0px"
	 width="60.731px" height="60.731px" viewBox="0 0 60.731 60.731" style="enable-background:new 0 0 60.731 60.731;"
	 xml:space="preserve">
<g>
	<g>
		<g>
			<path d="M30.366,0C13.595,0,0,13.594,0,30.365c0,16.771,13.594,30.366,30.366,30.366c16.771,0,30.365-13.596,30.365-30.366
				C60.731,13.594,47.137,0,30.366,0z M30.369,57.029c-14.73,0-26.666-11.938-26.666-26.661c0-14.728,11.936-26.664,26.666-26.664
				c14.724,0,26.661,11.936,26.661,26.664C57.029,45.092,45.093,57.029,30.369,57.029z"/>
		</g>
		<g>
			<path d="M16.337,46.867c2.081-1.456,3.754-3.066,5.026-4.82c1.269-1.757,1.901-3.666,1.901-5.73c0-0.588-0.119-1.279-0.359-2.071
				c-0.145-0.497-0.392-1.177-0.744-2.043h-6.101v-2.871h4.335c0,0.091-0.311-0.483-0.925-1.727
				c-0.622-1.242-1.025-2.148-1.23-2.721c-0.183-0.535-0.341-1.155-0.47-1.863c-0.128-0.711-0.192-1.467-0.192-2.278
				c0-2.873,1.168-5.445,3.508-7.719c2.336-2.275,5.692-3.41,10.054-3.41c4.106,0,7.213,1.124,9.316,3.368
				c2.107,2.247,3.188,5.423,3.252,9.527h-5.109c0-2.78-0.649-4.891-1.948-6.337c-1.302-1.445-3.269-2.167-5.927-2.167
				c-2.579,0-4.527,0.677-5.854,2.03c-1.322,1.354-1.99,2.996-1.99,4.928c0,0.957,0.206,1.943,0.626,2.955
				c0.416,1.013,1.294,2.816,2.632,5.412h9.062v2.871h-7.816c0.182,0.849,0.319,1.51,0.402,1.989
				c0.082,0.481,0.126,0.977,0.126,1.492c0,1.838-0.552,3.658-1.658,5.451c-1.105,1.798-2.839,3.577-5.193,5.347
				c1.268-0.643,2.523-1.158,3.753-1.53c1.23-0.379,2.438-0.568,3.618-0.568c1.322,0,3.08,0.329,5.26,0.981
				c2.183,0.654,3.615,0.98,4.295,0.98c0.865,0,1.661-0.164,2.377-0.497c0.438-0.203,1.118-0.63,2.017-1.271l2.288,3.729
				c-1.029,0.828-1.953,1.444-2.763,1.853c-1.341,0.639-2.773,0.962-4.279,0.962c-1.104,0-2.963-0.422-5.569-1.271
				c-2.6-0.842-4.658-1.271-6.171-1.271c-1.404,0-2.726,0.242-3.979,0.722c-0.731,0.296-1.683,0.789-2.842,1.491L16.337,46.867z"/>
		</g>
	</g>
</g>
<g>
</g>
<g>
</g>
<g>
</g>
<g>
</g>
<g>
</g>
<g>
</g>
<g>
</g>
<g>
</g>
<g>
</g>
<g>
</g>
<g>
</g>
<g>
</g>
<g>
</g>
<g>
</g>
<g>
</g>
</svg>
