<?xml version="1.0" encoding="iso-8859-1"?>
<!-- Generator: Adobe Illustrator 18.1.1, SVG Export Plug-In . SVG Version: 6.00 Build 0)  -->
<svg version="1.1" id="Capa_1" xmlns="http://www.w3.org/2000/svg" xmlns:xlink="http://www.w3.org/1999/xlink" x="0px" y="0px"
	 viewBox="0 0 155.157 155.157" style="enable-background:new 0 0 155.157 155.157;" xml:space="preserve">
<g>
	<g>
		<path style="fill:#010002;" d="M5.182,72.402c0-37.126,30.097-67.229,67.229-67.229c17.25,0,32.925,6.552,44.829,17.226
			C104.936,8.682,87.119,0,67.244,0C30.112,0,0.009,30.097,0.009,67.229c0,19.882,8.682,37.693,22.4,49.99
			C11.722,105.321,5.182,89.646,5.182,72.402z"/>
		<path style="fill:#010002;" d="M15.523,82.749c0-37.132,30.097-67.229,67.235-67.229c17.25,0,32.925,6.552,44.823,17.226
			c-12.304-13.718-30.115-22.4-49.99-22.4c-37.126,0-67.229,30.097-67.229,67.229c0,19.882,8.682,37.687,22.4,49.996
			C22.074,115.674,15.523,99.993,15.523,82.749z"/>
		<g>
			<path style="fill:#010002;" d="M101.165,94.79c-2.071-1.48-5.543-2.888-10.406-4.207v30.753
				c6.665-0.31,11.265-2.745,13.795-7.321c1.325-2.333,1.993-5.048,1.993-8.121C106.541,101.025,104.751,97.332,101.165,94.79z"/>
			<path style="fill:#010002;" d="M74.207,55.725c-2.184,2.924-3.27,5.985-3.27,9.183c0,3.861,1.283,6.88,3.855,9.064
				c2.584,2.184,6.05,3.705,10.412,4.559V51.047C80.055,51.243,76.385,52.801,74.207,55.725z"/>
			<path style="fill:#010002;" d="M87.913,20.693c-37.132,0-67.229,30.097-67.229,67.235c0,37.126,30.097,67.229,67.229,67.229
				c37.132-0.006,67.235-30.103,67.235-67.235S125.045,20.693,87.913,20.693z M106.947,125.137
				c-3.741,2.423-9.135,4.022-16.188,4.803v11.337h-5.567v-11.337c-11.343-0.746-19.046-4.756-23.104-12.059
				c-2.22-3.938-3.33-9.255-3.33-15.961h10.347c0.31,5.34,1.158,9.243,2.53,11.695c2.434,4.41,6.957,6.88,13.551,7.429V89.169
				c-8.461-1.599-14.708-4.266-18.742-8.008c-4.034-3.741-6.05-8.938-6.05-15.556c0-5.925,2.172-11.265,6.522-16.021
				c4.35-4.756,10.436-7.178,18.271-7.256v-7.775h5.561v7.661c7.763,0.543,13.718,2.828,17.865,6.85
				c4.147,4.028,6.331,9.344,6.516,15.955h-10.233c-0.269-2.966-1.074-5.513-2.399-7.661c-2.452-3.938-6.367-6.003-11.749-6.2v28.48
				c9.046,2.524,15.174,4.911,18.414,7.13c5.269,3.664,7.9,9.076,7.9,16.26C117.073,113.406,113.702,120.775,106.947,125.137z"/>
		</g>
	</g>
</g>
<g>
</g>
<g>
</g>
<g>
</g>
<g>
</g>
<g>
</g>
<g>
</g>
<g>
</g>
<g>
</g>
<g>
</g>
<g>
</g>
<g>
</g>
<g>
</g>
<g>
</g>
<g>
</g>
<g>
</g>
</svg>
