<?xml version="1.0" encoding="iso-8859-1"?>
<!-- Generator: Adobe Illustrator 16.0.0, SVG Export Plug-In . SVG Version: 6.00 Build 0)  -->
<!DOCTYPE svg PUBLIC "-//W3C//DTD SVG 1.1//EN" "http://www.w3.org/Graphics/SVG/1.1/DTD/svg11.dtd">
<svg version="1.1" id="Capa_1" xmlns="http://www.w3.org/2000/svg" xmlns:xlink="http://www.w3.org/1999/xlink" x="0px" y="0px"
	 width="70.074px" height="70.074px" viewBox="0 0 70.074 70.074" style="enable-background:new 0 0 70.074 70.074;"
	 xml:space="preserve">
<g>
	<g>
		<polygon points="8.355,25.748 35.037,6.351 61.719,25.748 70.074,25.748 35.037,0.278 0,25.748 		"/>
		<rect x="16.36" y="25.963" width="5.335" height="28.308"/>
		<rect x="48.379" y="25.963" width="5.336" height="28.308"/>
		<g>
			<rect x="8.846" y="56.124" width="52.383" height="5.333"/>
			<rect x="1.362" y="64.463" width="67.353" height="5.333"/>
		</g>
		<g>
			<path d="M30.823,25.364c0.874-0.95,2.095-1.438,3.67-1.455v-1.56h1.117v1.533c1.558,0.114,2.75,0.569,3.583,1.378
				c0.835,0.811,1.272,1.88,1.312,3.202h-2.056c-0.055-0.593-0.212-1.109-0.479-1.533c-0.495-0.793-1.28-1.212-2.361-1.247V31.4
				c1.813,0.512,3.047,0.989,3.698,1.432c1.058,0.731,1.585,1.822,1.585,3.261c0,2.085-0.678,3.556-2.032,4.432
				c-0.748,0.488-1.833,0.808-3.25,0.963v2.283h-1.117v-2.283c-2.28-0.146-3.824-0.949-4.64-2.418
				c-0.446-0.789-0.669-1.861-0.669-3.207h2.08c0.062,1.072,0.231,1.861,0.507,2.35c0.488,0.892,1.4,1.387,2.722,1.494v-6.391
				c-1.698-0.325-2.953-0.858-3.764-1.609c-0.81-0.75-1.217-1.794-1.217-3.126C29.516,27.397,29.949,26.325,30.823,25.364z
				 M32.402,30.263c0.516,0.439,1.212,0.74,2.091,0.916v-5.516c-1.032,0.042-1.769,0.352-2.208,0.932
				c-0.439,0.592-0.656,1.208-0.656,1.848C31.629,29.218,31.883,29.829,32.402,30.263z M38.377,38.304
				c0.267-0.475,0.401-1.018,0.401-1.629c0-0.98-0.365-1.725-1.081-2.233c-0.416-0.296-1.111-0.579-2.09-0.844v6.174
				C36.943,39.709,37.868,39.221,38.377,38.304z"/>
		</g>
	</g>
</g>
<g>
</g>
<g>
</g>
<g>
</g>
<g>
</g>
<g>
</g>
<g>
</g>
<g>
</g>
<g>
</g>
<g>
</g>
<g>
</g>
<g>
</g>
<g>
</g>
<g>
</g>
<g>
</g>
<g>
</g>
</svg>
