<?xml version="1.0" encoding="iso-8859-1"?>
<!-- Generator: Adobe Illustrator 18.1.1, SVG Export Plug-In . SVG Version: 6.00 Build 0)  -->
<svg version="1.1" id="Capa_1" xmlns="http://www.w3.org/2000/svg" xmlns:xlink="http://www.w3.org/1999/xlink" x="0px" y="0px"
	 viewBox="0 0 179.006 179.006" style="enable-background:new 0 0 179.006 179.006;" xml:space="preserve">
<g>
	<g>
		<g>
			<path style="fill:#010002;" d="M63.672,72.133c1.635-1.808,3.944-2.709,6.904-2.739v-2.936h2.1v2.888
				c2.93,0.197,5.179,1.068,6.749,2.59c1.569,1.522,2.387,3.532,2.464,6.033h-3.867c-0.101-1.122-0.4-2.088-0.901-2.894
				c-0.925-1.48-2.405-2.261-4.439-2.345V83.5c3.413,0.949,5.734,1.856,6.957,2.691c1.993,1.378,2.983,3.431,2.983,6.14
				c0,3.914-1.277,6.701-3.825,8.342c-1.408,0.913-3.455,1.516-6.116,1.82v4.29h-2.1v-4.29c-4.29-0.28-7.196-1.796-8.73-4.559
				c-0.841-1.48-1.259-3.497-1.259-6.033h3.908c0.119,2.023,0.436,3.491,0.955,4.415c0.919,1.665,2.625,2.608,5.12,2.816V87.08
				c-3.198-0.609-5.561-1.617-7.089-3.031c-1.522-1.408-2.285-3.365-2.285-5.871C61.208,75.952,62.032,73.935,63.672,72.133z
				 M66.644,81.346c0.973,0.829,2.285,1.39,3.932,1.718V72.688c-1.945,0.072-3.335,0.656-4.153,1.766
				c-0.829,1.11-1.241,2.261-1.241,3.467C65.182,79.383,65.671,80.523,66.644,81.346z M77.892,96.478
				c0.501-0.877,0.752-1.903,0.752-3.067c0-1.85-0.68-3.252-2.035-4.207c-0.782-0.561-2.094-1.092-3.932-1.593v11.623
				C75.194,99.122,76.931,98.203,77.892,96.478z"/>
		</g>
		<g>
			<g>
				<polygon style="fill:#010002;" points="123.085,129.654 19.136,129.654 0,43.743 116.963,43.743 113.776,56.059 15.335,56.059 
					28.993,117.339 113.209,117.339 134.362,21.534 179.006,21.534 179.006,33.814 144.225,33.814 				"/>
			</g>
			<g>
				<g>
					<path style="fill:#010002;" d="M53.582,145.979c0,6.343-5.143,11.492-11.474,11.492c-6.337,0-11.48-5.132-11.48-11.492
						c0-6.337,5.143-11.474,11.48-11.474C48.439,134.505,53.582,139.655,53.582,145.979z"/>
				</g>
				<g>
					<path style="fill:#010002;" d="M113.603,145.979c0,6.343-5.143,11.492-11.486,11.492c-6.337,0-11.468-5.132-11.468-11.492
						c0-6.337,5.149-11.474,11.468-11.474C108.454,134.505,113.603,139.655,113.603,145.979z"/>
				</g>
			</g>
		</g>
	</g>
</g>
<g>
</g>
<g>
</g>
<g>
</g>
<g>
</g>
<g>
</g>
<g>
</g>
<g>
</g>
<g>
</g>
<g>
</g>
<g>
</g>
<g>
</g>
<g>
</g>
<g>
</g>
<g>
</g>
<g>
</g>
</svg>
