<?xml version="1.0" encoding="iso-8859-1"?>
<!-- Generator: Adobe Illustrator 16.0.0, SVG Export Plug-In . SVG Version: 6.00 Build 0)  -->
<!DOCTYPE svg PUBLIC "-//W3C//DTD SVG 1.1//EN" "http://www.w3.org/Graphics/SVG/1.1/DTD/svg11.dtd">
<svg version="1.1" id="Capa_1" xmlns="http://www.w3.org/2000/svg" xmlns:xlink="http://www.w3.org/1999/xlink" x="0px" y="0px"
	 width="70.074px" height="70.074px" viewBox="0 0 70.074 70.074" style="enable-background:new 0 0 70.074 70.074;"
	 xml:space="preserve">
<g>
	<g>
		<path d="M36.604,22.057h33.47v-10.98h-33.47V22.057z M46.98,14.662c0.384-0.462,0.915-0.876,1.552-1.219
			c0.632-0.341,1.373-0.614,2.185-0.801c0.808-0.187,1.693-0.292,2.619-0.292s1.807,0.103,2.621,0.292s1.553,0.459,2.188,0.801
			c0.636,0.343,1.168,0.757,1.551,1.219c0.388,0.467,0.627,0.989,0.671,1.544c0.046,0.563-0.107,1.105-0.429,1.605
			c-0.329,0.506-0.826,0.967-1.456,1.359c-0.634,0.393-1.409,0.715-2.285,0.937c-0.876,0.225-1.843,0.35-2.865,0.35
			c-1.021,0-1.989-0.125-2.865-0.35c-0.871-0.224-1.642-0.544-2.28-0.937c-0.635-0.39-1.127-0.853-1.453-1.359
			c-0.324-0.497-0.473-1.042-0.429-1.605C46.36,15.655,46.596,15.134,46.98,14.662z"/>
		<path d="M52.561,18.201c-0.146-0.023-0.283-0.054-0.404-0.094s-0.23-0.086-0.321-0.138c-0.092-0.053-0.169-0.114-0.235-0.184
			c-0.036-0.04-0.065-0.084-0.098-0.133c-0.027-0.049-0.051-0.105-0.068-0.167c-0.027-0.061-0.046-0.125-0.053-0.198
			c-0.014-0.07-0.025-0.147-0.029-0.231h-1.091c-0.004,0.104,0,0.202,0.01,0.294c0.014,0.094,0.034,0.18,0.055,0.265
			c0.027,0.084,0.055,0.161,0.103,0.234c0.043,0.072,0.091,0.14,0.144,0.201c0.109,0.114,0.239,0.217,0.388,0.306
			c0.159,0.089,0.342,0.167,0.545,0.229c0.208,0.065,0.436,0.114,0.691,0.151c0.256,0.04,0.536,0.063,0.84,0.074l-0.003,0.737h0.604
			l-0.002-0.737c0.189-0.009,0.367-0.025,0.536-0.043c0.169-0.019,0.326-0.042,0.465-0.066c0.146-0.025,0.283-0.054,0.406-0.087
			c0.123-0.032,0.232-0.067,0.331-0.105c0.178-0.069,0.335-0.149,0.468-0.243c0.132-0.092,0.241-0.196,0.33-0.312
			c0.085-0.114,0.148-0.241,0.188-0.379c0.043-0.138,0.057-0.285,0.053-0.443c-0.005-0.109-0.027-0.212-0.062-0.308
			c-0.038-0.098-0.093-0.185-0.161-0.269c-0.073-0.082-0.16-0.156-0.265-0.226c-0.109-0.068-0.233-0.131-0.367-0.185
			c-0.087-0.036-0.189-0.068-0.317-0.103c-0.123-0.036-0.26-0.071-0.425-0.105c-0.159-0.038-0.342-0.073-0.533-0.111
			c-0.201-0.038-0.42-0.074-0.652-0.109l-0.002-1.658c0.134,0.002,0.262,0.011,0.378,0.027c0.119,0.017,0.229,0.04,0.331,0.071
			c0.101,0.028,0.189,0.065,0.271,0.107c0.082,0.042,0.157,0.094,0.221,0.149c0.037,0.031,0.064,0.064,0.097,0.098
			c0.027,0.033,0.05,0.068,0.072,0.105c0.019,0.038,0.037,0.075,0.051,0.115c0.009,0.04,0.022,0.081,0.029,0.123h1.061
			c-0.009-0.096-0.031-0.187-0.066-0.27c-0.031-0.084-0.079-0.167-0.139-0.243c-0.057-0.078-0.128-0.147-0.21-0.216
			c-0.082-0.065-0.178-0.127-0.283-0.187c-0.109-0.059-0.223-0.107-0.351-0.154c-0.133-0.044-0.271-0.083-0.425-0.114
			c-0.152-0.033-0.314-0.058-0.492-0.08c-0.171-0.021-0.356-0.035-0.548-0.044l-0.004-0.427h-0.562v0.439
			c-0.198,0-0.386,0.009-0.557,0.027c-0.178,0.019-0.342,0.044-0.502,0.08c-0.155,0.036-0.299,0.077-0.431,0.128
			c-0.135,0.049-0.256,0.11-0.367,0.178c-0.114,0.065-0.213,0.136-0.297,0.206c-0.087,0.073-0.16,0.147-0.219,0.225
			c-0.058,0.078-0.101,0.156-0.133,0.238c-0.034,0.081-0.05,0.166-0.05,0.252c-0.005,0.098,0.007,0.189,0.027,0.276
			c0.022,0.089,0.062,0.167,0.109,0.245c0.05,0.076,0.114,0.147,0.187,0.212c0.078,0.065,0.169,0.126,0.271,0.183
			c0.104,0.056,0.222,0.107,0.354,0.156c0.138,0.049,0.278,0.093,0.44,0.133s0.34,0.074,0.536,0.107
			c0.191,0.033,0.399,0.058,0.618,0.082l-0.004,1.964C52.87,18.24,52.706,18.221,52.561,18.201z M53.988,16.431
			c0.109,0.021,0.212,0.041,0.304,0.062c0.091,0.021,0.171,0.042,0.243,0.062c0.073,0.024,0.14,0.045,0.196,0.069
			c0.092,0.036,0.174,0.081,0.244,0.127c0.066,0.049,0.14,0.098,0.176,0.158c0.051,0.056,0.087,0.116,0.116,0.184
			c0.025,0.068,0.044,0.138,0.044,0.215c0,0.047-0.005,0.094-0.017,0.137c-0.007,0.045-0.018,0.089-0.036,0.129
			c-0.021,0.045-0.043,0.084-0.062,0.122c-0.027,0.039-0.055,0.077-0.082,0.114c-0.068,0.071-0.15,0.133-0.246,0.189
			c-0.094,0.056-0.206,0.1-0.329,0.14s-0.255,0.067-0.41,0.091c-0.146,0.021-0.315,0.034-0.49,0.044l-0.007-1.902
			C53.765,16.391,53.879,16.409,53.988,16.431z M52.731,15.604c-0.101-0.02-0.196-0.04-0.287-0.062
			c-0.09-0.023-0.172-0.049-0.249-0.074c-0.077-0.026-0.146-0.056-0.219-0.089c-0.064-0.033-0.121-0.067-0.169-0.105
			c-0.046-0.038-0.087-0.08-0.123-0.125c-0.032-0.046-0.055-0.093-0.073-0.145c-0.016-0.049-0.025-0.103-0.022-0.159
			c0-0.047,0.009-0.091,0.027-0.138c0.014-0.044,0.036-0.091,0.062-0.134c0.029-0.046,0.065-0.089,0.109-0.131
			c0.043-0.042,0.096-0.086,0.152-0.126c0.051-0.042,0.123-0.082,0.196-0.112c0.073-0.033,0.16-0.061,0.246-0.082
			c0.094-0.023,0.196-0.04,0.311-0.051c0.114-0.012,0.237-0.021,0.363-0.023l-0.007,1.6C52.941,15.633,52.832,15.622,52.731,15.604z
			"/>
		<rect x="36.604" y="22.886" width="33.47" height="1.444"/>
		<rect x="36.604" y="24.972" width="33.47" height="1.444"/>
		<rect x="36.604" y="27.058" width="33.47" height="1.444"/>
		<rect x="36.604" y="29.148" width="33.47" height="1.444"/>
		<rect x="36.604" y="31.288" width="33.47" height="1.444"/>
		<rect x="36.604" y="33.374" width="33.47" height="1.444"/>
		<rect x="36.604" y="35.46" width="33.47" height="1.443"/>
		<path d="M16.542,50.462h33.471V39.48H16.542V50.462z M26.92,43.066c0.383-0.461,0.916-0.876,1.551-1.218
			c0.633-0.343,1.373-0.616,2.184-0.799c0.811-0.187,1.696-0.292,2.619-0.292c0.922,0,1.808,0.101,2.623,0.292
			c0.812,0.188,1.553,0.456,2.188,0.799c0.636,0.342,1.168,0.757,1.549,1.218c0.388,0.47,0.622,0.99,0.67,1.547
			c0.048,0.559-0.104,1.104-0.426,1.605c-0.329,0.507-0.828,0.968-1.456,1.359c-0.639,0.393-1.41,0.712-2.286,0.936
			c-0.876,0.222-1.843,0.349-2.867,0.349c-1.023,0-1.99-0.127-2.861-0.349c-0.872-0.224-1.647-0.543-2.285-0.936
			C27.49,47.187,27,46.726,26.67,46.219c-0.323-0.497-0.474-1.045-0.43-1.605C26.298,44.062,26.532,43.541,26.92,43.066z"/>
		<path d="M32.498,46.606c-0.145-0.027-0.283-0.055-0.403-0.096c-0.125-0.041-0.229-0.087-0.321-0.137
			c-0.091-0.055-0.173-0.114-0.236-0.188c-0.04-0.038-0.065-0.082-0.096-0.134c-0.027-0.048-0.051-0.105-0.074-0.162
			c-0.022-0.06-0.04-0.13-0.049-0.201c-0.017-0.068-0.026-0.146-0.031-0.23h-1.086c-0.008,0.101,0,0.201,0.009,0.292
			c0.009,0.096,0.033,0.183,0.054,0.265c0.028,0.085,0.058,0.162,0.103,0.233c0.044,0.072,0.094,0.144,0.147,0.202
			c0.105,0.114,0.236,0.22,0.388,0.306c0.154,0.087,0.338,0.162,0.542,0.233c0.206,0.059,0.439,0.113,0.691,0.15
			c0.255,0.036,0.535,0.062,0.839,0.07v0.737h0.604l-0.002-0.737c0.187-0.009,0.364-0.022,0.535-0.043
			c0.163-0.019,0.325-0.046,0.465-0.066c0.145-0.022,0.279-0.053,0.401-0.087c0.123-0.031,0.236-0.065,0.334-0.104
			c0.177-0.066,0.339-0.148,0.464-0.244c0.136-0.091,0.243-0.196,0.334-0.312c0.085-0.116,0.149-0.239,0.189-0.376
			c0.045-0.142,0.056-0.288,0.052-0.445c-0.005-0.111-0.029-0.212-0.063-0.308c-0.037-0.101-0.093-0.185-0.164-0.268
			c-0.067-0.082-0.154-0.157-0.263-0.229c-0.105-0.066-0.229-0.133-0.37-0.183c-0.081-0.037-0.186-0.066-0.31-0.105
			c-0.127-0.034-0.261-0.065-0.428-0.104c-0.156-0.037-0.341-0.071-0.535-0.109c-0.194-0.037-0.415-0.073-0.649-0.109l-0.002-1.659
			c0.136,0.003,0.259,0.012,0.381,0.03c0.118,0.014,0.228,0.039,0.326,0.063c0.1,0.032,0.194,0.068,0.273,0.114
			c0.082,0.043,0.154,0.091,0.225,0.146c0.032,0.032,0.063,0.064,0.093,0.101c0.031,0.032,0.052,0.064,0.073,0.105
			c0.021,0.036,0.04,0.072,0.051,0.113c0.009,0.041,0.024,0.083,0.029,0.128h1.062c-0.014-0.096-0.037-0.187-0.067-0.273
			c-0.033-0.084-0.08-0.162-0.138-0.242c-0.058-0.077-0.13-0.146-0.214-0.214c-0.078-0.064-0.173-0.133-0.283-0.188
			c-0.105-0.059-0.225-0.109-0.348-0.155c-0.131-0.045-0.271-0.082-0.428-0.113c-0.147-0.032-0.315-0.06-0.488-0.078
			c-0.173-0.022-0.357-0.036-0.548-0.046l-0.002-0.429H33v0.438c-0.196,0-0.385,0.012-0.558,0.032
			c-0.178,0.018-0.341,0.043-0.499,0.077c-0.154,0.036-0.301,0.077-0.433,0.128c-0.134,0.052-0.253,0.109-0.365,0.178
			c-0.114,0.063-0.214,0.139-0.299,0.205c-0.086,0.073-0.159,0.146-0.218,0.226c-0.058,0.076-0.101,0.158-0.135,0.24
			c-0.033,0.079-0.049,0.166-0.049,0.253c-0.004,0.096,0.007,0.187,0.027,0.271c0.024,0.091,0.058,0.169,0.107,0.246
			c0.049,0.078,0.113,0.146,0.187,0.215c0.077,0.063,0.168,0.123,0.273,0.18c0.101,0.058,0.221,0.107,0.353,0.157
			c0.136,0.051,0.278,0.092,0.439,0.133c0.161,0.041,0.341,0.073,0.533,0.109c0.196,0.032,0.401,0.055,0.624,0.078l-0.007,1.966
			C32.811,46.644,32.647,46.63,32.498,46.606z M33.927,44.832c0.109,0.022,0.213,0.046,0.301,0.063
			c0.091,0.023,0.173,0.046,0.245,0.062c0.073,0.023,0.138,0.048,0.191,0.066c0.096,0.039,0.178,0.082,0.251,0.13
			c0.067,0.048,0.132,0.101,0.177,0.158c0.049,0.055,0.087,0.116,0.112,0.182c0.026,0.068,0.042,0.14,0.042,0.215
			c0,0.048-0.005,0.096-0.012,0.139c-0.009,0.049-0.021,0.092-0.038,0.131c-0.018,0.045-0.042,0.084-0.062,0.123
			c-0.021,0.036-0.054,0.077-0.087,0.113c-0.067,0.069-0.149,0.133-0.245,0.192c-0.091,0.05-0.201,0.101-0.324,0.137
			c-0.125,0.041-0.26,0.068-0.412,0.091c-0.145,0.027-0.314,0.041-0.49,0.046l-0.007-1.9C33.706,44.796,33.82,44.818,33.927,44.832z
			 M32.668,44.006c-0.1-0.018-0.196-0.036-0.287-0.059c-0.085-0.019-0.17-0.048-0.248-0.071c-0.074-0.029-0.147-0.059-0.219-0.091
			c-0.06-0.034-0.122-0.068-0.168-0.105c-0.047-0.038-0.088-0.077-0.121-0.125c-0.033-0.046-0.054-0.091-0.075-0.144
			c-0.016-0.048-0.023-0.101-0.021-0.157c0-0.048,0.007-0.092,0.023-0.14c0.019-0.043,0.042-0.091,0.066-0.135
			c0.03-0.045,0.065-0.091,0.107-0.132c0.046-0.046,0.096-0.087,0.149-0.128c0.056-0.041,0.126-0.082,0.196-0.109
			c0.078-0.037,0.159-0.064,0.252-0.082c0.093-0.023,0.196-0.041,0.309-0.051c0.114-0.014,0.232-0.022,0.364-0.027l-0.007,1.602
			C32.879,44.038,32.769,44.029,32.668,44.006z"/>
		<rect x="16.542" y="51.292" width="33.471" height="1.446"/>
		<rect x="16.542" y="53.382" width="33.471" height="1.445"/>
		<rect x="16.542" y="55.467" width="33.471" height="1.445"/>
		<rect x="16.542" y="57.556" width="33.471" height="1.441"/>
		<path d="M33.47,16.703H0v10.981h33.47V16.703z M23.33,23.44c-0.324,0.506-0.821,0.967-1.452,1.357
			c-0.635,0.393-1.411,0.714-2.284,0.938c-0.876,0.225-1.843,0.348-2.866,0.348s-1.99-0.123-2.862-0.348
			c-0.871-0.225-1.647-0.544-2.284-0.938c-0.633-0.39-1.124-0.851-1.453-1.357c-0.322-0.501-0.475-1.043-0.43-1.605
			c0.049-0.554,0.283-1.074,0.671-1.544c0.383-0.462,0.916-0.876,1.551-1.219c0.633-0.341,1.369-0.615,2.184-0.8
			c0.81-0.188,1.696-0.29,2.619-0.29c0.923,0,1.808,0.103,2.62,0.29c0.813,0.188,1.551,0.462,2.188,0.8
			c0.639,0.343,1.168,0.757,1.551,1.219c0.388,0.468,0.624,0.988,0.67,1.544C23.804,22.396,23.657,22.937,23.33,23.44z"/>
		<path d="M19.591,22.183c-0.073-0.082-0.16-0.158-0.265-0.227c-0.109-0.067-0.234-0.131-0.368-0.187
			c-0.084-0.035-0.189-0.067-0.316-0.103c-0.124-0.035-0.259-0.069-0.426-0.105c-0.158-0.038-0.341-0.072-0.535-0.109
			c-0.201-0.038-0.42-0.075-0.651-0.109l-0.002-1.66c0.136,0.002,0.261,0.013,0.381,0.029c0.116,0.016,0.228,0.04,0.326,0.069
			c0.102,0.028,0.191,0.066,0.273,0.108s0.156,0.094,0.223,0.149c0.036,0.032,0.062,0.062,0.096,0.098
			c0.027,0.032,0.049,0.067,0.072,0.105c0.018,0.038,0.038,0.075,0.049,0.114c0.009,0.04,0.024,0.083,0.031,0.127h1.063
			c-0.013-0.098-0.036-0.187-0.069-0.274c-0.035-0.085-0.079-0.166-0.14-0.243c-0.054-0.076-0.128-0.149-0.21-0.214
			c-0.082-0.066-0.178-0.128-0.283-0.187c-0.109-0.058-0.226-0.107-0.35-0.154c-0.133-0.044-0.271-0.082-0.425-0.115
			c-0.149-0.032-0.315-0.058-0.493-0.079c-0.172-0.021-0.355-0.035-0.546-0.044l-0.002-0.43H16.46v0.439
			c-0.196,0-0.385,0.009-0.555,0.028c-0.178,0.018-0.343,0.044-0.502,0.079c-0.155,0.036-0.3,0.078-0.43,0.129
			c-0.138,0.049-0.258,0.109-0.367,0.178c-0.114,0.065-0.214,0.136-0.299,0.208c-0.086,0.072-0.159,0.145-0.22,0.225
			c-0.056,0.076-0.1,0.156-0.132,0.237c-0.033,0.083-0.049,0.167-0.049,0.253c-0.002,0.098,0.007,0.189,0.03,0.275
			c0.021,0.087,0.057,0.169,0.108,0.245c0.049,0.078,0.114,0.147,0.186,0.213c0.078,0.065,0.169,0.125,0.271,0.181
			c0.103,0.057,0.223,0.108,0.353,0.158c0.138,0.049,0.283,0.091,0.441,0.132c0.164,0.04,0.341,0.075,0.535,0.108
			c0.192,0.032,0.397,0.058,0.62,0.081l-0.005,1.967c-0.175-0.01-0.341-0.026-0.486-0.049c-0.145-0.024-0.283-0.054-0.403-0.093
			c-0.122-0.04-0.232-0.087-0.323-0.138c-0.091-0.054-0.168-0.114-0.234-0.183c-0.038-0.04-0.067-0.083-0.098-0.136
			c-0.027-0.049-0.051-0.104-0.07-0.163c-0.024-0.06-0.044-0.126-0.051-0.198c-0.017-0.069-0.026-0.147-0.031-0.231h-1.09
			c-0.004,0.103,0,0.201,0.009,0.294c0.014,0.094,0.033,0.183,0.056,0.265c0.026,0.083,0.061,0.161,0.103,0.233
			c0.042,0.073,0.091,0.14,0.145,0.202c0.105,0.114,0.238,0.217,0.393,0.306c0.151,0.089,0.336,0.166,0.539,0.229
			c0.206,0.065,0.437,0.116,0.691,0.151c0.255,0.04,0.535,0.063,0.839,0.074l-0.002,0.736h0.604l-0.002-0.736
			c0.189-0.009,0.367-0.025,0.535-0.044c0.166-0.018,0.328-0.042,0.47-0.065c0.145-0.025,0.277-0.054,0.401-0.087
			c0.123-0.032,0.234-0.067,0.332-0.104c0.174-0.07,0.336-0.149,0.466-0.243c0.131-0.093,0.243-0.196,0.332-0.312
			c0.084-0.115,0.147-0.241,0.187-0.378c0.044-0.138,0.056-0.285,0.051-0.444c-0.005-0.109-0.029-0.213-0.061-0.309
			C19.712,22.349,19.658,22.266,19.591,22.183z M16.451,21.274c-0.114-0.012-0.225-0.027-0.325-0.047
			c-0.101-0.018-0.196-0.04-0.288-0.061c-0.088-0.021-0.17-0.047-0.25-0.074c-0.072-0.028-0.145-0.057-0.217-0.089
			c-0.061-0.031-0.122-0.066-0.169-0.105c-0.049-0.038-0.088-0.08-0.123-0.124c-0.036-0.047-0.056-0.094-0.073-0.145
			c-0.016-0.049-0.025-0.103-0.022-0.159c0-0.046,0.009-0.091,0.025-0.136c0.015-0.046,0.038-0.091,0.064-0.136
			c0.03-0.044,0.062-0.089,0.109-0.131c0.047-0.041,0.096-0.085,0.149-0.125c0.054-0.042,0.126-0.08,0.196-0.112
			c0.073-0.033,0.159-0.059,0.25-0.082c0.096-0.022,0.196-0.04,0.312-0.051c0.114-0.013,0.233-0.02,0.364-0.024L16.451,21.274z
			 M18.698,23.068c-0.009,0.047-0.021,0.089-0.04,0.129c-0.018,0.044-0.041,0.083-0.06,0.121c-0.028,0.04-0.052,0.077-0.087,0.115
			c-0.065,0.072-0.147,0.135-0.243,0.188c-0.096,0.057-0.205,0.102-0.328,0.14c-0.122,0.04-0.255,0.071-0.41,0.091
			c-0.147,0.024-0.315,0.035-0.49,0.042l-0.007-1.901c0.131,0.021,0.243,0.042,0.353,0.06c0.11,0.02,0.211,0.042,0.301,0.063
			c0.091,0.021,0.173,0.042,0.243,0.064c0.075,0.021,0.14,0.044,0.194,0.067c0.096,0.04,0.178,0.083,0.251,0.129
			c0.067,0.047,0.132,0.098,0.177,0.154c0.049,0.056,0.086,0.12,0.113,0.185c0.025,0.067,0.039,0.138,0.041,0.214
			C18.709,22.979,18.705,23.024,18.698,23.068z"/>
		<rect y="28.516" width="33.47" height="1.444"/>
		<rect y="30.604" width="33.47" height="1.443"/>
	</g>
</g>
<g>
</g>
<g>
</g>
<g>
</g>
<g>
</g>
<g>
</g>
<g>
</g>
<g>
</g>
<g>
</g>
<g>
</g>
<g>
</g>
<g>
</g>
<g>
</g>
<g>
</g>
<g>
</g>
<g>
</g>
</svg>
