<?xml version="1.0" encoding="iso-8859-1"?>
<!-- Generator: Adobe Illustrator 18.1.1, SVG Export Plug-In . SVG Version: 6.00 Build 0)  -->
<svg version="1.1" id="Capa_1" xmlns="http://www.w3.org/2000/svg" xmlns:xlink="http://www.w3.org/1999/xlink" x="0px" y="0px"
	 viewBox="0 0 155.139 155.139" style="enable-background:new 0 0 155.139 155.139;" xml:space="preserve">
<g>
	<g>
		<path style="fill:#010002;" d="M87.993,67.879c-1.617-1.158-4.35-2.267-8.198-3.318v24.237c5.269-0.245,8.879-2.154,10.89-5.758
			c1.038-1.862,1.545-3.974,1.545-6.385C92.23,72.802,90.822,69.878,87.993,67.879z"/>
		<path style="fill:#010002;" d="M66.757,37.084c-1.718,2.321-2.578,4.738-2.578,7.262c0,3.031,1.008,5.418,3.037,7.13
			c2.029,1.724,4.762,2.924,8.21,3.604V33.414C71.358,33.558,68.482,34.799,66.757,37.084z"/>
		<path style="fill:#010002;" d="M139.828,0H15.311C9.469,0,4.732,4.75,4.732,10.591v103.77c0,5.842,4.738,10.579,10.579,10.579
			h27.34v30.198l30.192-30.198h66.984c5.842,0,10.579-4.744,10.579-10.579V10.591C150.401,4.75,145.663,0,139.828,0z M92.558,91.812
			c-2.936,1.903-7.178,3.139-12.763,3.777v8.95h-4.362v-8.95c-8.944-0.591-15.037-3.741-18.211-9.487
			c-1.76-3.109-2.643-7.315-2.643-12.584h8.187c0.227,4.195,0.889,7.292,1.981,9.219c1.903,3.479,5.478,5.418,10.687,5.842V63.487
			c-6.683-1.259-11.6-3.365-14.792-6.331c-3.162-2.948-4.756-7.041-4.756-12.262c0-4.666,1.707-8.867,5.132-12.614
			c3.419-3.753,8.228-5.663,14.41-5.722v-6.134h4.362v6.027c6.11,0.442,10.818,2.25,14.07,5.406
			c3.294,3.174,4.988,7.369,5.143,12.572h-8.079c-0.203-2.333-0.835-4.35-1.874-6.015c-1.939-3.121-5.03-4.756-9.273-4.911v22.465
			c7.118,1.987,11.981,3.855,14.523,5.621c4.135,2.858,6.235,7.148,6.235,12.805C100.554,82.564,97.892,88.375,92.558,91.812z"/>
	</g>
</g>
<g>
</g>
<g>
</g>
<g>
</g>
<g>
</g>
<g>
</g>
<g>
</g>
<g>
</g>
<g>
</g>
<g>
</g>
<g>
</g>
<g>
</g>
<g>
</g>
<g>
</g>
<g>
</g>
<g>
</g>
</svg>
