<?xml version="1.0" encoding="iso-8859-1"?>
<!-- Generator: Adobe Illustrator 18.1.1, SVG Export Plug-In . SVG Version: 6.00 Build 0)  -->
<svg version="1.1" id="Capa_1" xmlns="http://www.w3.org/2000/svg" xmlns:xlink="http://www.w3.org/1999/xlink" x="0px" y="0px"
	 viewBox="0 0 179 179" style="enable-background:new 0 0 179 179;" xml:space="preserve">
<g>
	<g>
		<path style="fill:#010002;" d="M118.744,134.356c-1.372-0.955-4.01-1.969-7.888-3.043v-12.202
			c2.309,0.072,3.986,0.967,5.036,2.655c0.567,0.907,0.907,2.017,1.026,3.276h4.38c-0.09-2.846-1.014-5.114-2.792-6.838
			c-1.778-1.724-4.332-2.691-7.65-2.924v-3.288h-2.375v3.347c-3.353,0.012-5.961,1.062-7.823,3.103
			c-1.862,2.029-2.798,4.302-2.798,6.856c0,2.822,0.865,5.06,2.602,6.665c1.724,1.599,4.392,2.739,8.019,3.413v13.658
			c-2.822-0.245-4.756-1.307-5.806-3.18c-0.591-1.062-0.955-2.727-1.086-5.012h-4.427c0,2.864,0.471,5.149,1.42,6.838
			c1.742,3.109,5.036,4.845,9.893,5.161v4.845h2.375v-4.845c3.019-0.352,5.346-1.038,6.945-2.065
			c2.876-1.862,4.326-5.024,4.326-9.463C122.127,138.246,121.005,135.913,118.744,134.356z M108.481,130.824
			c-1.862-0.37-3.347-1.014-4.451-1.957c-1.11-0.931-1.653-2.226-1.653-3.855c0-1.372,0.465-2.691,1.402-3.938
			c0.937-1.259,2.506-1.921,4.702-2.017V130.824z M116.769,146.033c-1.092,1.945-3.055,2.995-5.913,3.121v-13.181
			c2.088,0.573,3.58,1.175,4.463,1.82c1.528,1.086,2.309,2.667,2.309,4.756C117.628,143.849,117.335,145.031,116.769,146.033z"/>
		<path style="fill:#010002;" d="M142.474,50.45c-4.35,0-7.924,3.902-7.924,8.694v31.78h-5.758V27.43
			c0-4.791-3.574-8.694-7.936-8.694c-4.356,0-7.924,3.902-7.924,8.694v63.493h-5.77V8.694c0-4.779-3.568-8.694-7.924-8.694
			c-4.362,0-7.936,3.914-7.936,8.694v82.229h-5.764V23.832c0-4.791-3.568-8.7-7.93-8.7c-4.356,0-7.924,3.908-7.924,8.7v75.797
			v24.542v39.125H37.308c-4.785,0-8.7,3.532-8.7,7.84c0,4.338,3.914,7.864,8.7,7.864h41.07h35.103h28.217
			c4.779,0,8.694-3.914,8.694-8.694v-46.136V99.629V59.144C150.41,54.352,146.836,50.45,142.474,50.45z M109.644,163.629
			c-15.896,0-28.79-12.888-28.79-28.784s12.894-28.784,28.79-28.784c15.908,0,28.796,12.888,28.796,28.784
			S125.552,163.629,109.644,163.629z"/>
	</g>
</g>
<g>
</g>
<g>
</g>
<g>
</g>
<g>
</g>
<g>
</g>
<g>
</g>
<g>
</g>
<g>
</g>
<g>
</g>
<g>
</g>
<g>
</g>
<g>
</g>
<g>
</g>
<g>
</g>
<g>
</g>
</svg>
