<?xml version="1.0" encoding="iso-8859-1"?>
<!-- Generator: Adobe Illustrator 18.1.1, SVG Export Plug-In . SVG Version: 6.00 Build 0)  -->
<svg version="1.1" id="Capa_1" xmlns="http://www.w3.org/2000/svg" xmlns:xlink="http://www.w3.org/1999/xlink" x="0px" y="0px"
	 viewBox="0 0 155.139 155.139" style="enable-background:new 0 0 155.139 155.139;" xml:space="preserve">
<g>
	<g>
		<path style="fill:#010002;" d="M102.839,125.188H52.288c-2.87,0-5.215,2.345-5.215,5.209v4.487c0,2.864,2.345,5.209,5.215,5.209
			h50.551c2.87,0,5.215-2.345,5.215-5.209v-4.487C108.054,127.533,105.721,125.188,102.839,125.188z"/>
		<g>
			<path style="fill:#010002;" d="M86.114,70.651c-1.325-0.955-3.562-1.862-6.713-2.715v19.852c4.32-0.191,7.28-1.766,8.92-4.714
				c0.859-1.522,1.265-3.258,1.265-5.239C89.587,74.684,88.429,72.286,86.114,70.651z"/>
			<path style="fill:#010002;" d="M68.72,45.417c-1.396,1.897-2.112,3.872-2.112,5.943c0,2.482,0.829,4.439,2.488,5.842
				c1.659,1.408,3.896,2.393,6.725,2.942V42.392C72.486,42.535,70.129,43.549,68.72,45.417z"/>
			<path style="fill:#010002;" d="M146.469,15.045H8.67c-4.791,0-8.67,3.884-8.67,8.67v85.004c0,4.791,3.878,8.676,8.67,8.676
				h137.799c4.791,0,8.67-3.884,8.67-8.676V23.721C155.139,18.936,151.26,15.045,146.469,15.045z M89.855,90.252
				c-2.405,1.563-5.877,2.578-10.454,3.091v7.333h-3.58v-7.333c-7.333-0.477-12.31-3.067-14.917-7.769
				c-1.438-2.548-2.166-5.991-2.166-10.317h6.707c0.185,3.449,0.734,5.979,1.623,7.56c1.563,2.852,4.487,4.445,8.753,4.785V67.047
				c-5.472-1.026-9.505-2.763-12.113-5.173c-2.596-2.417-3.884-5.77-3.884-10.048c0-3.831,1.39-7.274,4.195-10.329
				c2.81-3.085,6.749-4.642,11.808-4.69v-5.024h3.58v4.929c5.018,0.37,8.861,1.844,11.534,4.427
				c2.697,2.608,4.093,6.038,4.219,10.311h-6.611c-0.167-1.909-0.68-3.574-1.539-4.929c-1.593-2.56-4.117-3.884-7.59-4.022v18.402
				c5.842,1.623,9.821,3.162,11.892,4.6c3.389,2.357,5.108,5.859,5.108,10.49C96.401,82.674,94.223,87.43,89.855,90.252z"/>
		</g>
	</g>
</g>
<g>
</g>
<g>
</g>
<g>
</g>
<g>
</g>
<g>
</g>
<g>
</g>
<g>
</g>
<g>
</g>
<g>
</g>
<g>
</g>
<g>
</g>
<g>
</g>
<g>
</g>
<g>
</g>
<g>
</g>
</svg>
