<?xml version="1.0" encoding="iso-8859-1"?>
<!-- Generator: Adobe Illustrator 16.0.0, SVG Export Plug-In . SVG Version: 6.00 Build 0)  -->
<!DOCTYPE svg PUBLIC "-//W3C//DTD SVG 1.1//EN" "http://www.w3.org/Graphics/SVG/1.1/DTD/svg11.dtd">
<svg version="1.1" id="Capa_1" xmlns="http://www.w3.org/2000/svg" xmlns:xlink="http://www.w3.org/1999/xlink" x="0px" y="0px"
	 width="74.371px" height="74.37px" viewBox="0 0 74.371 74.37" style="enable-background:new 0 0 74.371 74.37;"
	 xml:space="preserve">
<g>
	<g>
		<path d="M22.874,35.584c-0.091-0.872-0.57-1.822-0.546-2.59c2.274,1.633,3.642,4.005,3.681,7.498
			c0.004,0.449-0.047,0.915-0.116,1.378h14.929c-1.213-6.769-5.416-13.237-4.859-20.875c0.056-0.759,0.167-1.756,0.408-2.588
			c0.215-0.74,0.864-1.409,0.818-2.184c-4.564,2.175-7.956,6.209-7.772,12.682c-3.896-4.315-8.011-10.17-8.452-18.133
			C20.716,6.295,21.991,3.429,23.007,0c-0.136,0-0.273,0-0.409,0c-6.556,3.999-10.359,11.63-8.726,21.947
			c0.383,2.423,1.42,5.06,1.364,7.774c-0.062,2.969-0.896,5.16-2.182,7.357c1.206-6.662-0.656-13.751-5.59-15.949
			c0.559,5.032,0.909,9.117-0.818,12.541c-0.422,0.834-1.046,1.558-1.499,2.316c-1.375,2.299-2.507,5.054-3,8.453
			c0,1.092,0,2.183,0,3.271c1.114,7.131,6.176,11.004,12.816,12.952c0.878,0.255,1.937,0.894,2.864,0.406
			c-2.354-1.412-4.471-3.034-4.772-6.132c-0.477-4.882,3.66-9.018,2.318-14.042c1.679,1.059,3.156,3.011,2.59,5.862
			c0.807,0.146,1.295-0.881,1.772-1.501C21.444,43.042,23.315,39.89,22.874,35.584z"/>
		<path d="M22.483,44.144V74.37h49.739V44.144H22.483z M47.354,70.426c-6.173,0-11.171-5-11.171-11.166
			c0-6.175,5.001-11.172,11.171-11.172c6.173,0,11.168,5.007,11.168,11.172C58.522,65.426,53.522,70.426,47.354,70.426z"/>
		<path d="M50.885,59.068c-0.538-0.369-1.556-0.762-3.062-1.188v-4.729c0.89,0.034,1.54,0.374,1.953,1.024
			c0.219,0.355,0.349,0.78,0.396,1.272h1.702c-0.037-1.095-0.393-1.979-1.082-2.65c-0.693-0.666-1.683-1.045-2.97-1.134v-1.275H46.9
			v1.294c-1.303,0.014-2.312,0.415-3.036,1.211c-0.726,0.789-1.086,1.675-1.086,2.664c0,1.1,0.34,1.962,1.011,2.582
			c0.669,0.616,1.709,1.062,3.111,1.33v5.299c-1.097-0.091-1.843-0.504-2.251-1.236c-0.229-0.405-0.367-1.054-0.42-1.938h-1.72
			c0,1.113,0.187,1.993,0.552,2.65c0.675,1.214,1.957,1.88,3.844,1.998v1.889h0.924v-1.889c1.172-0.13,2.071-0.393,2.689-0.794
			c1.12-0.728,1.686-1.952,1.686-3.672C52.195,60.581,51.761,59.68,50.885,59.068z M46.903,57.7
			c-0.73-0.144-1.306-0.399-1.729-0.758c-0.429-0.365-0.639-0.866-0.639-1.508c0-0.531,0.183-1.035,0.538-1.523
			c0.365-0.483,0.977-0.744,1.83-0.775V57.7L46.903,57.7z M50.119,63.601c-0.424,0.756-1.187,1.164-2.29,1.216v-5.111
			c0.808,0.224,1.382,0.454,1.725,0.702c0.598,0.425,0.898,1.033,0.898,1.848C50.452,62.76,50.337,63.213,50.119,63.601z"/>
	</g>
</g>
<g>
</g>
<g>
</g>
<g>
</g>
<g>
</g>
<g>
</g>
<g>
</g>
<g>
</g>
<g>
</g>
<g>
</g>
<g>
</g>
<g>
</g>
<g>
</g>
<g>
</g>
<g>
</g>
<g>
</g>
</svg>
