<?xml version="1.0" encoding="iso-8859-1"?>
<!-- Generator: Adobe Illustrator 16.0.0, SVG Export Plug-In . SVG Version: 6.00 Build 0)  -->
<!DOCTYPE svg PUBLIC "-//W3C//DTD SVG 1.1//EN" "http://www.w3.org/Graphics/SVG/1.1/DTD/svg11.dtd">
<svg version="1.1" id="Capa_1" xmlns="http://www.w3.org/2000/svg" xmlns:xlink="http://www.w3.org/1999/xlink" x="0px" y="0px"
	 width="60.731px" height="60.73px" viewBox="0 0 60.731 60.73" style="enable-background:new 0 0 60.731 60.73;"
	 xml:space="preserve">
<g>
	<g>
		<polygon points="7.241,22.724 30.366,5.905 53.491,22.724 60.731,22.724 55.215,18.708 55.215,7.581 45.448,7.581 45.448,11.61 
			30.366,0.641 0,22.724 		"/>
		<g>
			<path d="M21.31,20.528c1.877-2.053,4.502-3.102,7.883-3.129v-3.36h2.394v3.299c3.352,0.243,5.918,1.227,7.706,2.964
				c1.793,1.738,2.73,4.034,2.815,6.885h-4.416c-0.119-1.281-0.461-2.385-1.031-3.299c-1.061-1.705-2.751-2.599-5.07-2.681v12.296
				c3.902,1.09,6.551,2.116,7.942,3.074c2.273,1.574,3.407,3.919,3.407,7.013c0,4.475-1.453,7.648-4.363,9.534
				c-1.613,1.043-3.944,1.727-6.99,2.066v4.9h-2.394v-4.9c-4.896-0.318-8.218-2.043-9.97-5.191
				c-0.958-1.706-1.439-4.003-1.439-6.894h4.471c0.131,2.302,0.499,3.997,1.089,5.051c1.05,1.9,3.003,2.968,5.849,3.195V37.609
				c-3.649-0.688-6.347-1.843-8.086-3.455c-1.741-1.615-2.61-3.855-2.61-6.717C18.497,24.879,19.434,22.581,21.31,20.528z
				 M24.704,31.047c1.111,0.94,2.604,1.6,4.491,1.962V21.154c-2.222,0.085-3.802,0.761-4.745,2.011
				c-0.941,1.268-1.411,2.59-1.411,3.969C23.038,28.799,23.592,30.105,24.704,31.047z M37.544,48.324
				c0.572-1.018,0.859-2.181,0.859-3.499c0-2.108-0.779-3.705-2.326-4.805c-0.89-0.634-2.386-1.24-4.486-1.811v13.267
				C34.469,51.344,36.447,50.295,37.544,48.324z"/>
		</g>
	</g>
</g>
<g>
</g>
<g>
</g>
<g>
</g>
<g>
</g>
<g>
</g>
<g>
</g>
<g>
</g>
<g>
</g>
<g>
</g>
<g>
</g>
<g>
</g>
<g>
</g>
<g>
</g>
<g>
</g>
<g>
</g>
</svg>
