<?xml version="1.0" encoding="iso-8859-1"?>
<!-- Generator: Adobe Illustrator 18.1.1, SVG Export Plug-In . SVG Version: 6.00 Build 0)  -->
<svg version="1.1" id="Capa_1" xmlns="http://www.w3.org/2000/svg" xmlns:xlink="http://www.w3.org/1999/xlink" x="0px" y="0px"
	 viewBox="0 0 179.003 179.003" style="enable-background:new 0 0 179.003 179.003;" xml:space="preserve">
<g>
	<g>
		<path style="fill:#010002;" d="M70.763,39.134h37.436c1.462,0,2.643-1.134,2.643-2.524s-1.181-2.518-2.643-2.518H70.763
			c-1.45,0-2.637,1.128-2.637,2.518C68.125,38,69.313,39.134,70.763,39.134z"/>
		<path style="fill:#010002;" d="M104.326,30.238c1.748-9.237,8.336-21.881,8.336-21.881S84.851-4.323,78.394,1.555
			c-2.608,2.369,3.801,11.409,1.426,14.028c-2.255,2.506-13.521,0-13.521,0s4.338,7.858,6.367,14.655H104.326z"/>
		<g>
			<path style="fill:#010002;" d="M109.362,42.869c-0.37,0.066-0.764,0.113-1.152,0.113h-37.43c-0.668,0-1.307-0.131-1.915-0.316
				c-26.004,24.763-40.109,61.918-40.109,84.324c-0.006,28.725,29.315,52.013,60.743,52.013s60.749-23.289,60.749-52.013
				C150.247,104.322,135.724,70.621,109.362,42.869z M89.493,145.995c-16.695,0-30.228-13.539-30.228-30.24
				c0-16.695,13.545-30.228,30.228-30.228s30.228,13.539,30.228,30.228C119.721,132.456,106.188,145.995,89.493,145.995z"/>
			<path style="fill:#010002;" d="M99.064,115.236c-1.468-0.996-4.219-2.071-8.294-3.21V99.226c2.417,0.09,4.183,1.014,5.299,2.787
				c0.591,0.967,0.943,2.112,1.08,3.443h4.6c-0.089-2.971-1.062-5.364-2.936-7.178c-1.862-1.808-4.541-2.84-8.031-3.085V91.75h-2.5
				v3.497c-3.526,0.036-6.259,1.122-8.216,3.264s-2.936,4.541-2.936,7.208c0,2.983,0.907,5.316,2.721,6.999
				c1.82,1.683,4.624,2.882,8.431,3.604v14.326c-2.966-0.251-5-1.36-6.092-3.341c-0.621-1.11-1.002-2.858-1.128-5.257h-4.666
				c0,3.013,0.507,5.4,1.51,7.178c1.82,3.282,5.293,5.084,10.382,5.412v5.102h2.5v-5.102c3.174-0.352,5.597-1.068,7.292-2.154
				c3.031-1.963,4.553-5.281,4.553-9.941C102.602,119.329,101.421,116.888,99.064,115.236z M88.27,111.53
				c-1.963-0.382-3.526-1.074-4.672-2.053c-1.164-0.985-1.748-2.345-1.748-4.081c0-1.438,0.501-2.822,1.474-4.129
				c0.985-1.313,2.631-2.017,4.947-2.1L88.27,111.53L88.27,111.53z M96.969,127.497c-1.122,2.053-3.204,3.145-6.2,3.288v-13.837
				c2.19,0.603,3.753,1.229,4.678,1.891c1.617,1.14,2.411,2.81,2.411,5C97.858,125.224,97.572,126.441,96.969,127.497z"/>
		</g>
	</g>
</g>
<g>
</g>
<g>
</g>
<g>
</g>
<g>
</g>
<g>
</g>
<g>
</g>
<g>
</g>
<g>
</g>
<g>
</g>
<g>
</g>
<g>
</g>
<g>
</g>
<g>
</g>
<g>
</g>
<g>
</g>
</svg>
