<?xml version="1.0" encoding="iso-8859-1"?>
<!-- Generator: Adobe Illustrator 16.0.0, SVG Export Plug-In . SVG Version: 6.00 Build 0)  -->
<!DOCTYPE svg PUBLIC "-//W3C//DTD SVG 1.1//EN" "http://www.w3.org/Graphics/SVG/1.1/DTD/svg11.dtd">
<svg version="1.1" id="Capa_1" xmlns="http://www.w3.org/2000/svg" xmlns:xlink="http://www.w3.org/1999/xlink" x="0px" y="0px"
	 width="70.074px" height="70.074px" viewBox="0 0 70.074 70.074" style="enable-background:new 0 0 70.074 70.074;"
	 xml:space="preserve">
<g>
	<g>
		<g>
			<path d="M37.967,19.065c-0.452-0.33-1.219-0.633-2.3-0.93v6.806c1.478-0.067,2.492-0.604,3.062-1.614
				c0.29-0.52,0.435-1.119,0.435-1.799C39.159,20.448,38.765,19.625,37.967,19.065z"/>
			<path d="M32.004,10.416c-0.483,0.646-0.727,1.327-0.727,2.037c0,0.85,0.283,1.52,0.852,2.004
				c0.568,0.483,1.334,0.822,2.304,1.011V9.386C33.295,9.425,32.488,9.773,32.004,10.416z"/>
			<path d="M58.664,0h-47.25C9.772,0,8.44,1.331,8.44,2.974V32.12c0,1.64,1.332,2.972,2.975,2.972h47.25
				c1.641,0,2.971-1.332,2.971-2.972V2.974C61.637,1.331,60.303,0,58.664,0z M39.25,25.788c-0.826,0.535-2.016,0.883-3.583,1.059
				v2.51h-1.224v-2.51c-2.511-0.165-4.223-1.052-5.113-2.668c-0.493-0.871-0.744-2.053-0.744-3.537h2.299
				c0.062,1.182,0.252,2.048,0.558,2.585c0.535,0.979,1.538,1.524,3,1.643v-7.047c-1.878-0.353-3.261-0.946-4.154-1.777
				c-0.887-0.827-1.333-1.981-1.333-3.445c0-1.312,0.479-2.49,1.441-3.546C31.356,8,32.707,7.46,34.443,7.447V5.726h1.224v1.69
				c1.716,0.129,3.038,0.633,3.95,1.521c0.927,0.89,1.403,2.069,1.446,3.531h-2.27c-0.056-0.653-0.236-1.219-0.53-1.69
				c-0.544-0.876-1.411-1.334-2.602-1.379v6.309c1.999,0.553,3.362,1.086,4.079,1.579c1.163,0.807,1.751,2.006,1.751,3.595
				C41.497,23.189,40.744,24.82,39.25,25.788z"/>
		</g>
		<path d="M30.422,37.638v30.256c0,1.205,0.977,2.181,2.182,2.181h4.865c1.203,0,2.182-0.976,2.182-2.181V37.638H30.422z"/>
	</g>
</g>
<g>
</g>
<g>
</g>
<g>
</g>
<g>
</g>
<g>
</g>
<g>
</g>
<g>
</g>
<g>
</g>
<g>
</g>
<g>
</g>
<g>
</g>
<g>
</g>
<g>
</g>
<g>
</g>
<g>
</g>
</svg>
