<?xml version="1.0" encoding="iso-8859-1"?>
<!-- Generator: Adobe Illustrator 18.1.1, SVG Export Plug-In . SVG Version: 6.00 Build 0)  -->
<svg version="1.1" id="Capa_1" xmlns="http://www.w3.org/2000/svg" xmlns:xlink="http://www.w3.org/1999/xlink" x="0px" y="0px"
	 viewBox="0 0 179.006 179.006" style="enable-background:new 0 0 179.006 179.006;" xml:space="preserve">
<g>
	<g>
		<g>
			<path style="fill:#010002;" d="M132.017,94.709H21.88v6.778h103.716C127.84,99.244,129.97,96.977,132.017,94.709z"/>
			<path style="fill:#010002;" d="M158.88,39.259H21.88v51.56h113.55C151.314,72.017,160.073,52.977,158.88,39.259z M124.588,77.238
				c-2.989,1.85-6.623,3.353-10.716,4.41c-4.111,1.05-8.652,1.635-13.449,1.635c-4.779,0-9.32-0.585-13.425-1.641
				c-4.081-1.05-7.715-2.554-10.711-4.404c-2.966-1.832-5.293-3.992-6.82-6.373c-1.516-2.345-2.232-4.893-2.011-7.53
				c0.221-2.602,1.331-5.042,3.145-7.244c1.802-2.178,4.29-4.111,7.28-5.722c2.966-1.605,6.444-2.882,10.251-3.765
				c3.795-0.877,7.948-1.366,12.286-1.366c4.35,0,8.503,0.483,12.31,1.366c3.807,0.883,7.292,2.166,10.257,3.765
				c3.001,1.611,5.49,3.544,7.292,5.722c1.826,2.202,2.924,4.642,3.139,7.244c0.221,2.637-0.489,5.185-2.005,7.53
				C129.887,73.246,127.554,75.412,124.588,77.238z"/>
			<path style="fill:#010002;" d="M113.83,64.97c-0.334-0.388-0.746-0.74-1.241-1.062c-0.501-0.322-1.074-0.615-1.736-0.871
				c-0.4-0.161-0.883-0.322-1.468-0.483c-0.585-0.161-1.241-0.334-1.999-0.495c-0.746-0.167-1.593-0.34-2.512-0.513
				c-0.931-0.173-1.951-0.346-3.067-0.519l-0.012-7.781c0.632,0.006,1.235,0.054,1.784,0.125c0.555,0.078,1.074,0.185,1.539,0.322
				c0.465,0.137,0.895,0.31,1.283,0.513c0.388,0.203,0.734,0.442,1.044,0.704c0.161,0.143,0.298,0.298,0.442,0.453
				c0.131,0.161,0.245,0.328,0.346,0.495c0.095,0.173,0.173,0.352,0.245,0.543c0.06,0.185,0.113,0.376,0.137,0.585h4.982
				c-0.054-0.448-0.143-0.871-0.322-1.277c-0.143-0.4-0.37-0.776-0.632-1.134c-0.274-0.364-0.603-0.698-0.996-1.008
				c-0.37-0.31-0.817-0.609-1.331-0.871c-0.501-0.274-1.05-0.513-1.653-0.728c-0.621-0.209-1.271-0.388-1.987-0.543
				c-0.704-0.149-1.474-0.274-2.297-0.37c-0.811-0.095-1.683-0.161-2.596-0.203v-2.011h-2.643V50.9
				c-0.931,0-1.808,0.048-2.625,0.125c-0.835,0.084-1.617,0.203-2.339,0.364c-0.728,0.161-1.408,0.364-2.023,0.603
				c-0.627,0.245-1.199,0.519-1.724,0.835c-0.531,0.316-1.002,0.638-1.402,0.979c-0.406,0.34-0.746,0.692-1.014,1.05
				c-0.274,0.364-0.477,0.734-0.621,1.116c-0.143,0.382-0.233,0.776-0.239,1.187c-0.024,0.453,0.03,0.889,0.131,1.289
				c0.107,0.406,0.274,0.788,0.501,1.152c0.233,0.358,0.525,0.692,0.877,0.996c0.364,0.31,0.788,0.597,1.271,0.853
				c0.483,0.263,1.044,0.507,1.665,0.734c0.632,0.227,1.319,0.436,2.088,0.621c0.77,0.185,1.599,0.358,2.494,0.501
				c0.907,0.149,1.874,0.274,2.9,0.382l-0.024,9.231c-0.829-0.042-1.599-0.119-2.291-0.227c-0.692-0.107-1.319-0.251-1.891-0.436
				c-0.561-0.179-1.062-0.394-1.492-0.644c-0.436-0.251-0.806-0.537-1.104-0.859c-0.161-0.185-0.316-0.394-0.448-0.621
				c-0.131-0.239-0.251-0.495-0.352-0.782c-0.101-0.286-0.185-0.591-0.239-0.931c-0.066-0.328-0.113-0.692-0.131-1.086h-5.114
				c-0.018,0.489,0,0.949,0.048,1.384c0.048,0.436,0.143,0.847,0.263,1.241c0.125,0.388,0.286,0.752,0.489,1.092
				c0.191,0.34,0.43,0.656,0.692,0.949c0.495,0.531,1.104,1.008,1.826,1.432c0.734,0.418,1.581,0.782,2.548,1.08
				c0.973,0.298,2.047,0.543,3.24,0.716c1.199,0.179,2.506,0.298,3.95,0.346l0,3.461h2.846l-0.006-3.455
				c0.877-0.054,1.724-0.125,2.506-0.209c0.788-0.09,1.522-0.197,2.202-0.316c0.692-0.119,1.313-0.251,1.88-0.4
				c0.573-0.155,1.098-0.322,1.551-0.501c0.847-0.328,1.581-0.704,2.202-1.146c0.621-0.436,1.128-0.919,1.551-1.468
				c0.394-0.543,0.71-1.134,0.877-1.778c0.191-0.638,0.269-1.343,0.251-2.088c-0.018-0.513-0.125-1.002-0.298-1.45
				C114.427,65.764,114.164,65.352,113.83,64.97z M99.092,60.716c-0.525-0.06-1.038-0.137-1.504-0.221
				c-0.489-0.09-0.931-0.179-1.354-0.286c-0.418-0.107-0.811-0.221-1.175-0.352c-0.364-0.125-0.698-0.263-1.02-0.412
				c-0.298-0.149-0.561-0.31-0.794-0.495c-0.233-0.173-0.412-0.37-0.573-0.579c-0.149-0.209-0.269-0.43-0.346-0.668
				c-0.078-0.239-0.113-0.489-0.107-0.752c0-0.221,0.036-0.43,0.119-0.638c0.066-0.209,0.173-0.424,0.304-0.632
				c0.125-0.203,0.31-0.412,0.501-0.615c0.209-0.203,0.453-0.4,0.722-0.597c0.257-0.197,0.579-0.376,0.919-0.525
				c0.352-0.149,0.746-0.274,1.187-0.382c0.442-0.101,0.913-0.185,1.444-0.239c0.525-0.06,1.098-0.09,1.712-0.107L99.092,60.716z
				 M109.653,69.141c-0.042,0.215-0.107,0.406-0.173,0.609c-0.09,0.197-0.185,0.382-0.298,0.573
				c-0.125,0.179-0.263,0.358-0.412,0.531c-0.316,0.334-0.698,0.627-1.146,0.889c-0.442,0.257-0.961,0.477-1.533,0.662
				c-0.573,0.179-1.205,0.322-1.915,0.424c-0.698,0.107-1.474,0.167-2.303,0.197l-0.036-8.926c0.597,0.095,1.146,0.191,1.659,0.286
				c0.507,0.101,0.991,0.191,1.408,0.292c0.424,0.101,0.823,0.203,1.158,0.298c0.352,0.107,0.644,0.215,0.901,0.322
				c0.453,0.179,0.847,0.382,1.175,0.609c0.334,0.215,0.621,0.459,0.859,0.728c0.221,0.269,0.394,0.555,0.513,0.865
				c0.119,0.31,0.179,0.65,0.185,1.008C109.707,68.723,109.689,68.932,109.653,69.141z"/>
			<path style="fill:#010002;" d="M122.458,104.501H21.88v6.784h93.077C117.553,109.048,120.059,106.786,122.458,104.501z"/>
			<path style="fill:#010002;" d="M158.247,90.807h20.759V52.69C175.772,64.165,168.671,77.322,158.247,90.807z"/>
			<path style="fill:#010002;" d="M140.048,111.273h38.958v-6.784h-32.4C144.512,106.768,142.31,109.024,140.048,111.273z"/>
			<path style="fill:#010002;" d="M129.618,121.071h49.388v-6.772h-42.043C134.595,116.572,132.142,118.833,129.618,121.071z"/>
			<path style="fill:#010002;" d="M149.297,101.488h29.709v-6.778h-23.927C153.241,96.965,151.314,99.226,149.297,101.488z"/>
			<path style="fill:#010002;" d="M111.407,114.298H21.88v6.772h80.684C105.53,118.923,108.478,116.691,111.407,114.298z"/>
			<path style="fill:#010002;" d="M122.619,127.073c-1.599,1.313-3.216,2.53-4.821,3.789h61.208v-6.778h-52.908
				C124.934,125.081,123.812,126.095,122.619,127.073z"/>
			<path style="fill:#010002;" d="M98.328,124.09H21.874v6.778h65.683C91.132,128.786,94.724,126.548,98.328,124.09z"/>
		</g>
		<path style="fill:#010002;" d="M169.107,22.033c-7.858-9.565-24.106-10.722-44.03-4.881c9.762-0.37,17.632,2.059,22.31,7.751
			c13.867,16.898-5.215,55.504-42.633,86.245c-37.418,30.729-79.007,41.965-92.868,25.067c-4.678-5.692-5.531-13.891-3.276-23.39
			c-9.607,18.414-11.623,34.578-3.765,44.137c15.77,19.207,65.331,4.577,110.697-32.692
			C160.891,87.018,184.877,41.246,169.107,22.033z"/>
	</g>
</g>
<g>
</g>
<g>
</g>
<g>
</g>
<g>
</g>
<g>
</g>
<g>
</g>
<g>
</g>
<g>
</g>
<g>
</g>
<g>
</g>
<g>
</g>
<g>
</g>
<g>
</g>
<g>
</g>
<g>
</g>
</svg>
