<?xml version="1.0" encoding="iso-8859-1"?>
<!-- Generator: Adobe Illustrator 18.1.1, SVG Export Plug-In . SVG Version: 6.00 Build 0)  -->
<svg version="1.1" id="Capa_1" xmlns="http://www.w3.org/2000/svg" xmlns:xlink="http://www.w3.org/1999/xlink" x="0px" y="0px"
	 viewBox="0 0 179.006 179.006" style="enable-background:new 0 0 179.006 179.006;" xml:space="preserve">
<g>
	<g>
		<path style="fill:#010002;" d="M101.944,105.139c-2.351,4.105-5.776,6.152-10.275,6.152c-4.869,0-8.545-1.945-10.991-5.836
			c-1.48-2.327-2.518-5.084-3.109-8.264h19.046l1.522-5.167H77.014c-0.012-0.585-0.024-1.187-0.024-1.82
			c0-1.378,0.024-2.697,0.113-3.932h19.518l1.528-5.173H77.844c0.644-3.234,1.73-5.854,3.24-7.894
			c2.709-3.717,6.301-5.579,10.74-5.579c3.622,0,6.432,1.008,8.449,3.025c2.017,2.023,3.353,4.756,4.01,8.198h5.943
			c-0.358-4.541-2.094-8.586-5.251-12.16c-3.127-3.58-7.536-5.352-13.223-5.352c-6.683,0-11.904,2.745-15.705,8.234
			c-2.25,3.252-3.783,7.095-4.618,11.546h-7.715l-1.522,5.167h8.658c-0.054,0.901-0.09,1.802-0.09,2.697
			c0,1.044,0.036,2.065,0.09,3.061h-7.136l-1.522,5.167h9.165c0.943,6.337,3.103,11.283,6.444,14.822
			c3.556,3.765,7.936,5.645,13.145,5.645c6.05,0,10.848-2.297,14.422-6.886c2.989-3.813,4.738-8.533,5.281-14.165h-5.937
			C104.104,100.133,103.191,102.973,101.944,105.139z"/>
		<path style="fill:#010002;" d="M0,35.124v108.758h179.006V35.124H0z M89.503,129.699c-22.215,0-40.193-18.002-40.193-40.205
			s17.984-40.199,40.193-40.199s40.193,18.002,40.193,40.199C129.696,111.703,111.718,129.699,89.503,129.699z"/>
	</g>
</g>
<g>
</g>
<g>
</g>
<g>
</g>
<g>
</g>
<g>
</g>
<g>
</g>
<g>
</g>
<g>
</g>
<g>
</g>
<g>
</g>
<g>
</g>
<g>
</g>
<g>
</g>
<g>
</g>
<g>
</g>
</svg>
