<?xml version="1.0" encoding="iso-8859-1"?>
<!-- Generator: Adobe Illustrator 16.0.0, SVG Export Plug-In . SVG Version: 6.00 Build 0)  -->
<!DOCTYPE svg PUBLIC "-//W3C//DTD SVG 1.1//EN" "http://www.w3.org/Graphics/SVG/1.1/DTD/svg11.dtd">
<svg version="1.1" id="Capa_1" xmlns="http://www.w3.org/2000/svg" xmlns:xlink="http://www.w3.org/1999/xlink" x="0px" y="0px"
	 width="70.074px" height="70.074px" viewBox="0 0 70.074 70.074" style="enable-background:new 0 0 70.074 70.074;"
	 xml:space="preserve">
<g>
	<g>
		<path d="M39.69,46.233c-0.885,1.538-2.162,2.302-3.84,2.302c-1.829,0-3.198-0.728-4.116-2.183
			c-0.551-0.869-0.938-1.897-1.159-3.086h7.126l0.568-1.935h-7.897c-0.009-0.219-0.014-0.445-0.014-0.685
			c0-0.516,0.014-1.004,0.045-1.469h7.298l0.57-1.935h-7.596c0.243-1.211,0.648-2.191,1.212-2.956
			c1.019-1.391,2.357-2.084,4.018-2.084c1.357,0,2.406,0.376,3.164,1.128c0.75,0.752,1.254,1.778,1.496,3.065h2.222
			c-0.128-1.701-0.78-3.215-1.957-4.549c-1.177-1.333-2.824-1.999-4.951-1.999c-2.494,0-4.452,1.023-5.872,3.079
			c-0.839,1.217-1.415,2.656-1.724,4.316h-2.887l-0.573,1.935h3.243c-0.02,0.335-0.029,0.671-0.029,1.006
			c0,0.393,0.009,0.775,0.029,1.143h-2.67l-0.573,1.935h3.434c0.35,2.374,1.155,4.218,2.41,5.543c1.324,1.407,2.964,2.11,4.915,2.11
			c2.261,0,4.057-0.855,5.391-2.578c1.12-1.423,1.774-3.188,1.978-5.301H40.73C40.498,44.363,40.151,45.427,39.69,46.233z"/>
		<path d="M35.037,5.202L0,30.671h8.353l0.441-0.322v34.522H61.27V30.35l0.447,0.322h8.357L35.037,5.202z M35.037,55.427
			c-8.309,0-15.038-6.734-15.038-15.037c0-8.305,6.729-15.039,15.038-15.039c8.308,0,15.037,6.734,15.037,15.039
			C50.074,48.692,43.345,55.427,35.037,55.427z"/>
	</g>
</g>
<g>
</g>
<g>
</g>
<g>
</g>
<g>
</g>
<g>
</g>
<g>
</g>
<g>
</g>
<g>
</g>
<g>
</g>
<g>
</g>
<g>
</g>
<g>
</g>
<g>
</g>
<g>
</g>
<g>
</g>
</svg>
