<?xml version="1.0" encoding="iso-8859-1"?>
<!-- Generator: Adobe Illustrator 18.1.1, SVG Export Plug-In . SVG Version: 6.00 Build 0)  -->
<svg version="1.1" id="Capa_1" xmlns="http://www.w3.org/2000/svg" xmlns:xlink="http://www.w3.org/1999/xlink" x="0px" y="0px"
	 viewBox="0 0 193.124 193.124" style="enable-background:new 0 0 193.124 193.124;" xml:space="preserve">
<g>
	<g>
		<path style="fill:#010002;" d="M108.15,142.493c-2.202,3.837-5.394,5.746-9.595,5.746c-4.547,0-7.972-1.82-10.251-5.436
			c-1.384-2.178-2.363-4.75-2.9-7.721h17.781l1.408-4.815H84.885c-0.012-0.555-0.024-1.122-0.024-1.701
			c0-1.307,0.024-2.518,0.113-3.67h18.211l1.42-4.827H85.642c0.621-3.025,1.617-5.478,3.025-7.387
			c2.542-3.461,5.871-5.197,10.03-5.197c3.383,0,6.003,0.943,7.87,2.828c1.886,1.868,3.133,4.433,3.765,7.644h5.549
			c-0.34-4.236-1.957-8.025-4.893-11.349c-2.936-3.335-7.041-5-12.351-5c-6.235,0-11.104,2.572-14.655,7.691
			c-2.1,3.037-3.532,6.623-4.314,10.776h-7.202l-1.414,4.833h8.079c-0.054,0.841-0.078,1.671-0.078,2.512
			c0,0.973,0.024,1.921,0.078,2.858h-6.659l-1.414,4.827h8.562c0.877,5.907,2.888,10.526,6.015,13.831
			c3.318,3.509,7.405,5.257,12.268,5.257c5.651,0,10.138-2.124,13.467-6.42c2.798-3.556,4.415-7.96,4.929-13.217h-5.549
			C110.166,137.821,109.307,140.477,108.15,142.493z"/>
		<path style="fill:#010002;" d="M175.199,63.086h-17.411l-37.663-37.663c2.297-4.266,1.701-9.672-1.897-13.276
			c-4.38-4.38-11.516-4.38-15.908,0c-4.392,4.392-4.392,11.528,0,15.914c3.604,3.604,9.01,4.195,13.276,1.903l33.122,33.122H44.388
			l33.128-33.122c4.26,2.291,9.666,1.689,13.27-1.903c4.392-4.386,4.392-11.522,0-15.914c-4.392-4.38-11.522-4.38-15.914,0
			c-3.604,3.604-4.195,9.01-1.897,13.276L35.312,63.086H17.901C8.055,63.086,0,69.053,0,76.339C0,82.514,5.806,87.7,13.557,89.15
			l7.435,77.331c1.11,9.792,10.066,17.781,19.905,17.781h111.324c9.845,0,18.796-8.008,19.905-17.781l7.435-77.331
			c7.763-1.45,13.563-6.635,13.563-12.811C193.1,69.053,185.045,63.086,175.199,63.086z M96.538,165.43
			c-20.735,0-37.52-16.803-37.52-37.532s16.785-37.526,37.52-37.526c20.729,0,37.526,16.797,37.526,37.526
			S117.267,165.43,96.538,165.43z"/>
	</g>
</g>
<g>
</g>
<g>
</g>
<g>
</g>
<g>
</g>
<g>
</g>
<g>
</g>
<g>
</g>
<g>
</g>
<g>
</g>
<g>
</g>
<g>
</g>
<g>
</g>
<g>
</g>
<g>
</g>
<g>
</g>
</svg>
