<?xml version="1.0" encoding="iso-8859-1"?>
<!-- Generator: Adobe Illustrator 18.1.1, SVG Export Plug-In . SVG Version: 6.00 Build 0)  -->
<svg version="1.1" id="Capa_1" xmlns="http://www.w3.org/2000/svg" xmlns:xlink="http://www.w3.org/1999/xlink" x="0px" y="0px"
	 viewBox="0 0 179.011 179.011" style="enable-background:new 0 0 179.011 179.011;" xml:space="preserve">
<g>
	<g>
		<path style="fill:#010002;" d="M140.374,60.224c-1.784,3.109-4.368,4.66-7.787,4.66c-3.693,0-6.48-1.474-8.324-4.41
			c-1.128-1.772-1.921-3.855-2.363-6.271h14.44l1.146-3.908h-16.009c-0.012-0.442-0.024-0.907-0.024-1.372
			c0-1.05,0.024-2.053,0.09-2.983h14.792l1.14-3.92h-15.389c0.501-2.446,1.325-4.445,2.452-5.985
			c2.059-2.822,4.768-4.236,8.133-4.236c2.751,0,4.881,0.77,6.396,2.309c1.528,1.522,2.554,3.598,3.043,6.2h4.505
			c-0.274-3.431-1.581-6.51-3.974-9.219c-2.369-2.703-5.71-4.063-10.018-4.063c-5.066,0-9.034,2.094-11.91,6.253
			c-1.689,2.464-2.858,5.376-3.497,8.741h-5.842l-1.152,3.92h6.57c-0.054,0.674-0.066,1.36-0.066,2.041
			c0,0.794,0.012,1.563,0.066,2.321h-5.406l-1.158,3.914h6.957c0.704,4.803,2.351,8.545,4.869,11.23
			c2.691,2.852,6.015,4.284,9.965,4.284c4.583,0,8.222-1.736,10.925-5.221c2.267-2.876,3.598-6.468,4.004-10.734h-4.499
			C142.015,56.435,141.323,58.583,140.374,60.224z"/>
		<g>
			<path style="fill:#010002;" d="M82.675,15.168c-21.224-0.185-42.49,7.781-58.678,23.969c-31.994,31.994-31.994,83.888,0,115.877
				c31.988,31.994,83.882,31.994,115.877,0.012c16.188-16.2,24.148-36.726,23.969-57.944H82.675V15.168z"/>
		</g>
		<g>
			<path style="fill:#010002;" d="M179.01,87.707H92.043V0l2.912,0.03c22.388,0.209,43.415,9.028,59.215,24.81
				c15.55,15.562,24.601,37.418,24.81,59.955L179.01,87.707z M97.831,81.925h75.308c-0.907-20.001-9.219-39.167-23.05-53.004
				c-14.034-14.034-32.49-22.149-52.258-23.038V81.925z"/>
		</g>
	</g>
</g>
<g>
</g>
<g>
</g>
<g>
</g>
<g>
</g>
<g>
</g>
<g>
</g>
<g>
</g>
<g>
</g>
<g>
</g>
<g>
</g>
<g>
</g>
<g>
</g>
<g>
</g>
<g>
</g>
<g>
</g>
</svg>
