<?xml version="1.0" encoding="iso-8859-1"?>
<!-- Generator: Adobe Illustrator 18.1.1, SVG Export Plug-In . SVG Version: 6.00 Build 0)  -->
<svg version="1.1" id="Capa_1" xmlns="http://www.w3.org/2000/svg" xmlns:xlink="http://www.w3.org/1999/xlink" x="0px" y="0px"
	 viewBox="0 0 184.973 184.973" style="enable-background:new 0 0 184.973 184.973;" xml:space="preserve">
<g>
	<g>
		<g>
			<path style="fill:#010002;" d="M184.973,149.848c-61.656-57.36-123.317,57.36-184.973,0C0,111.606,0,73.37,0,35.123
				c61.656,57.36,123.317-57.354,184.973,0C184.973,73.37,184.973,111.606,184.973,149.848z M5.967,148.905
				c57.682,43.612,115.357-53.654,173.039-10.048c0-34.262,0-68.524,0-102.791C121.324-7.552,63.649,89.72,5.967,46.12
				C5.967,80.382,5.967,114.643,5.967,148.905z"/>
		</g>
		<g>
			<g>
				<path style="fill:#010002;" d="M92.486,52.421c-22.131,11.11-40.073,33.474-40.073,55.205c0,22.525,17.942,36.052,40.073,24.936
					c22.131-11.11,40.073-33.474,40.073-55.205C132.56,54.825,114.618,41.299,92.486,52.421z M92.486,127.669
					c-19.434,9.589-35.181-1.48-35.181-21.188c0-19.16,15.759-39.584,35.181-49.179c19.428-9.595,35.181,1.48,35.181,21.188
					C127.667,97.65,111.921,118.074,92.486,127.669z"/>
			</g>
			<g>
				<path style="fill:#010002;" d="M65.266,111.731c0.501-1.88,1.014-3.789,1.516-5.674c2.369-0.859,4.744-1.772,7.107-2.739
					c-0.048-0.979-0.072-1.981-0.072-3.019c0-0.889,0.024-1.802,0.072-2.715c-2.876,1.175-5.752,2.273-8.622,3.264
					c0.501-1.886,1.014-3.789,1.516-5.68c2.572-0.919,5.132-1.915,7.703-2.977c0.823-4.768,2.363-9.231,4.6-13.461
					c3.783-7.095,8.992-12.238,15.639-15.335c5.669-2.631,10.066-2.846,13.193-0.609c3.127,2.226,4.863,5.591,5.215,9.965
					c-1.975,0.788-3.944,1.611-5.919,2.458c-0.638-3.151-1.987-5.311-3.992-6.42c-2.011-1.116-4.815-0.841-8.419,0.847
					c-4.427,2.059-7.996,5.567-10.705,10.508c-1.504,2.709-2.584,5.818-3.228,9.32c6.754-2.989,13.503-6.241,20.252-9.296
					c-0.501,1.939-1.014,3.89-1.528,5.842c-6.48,2.96-12.96,6.08-19.452,8.926c-0.078,1.259-0.113,2.584-0.113,3.962
					c0,0.621,0.012,1.229,0.036,1.802c7.017-3.091,14.04-6.468,21.051-9.648c-0.513,1.945-1.026,3.89-1.528,5.836
					c-6.337,2.888-12.656,5.919-18.993,8.724c0.591,2.906,1.617,5.203,3.097,6.856c2.446,2.763,6.092,3.007,10.955,0.746
					c4.487-2.094,7.888-5.674,10.239-10.8c1.235-2.691,2.148-5.919,2.763-9.684c1.969-0.847,3.944-1.659,5.913-2.434
					c-0.537,5.83-2.285,11.2-5.269,16.272c-3.556,6.08-8.336,10.52-14.362,13.318c-5.203,2.423-9.571,2.578-13.097,0.382
					c-3.353-2.053-5.49-6.092-6.426-12.017C71.352,109.518,68.303,110.681,65.266,111.731z"/>
			</g>
		</g>
	</g>
</g>
<g>
</g>
<g>
</g>
<g>
</g>
<g>
</g>
<g>
</g>
<g>
</g>
<g>
</g>
<g>
</g>
<g>
</g>
<g>
</g>
<g>
</g>
<g>
</g>
<g>
</g>
<g>
</g>
<g>
</g>
</svg>
