<?xml version="1.0" encoding="iso-8859-1"?>
<!-- Generator: Adobe Illustrator 16.0.0, SVG Export Plug-In . SVG Version: 6.00 Build 0)  -->
<!DOCTYPE svg PUBLIC "-//W3C//DTD SVG 1.1//EN" "http://www.w3.org/Graphics/SVG/1.1/DTD/svg11.dtd">
<svg version="1.1" id="Capa_1" xmlns="http://www.w3.org/2000/svg" xmlns:xlink="http://www.w3.org/1999/xlink" x="0px" y="0px"
	 width="60.731px" height="60.731px" viewBox="0 0 60.731 60.731" style="enable-background:new 0 0 60.731 60.731;"
	 xml:space="preserve">
<g>
	<g>
		<g>
			<path d="M30.366,0C13.595,0,0,13.594,0,30.365c0,16.771,13.594,30.366,30.366,30.366c16.771,0,30.365-13.596,30.365-30.366
				C60.731,13.594,47.137,0,30.366,0z M30.369,57.029c-14.73,0-26.666-11.938-26.666-26.661c0-14.728,11.936-26.664,26.666-26.664
				c14.724,0,26.661,11.936,26.661,26.664C57.029,45.092,45.093,57.029,30.369,57.029z"/>
		</g>
		<g>
			<path d="M9.731,36.183l1.154-3.905h5.388c-0.037-0.753-0.054-1.521-0.054-2.312c0-0.679,0.021-1.354,0.054-2.034H9.731
				l1.154-3.905h5.83c0.626-3.354,1.789-6.26,3.49-8.715c2.862-4.144,6.812-6.216,11.853-6.216c4.294,0,7.624,1.345,9.992,4.041
				c2.382,2.695,3.69,5.757,3.946,9.187h-4.484c-0.493-2.603-1.506-4.667-3.025-6.188c-1.519-1.521-3.647-2.285-6.377-2.285
				c-3.357,0-6.062,1.404-8.115,4.208c-1.133,1.54-1.953,3.53-2.445,5.969H36.89l-1.154,3.905H21
				c-0.055,0.935-0.082,1.925-0.082,2.971c0,0.474,0.009,0.933,0.027,1.373h15.949l-1.154,3.907H21.357
				c0.441,2.401,1.222,4.482,2.34,6.241c1.853,2.934,4.621,4.399,8.307,4.399c3.39,0,5.977-1.549,7.751-4.644
				c0.936-1.634,1.634-3.777,2.094-6.438h4.485c-0.406,4.252-1.729,7.819-3.987,10.696c-2.692,3.467-6.323,5.198-10.891,5.198
				c-3.942,0-7.25-1.416-9.927-4.259c-2.532-2.676-4.153-6.405-4.868-11.19H9.734v-0.007H9.731z"/>
		</g>
	</g>
</g>
<g>
</g>
<g>
</g>
<g>
</g>
<g>
</g>
<g>
</g>
<g>
</g>
<g>
</g>
<g>
</g>
<g>
</g>
<g>
</g>
<g>
</g>
<g>
</g>
<g>
</g>
<g>
</g>
<g>
</g>
</svg>
