<?xml version="1.0" encoding="iso-8859-1"?>
<!-- Generator: Adobe Illustrator 18.1.1, SVG Export Plug-In . SVG Version: 6.00 Build 0)  -->
<svg version="1.1" id="Capa_1" xmlns="http://www.w3.org/2000/svg" xmlns:xlink="http://www.w3.org/1999/xlink" x="0px" y="0px"
	 viewBox="0 0 184.973 184.973" style="enable-background:new 0 0 184.973 184.973;" xml:space="preserve">
<g>
	<g>
		<g>
			<path style="fill:#010002;" d="M184.973,149.846H0V35.127h184.973V149.846z M5.967,143.879h173.039V41.094H5.967V143.879z"/>
		</g>
		<g>
			<g>
				<path style="fill:#010002;" d="M92.486,52.413c-22.131,0-40.073,17.942-40.073,40.073s17.942,40.074,40.073,40.074
					s40.073-17.942,40.073-40.074S114.618,52.413,92.486,52.413z M92.486,127.667c-19.434,0-35.187-15.759-35.187-35.181
					s15.759-35.181,35.187-35.181s35.181,15.759,35.181,35.181S111.921,127.667,92.486,127.667z"/>
			</g>
			<g>
				<path style="fill:#010002;" d="M65.26,100.16l1.522-5.149h7.107c-0.048-0.996-0.072-2.011-0.072-3.049
					c0-0.895,0.024-1.796,0.072-2.685H65.26l1.522-5.155h7.697c0.823-4.415,2.363-8.258,4.6-11.504
					c3.777-5.466,8.992-8.198,15.639-8.198c5.669,0,10.066,1.772,13.193,5.334c3.127,3.568,4.863,7.596,5.215,12.119h-5.919
					c-0.638-3.425-1.987-6.152-3.992-8.157c-2.011-2.017-4.815-3.019-8.419-3.019c-4.427,0-7.996,1.856-10.705,5.561
					c-1.504,2.035-2.584,4.648-3.228,7.864h20.252l-1.528,5.155H80.135c-0.078,1.235-0.113,2.548-0.113,3.914
					c0,0.621,0.012,1.235,0.036,1.82h21.051l-1.528,5.149H80.589c0.591,3.162,1.617,5.913,3.091,8.24
					c2.446,3.861,6.092,5.812,10.961,5.812c4.481,0,7.888-2.047,10.233-6.128c1.235-2.148,2.148-4.988,2.763-8.497h5.913
					c-0.537,5.609-2.285,10.317-5.269,14.112c-3.556,4.583-8.336,6.856-14.362,6.856c-5.203,0-9.571-1.868-13.097-5.621
					c-3.347-3.532-5.49-8.449-6.426-14.774H65.26L65.26,100.16z"/>
			</g>
		</g>
	</g>
</g>
<g>
</g>
<g>
</g>
<g>
</g>
<g>
</g>
<g>
</g>
<g>
</g>
<g>
</g>
<g>
</g>
<g>
</g>
<g>
</g>
<g>
</g>
<g>
</g>
<g>
</g>
<g>
</g>
<g>
</g>
</svg>
