<?xml version="1.0" encoding="iso-8859-1"?>
<!-- Generator: Adobe Illustrator 16.0.0, SVG Export Plug-In . SVG Version: 6.00 Build 0)  -->
<!DOCTYPE svg PUBLIC "-//W3C//DTD SVG 1.1//EN" "http://www.w3.org/Graphics/SVG/1.1/DTD/svg11.dtd">
<svg version="1.1" id="Capa_1" xmlns="http://www.w3.org/2000/svg" xmlns:xlink="http://www.w3.org/1999/xlink" x="0px" y="0px"
	 width="70.074px" height="70.075px" viewBox="0 0 70.074 70.075" style="enable-background:new 0 0 70.074 70.075;"
	 xml:space="preserve">
<g>
	<g>
		<g>
			<path d="M8.494,31.606v32.255h53.09V31.606H8.494z M35.037,59.659c-6.584,0-11.922-5.342-11.922-11.926
				c0-6.578,5.337-11.92,11.922-11.92c6.583,0,11.921,5.342,11.921,11.92C46.958,54.317,41.62,59.659,35.037,59.659z"/>
			<path d="M38.806,47.533c-0.573-0.393-1.662-0.819-3.267-1.269v-5.046c0.953,0.037,1.649,0.397,2.085,1.1
				c0.237,0.381,0.379,0.83,0.427,1.357h1.813c-0.037-1.175-0.42-2.112-1.154-2.831c-0.737-0.716-1.797-1.117-3.171-1.216v-1.357
				h-0.985v1.378c-1.391,0.014-2.472,0.445-3.243,1.291c-0.77,0.84-1.155,1.793-1.155,2.843c0,1.175,0.357,2.094,1.072,2.76
				c0.714,0.661,1.824,1.136,3.324,1.421v5.652c-1.168-0.096-1.969-0.535-2.401-1.315c-0.245-0.437-0.395-1.125-0.449-2.074h-1.835
				c0,1.187,0.194,2.131,0.589,2.829c0.722,1.298,2.088,2.005,4.097,2.135v2.015h0.985V55.19c1.252-0.139,2.208-0.42,2.872-0.842
				c1.198-0.775,1.796-2.087,1.796-3.926C40.206,49.143,39.74,48.182,38.806,47.533z M34.554,46.068
				c-0.773-0.148-1.389-0.422-1.846-0.808c-0.455-0.39-0.684-0.926-0.684-1.605c0-0.57,0.194-1.115,0.579-1.629
				c0.39-0.52,1.039-0.798,1.951-0.83V46.068L34.554,46.068z M37.989,52.364c-0.452,0.812-1.268,1.241-2.45,1.3v-5.456
				c0.864,0.237,1.479,0.483,1.846,0.744c0.636,0.451,0.955,1.108,0.955,1.971C38.343,51.469,38.222,51.949,37.989,52.364z"/>
		</g>
		<polygon points="8.355,31.683 35.037,12.286 61.719,31.683 70.074,31.683 63.71,27.058 63.71,14.22 52.441,14.22 52.441,18.866 
			35.037,6.213 0,31.683 		"/>
	</g>
</g>
<g>
</g>
<g>
</g>
<g>
</g>
<g>
</g>
<g>
</g>
<g>
</g>
<g>
</g>
<g>
</g>
<g>
</g>
<g>
</g>
<g>
</g>
<g>
</g>
<g>
</g>
<g>
</g>
<g>
</g>
</svg>
