<?xml version="1.0" encoding="iso-8859-1"?>
<!-- Generator: Adobe Illustrator 16.0.0, SVG Export Plug-In . SVG Version: 6.00 Build 0)  -->
<!DOCTYPE svg PUBLIC "-//W3C//DTD SVG 1.1//EN" "http://www.w3.org/Graphics/SVG/1.1/DTD/svg11.dtd">
<svg version="1.1" id="Capa_1" xmlns="http://www.w3.org/2000/svg" xmlns:xlink="http://www.w3.org/1999/xlink" x="0px" y="0px"
	 width="70.074px" height="70.074px" viewBox="0 0 70.074 70.074" style="enable-background:new 0 0 70.074 70.074;"
	 xml:space="preserve">
<g>
	<g>
		<path d="M35.037,5.202L0,30.671h8.353l0.441-0.322v34.522H61.27V30.35l0.447,0.322h8.357L35.037,5.202z M35.037,55.427
			c-8.309,0-15.038-6.734-15.038-15.037c0-8.305,6.729-15.039,15.038-15.039c8.308,0,15.037,6.734,15.037,15.039
			C50.074,48.692,43.345,55.427,35.037,55.427z"/>
		<polygon points="40.397,30.102 35.026,39.988 29.677,30.102 26.416,30.102 30.251,36.635 27.637,36.635 27.637,38.604 
			31.413,38.604 33.288,41.8 28.326,41.8 28.326,43.774 33.638,43.774 33.638,50.671 36.405,50.671 36.405,43.774 41.866,43.774 
			41.866,41.8 36.756,41.8 38.642,38.604 42.351,38.604 42.351,36.635 39.809,36.635 43.659,30.102 		"/>
	</g>
</g>
<g>
</g>
<g>
</g>
<g>
</g>
<g>
</g>
<g>
</g>
<g>
</g>
<g>
</g>
<g>
</g>
<g>
</g>
<g>
</g>
<g>
</g>
<g>
</g>
<g>
</g>
<g>
</g>
<g>
</g>
</svg>
