<?xml version="1.0" encoding="iso-8859-1"?>
<!-- Generator: Adobe Illustrator 18.1.1, SVG Export Plug-In . SVG Version: 6.00 Build 0)  -->
<svg version="1.1" id="Capa_1" xmlns="http://www.w3.org/2000/svg" xmlns:xlink="http://www.w3.org/1999/xlink" x="0px" y="0px"
	 viewBox="0 0 179.006 179.006" style="enable-background:new 0 0 179.006 179.006;" xml:space="preserve">
<g>
	<g>
		<g>
			<path style="fill:#010002;" d="M121.3,37.633c1.999-2.19,4.797-3.312,8.389-3.347v-3.58h2.56v3.52
				c3.568,0.257,6.301,1.307,8.204,3.145c1.903,1.862,2.9,4.302,3.001,7.333h-4.708c-0.125-1.36-0.489-2.536-1.104-3.514
				c-1.122-1.82-2.924-2.775-5.394-2.858v13.091c4.147,1.152,6.975,2.255,8.461,3.276c2.411,1.677,3.622,4.171,3.622,7.471
				c0,4.762-1.551,8.145-4.642,10.15c-1.718,1.122-4.201,1.844-7.441,2.202v5.215h-2.56v-5.209
				c-5.215-0.34-8.753-2.178-10.609-5.537c-1.02-1.814-1.533-4.254-1.533-7.333h4.762c0.131,2.452,0.531,4.254,1.152,5.376
				c1.122,2.029,3.198,3.156,6.229,3.401V55.796c-3.878-0.734-6.76-1.957-8.604-3.682c-1.856-1.712-2.781-4.105-2.781-7.142
				C118.305,42.257,119.302,39.811,121.3,37.633z M124.916,48.833c1.181,1.002,2.775,1.695,4.785,2.094V38.301
				c-2.363,0.095-4.052,0.817-5.054,2.142c-1.002,1.349-1.504,2.757-1.504,4.219C123.144,46.428,123.723,47.83,124.916,48.833z
				 M138.592,67.235c0.621-1.086,0.913-2.327,0.913-3.729c0-2.25-0.829-3.95-2.476-5.108c-0.949-0.68-2.542-1.325-4.779-1.933v14.13
				C135.317,70.451,137.423,69.323,138.592,67.235z"/>
		</g>
		<g>
			<path style="fill:#010002;" d="M93.226,23.784c1.193-1.307,2.864-1.969,5.03-1.993v-2.136h1.533v2.112
				c2.13,0.137,3.777,0.77,4.911,1.874c1.146,1.122,1.748,2.578,1.802,4.392h-2.822c-0.078-0.817-0.292-1.516-0.656-2.112
				c-0.674-1.08-1.754-1.647-3.234-1.695v7.829c2.488,0.686,4.177,1.366,5.078,1.969c1.444,1.002,2.166,2.494,2.166,4.469
				c0,2.858-0.925,4.887-2.787,6.092c-1.032,0.656-2.518,1.11-4.457,1.331v3.109h-1.533v-3.109
				c-3.121-0.209-5.239-1.319-6.355-3.324c-0.615-1.092-0.913-2.56-0.913-4.392h2.852c0.095,1.456,0.328,2.542,0.698,3.216
				c0.668,1.211,1.915,1.886,3.729,2.047v-8.783c-2.333-0.442-4.052-1.164-5.161-2.202c-1.11-1.026-1.653-2.452-1.653-4.29
				C91.43,26.57,92.027,25.103,93.226,23.784z M95.386,30.497c0.704,0.609,1.659,1.026,2.858,1.265V24.19
				c-1.42,0.06-2.423,0.477-3.031,1.283c-0.609,0.806-0.895,1.647-0.895,2.53C94.33,29.065,94.682,29.906,95.386,30.497z
				 M103.579,41.529c0.37-0.632,0.555-1.378,0.555-2.238c0-1.349-0.495-2.363-1.486-3.061c-0.573-0.406-1.522-0.794-2.858-1.152
				v8.473C101.622,43.463,102.887,42.788,103.579,41.529z"/>
		</g>
		<g>
			<path style="fill:#010002;" d="M111.688,2.846c0.823-0.889,1.975-1.36,3.455-1.366V0h1.05v1.444
				c1.468,0.107,2.596,0.537,3.371,1.301c0.776,0.764,1.199,1.76,1.235,3.013h-1.933c-0.054-0.561-0.203-1.044-0.453-1.444
				c-0.465-0.746-1.205-1.122-2.22-1.164v5.37c1.707,0.483,2.864,0.931,3.485,1.36c0.991,0.692,1.492,1.707,1.492,3.073
				c0,1.963-0.632,3.353-1.909,4.177c-0.704,0.459-1.724,0.758-3.067,0.901v2.142h-1.05v-2.142
				c-2.142-0.137-3.604-0.895-4.362-2.273c-0.418-0.746-0.627-1.748-0.627-3.019h1.957c0.06,1.002,0.221,1.736,0.477,2.208
				c0.453,0.835,1.313,1.301,2.566,1.39v-6.015c-1.605-0.316-2.781-0.817-3.544-1.528c-0.764-0.698-1.14-1.677-1.14-2.936
				C110.459,4.75,110.864,3.735,111.688,2.846z M113.174,7.453c0.489,0.4,1.14,0.698,1.969,0.871V3.127
				c-0.973,0.036-1.665,0.334-2.082,0.877c-0.418,0.555-0.621,1.122-0.621,1.736C112.44,6.468,112.69,7.041,113.174,7.453z
				 M118.8,15.025c0.245-0.442,0.37-0.955,0.37-1.539c0-0.919-0.34-1.617-1.014-2.1c-0.388-0.28-1.05-0.549-1.969-0.806v5.824
				C117.452,16.343,118.317,15.878,118.8,15.025z"/>
		</g>
		<path style="fill:#010002;" d="M140.52,109.91V87.069h-20.055v8.276L89.503,72.826L27.161,118.15h14.863l0.794-0.573v61.429h93.37
			v-61.435l0.794,0.573h14.863L140.52,109.91z M87.582,149.387H75.385v-12.202h12.196V149.387z M87.582,132.888H75.385v-12.202
			h12.196V132.888z M103.609,149.387H91.406v-12.202h12.202V149.387z M103.609,132.888H91.406v-12.202h12.202V132.888z"/>
	</g>
</g>
<g>
</g>
<g>
</g>
<g>
</g>
<g>
</g>
<g>
</g>
<g>
</g>
<g>
</g>
<g>
</g>
<g>
</g>
<g>
</g>
<g>
</g>
<g>
</g>
<g>
</g>
<g>
</g>
<g>
</g>
</svg>
