<?xml version="1.0" encoding="iso-8859-1"?>
<!-- Generator: Adobe Illustrator 16.0.0, SVG Export Plug-In . SVG Version: 6.00 Build 0)  -->
<!DOCTYPE svg PUBLIC "-//W3C//DTD SVG 1.1//EN" "http://www.w3.org/Graphics/SVG/1.1/DTD/svg11.dtd">
<svg version="1.1" id="Capa_1" xmlns="http://www.w3.org/2000/svg" xmlns:xlink="http://www.w3.org/1999/xlink" x="0px" y="0px"
	 width="75.602px" height="75.602px" viewBox="0 0 75.602 75.602" style="enable-background:new 0 0 75.602 75.602;"
	 xml:space="preserve">
<g>
	<g>
		<path d="M68.592,24.696h-6.815L47.031,9.953c0.898-1.671,0.661-3.787-0.744-5.197c-1.717-1.714-4.511-1.714-6.23,0
			c-1.719,1.719-1.719,4.513,0,6.229c1.411,1.411,3.528,1.642,5.197,0.745l12.968,12.967H17.381l12.967-12.967
			c1.667,0.897,3.786,0.662,5.195-0.745c1.719-1.716,1.719-4.511,0-6.229c-1.72-1.714-4.511-1.714-6.229,0
			c-1.409,1.411-1.643,3.526-0.744,5.197L13.823,24.696H7.007C3.154,24.696,0,27.032,0,29.883c0,2.418,2.273,4.448,5.309,5.015
			L8.22,65.171c0.433,3.834,3.938,6.961,7.792,6.961h43.579c3.853,0,7.356-3.134,7.792-6.961l2.911-30.272
			c3.038-0.567,5.308-2.597,5.308-5.015C75.6,27.032,72.442,24.696,68.592,24.696z M37.794,64.755
			c-8.115,0-14.688-6.571-14.688-14.686c0-8.115,6.573-14.692,14.688-14.692c8.115,0,14.689,6.577,14.689,14.692
			C52.483,58.184,45.909,64.755,37.794,64.755z"/>
		<polygon points="43.03,40.02 37.783,49.675 32.557,40.02 29.371,40.02 33.118,46.401 30.564,46.401 30.564,48.329 34.25,48.329 
			36.086,51.447 31.235,51.447 31.235,53.38 36.428,53.38 36.428,60.113 39.129,60.113 39.129,53.38 44.467,53.38 44.467,51.447 
			39.475,51.447 41.316,48.329 44.938,48.329 44.938,46.401 42.455,46.401 46.219,40.02 		"/>
	</g>
</g>
<g>
</g>
<g>
</g>
<g>
</g>
<g>
</g>
<g>
</g>
<g>
</g>
<g>
</g>
<g>
</g>
<g>
</g>
<g>
</g>
<g>
</g>
<g>
</g>
<g>
</g>
<g>
</g>
<g>
</g>
</svg>
