<?xml version="1.0" encoding="iso-8859-1"?>
<!-- Generator: Adobe Illustrator 16.0.0, SVG Export Plug-In . SVG Version: 6.00 Build 0)  -->
<!DOCTYPE svg PUBLIC "-//W3C//DTD SVG 1.1//EN" "http://www.w3.org/Graphics/SVG/1.1/DTD/svg11.dtd">
<svg version="1.1" id="Capa_1" xmlns="http://www.w3.org/2000/svg" xmlns:xlink="http://www.w3.org/1999/xlink" x="0px" y="0px"
	 width="72.41px" height="72.41px" viewBox="0 0 72.41 72.41" style="enable-background:new 0 0 72.41 72.41;" xml:space="preserve"
	>
<g>
	<g>
		<g>
			<path d="M72.41,58.663c-24.136-22.458-48.274,22.451-72.41,0c0-14.971,0-29.944,0-44.915c24.136,22.455,48.274-22.454,72.41,0
				C72.41,28.719,72.41,43.695,72.41,58.663z M2.336,58.296c22.58,17.072,45.158-21.01,67.738-3.939c0-13.412,0-26.824,0-40.239
				C47.494-2.955,24.916,35.124,2.336,18.054C2.336,31.469,2.336,44.881,2.336,58.296z"/>
		</g>
		<g>
			<g>
				<path d="M36.205,20.521c-8.664,4.351-15.687,13.108-15.687,21.616c0,8.814,7.023,14.113,15.687,9.761
					c8.663-4.352,15.687-13.106,15.687-21.616C51.892,21.461,44.868,16.164,36.205,20.521z M36.205,49.978
					c-7.607,3.757-13.774-0.582-13.774-8.292c0-7.503,6.169-15.499,13.774-19.254c7.605-3.756,13.773,0.582,13.773,8.294
					C49.979,38.232,43.812,46.225,36.205,49.978z"/>
			</g>
			<g>
				<path d="M41.164,33.676c-0.755-0.189-2.19-0.101-4.297,0.292c0-2.215,0-4.431,0-6.648c1.253-0.537,2.169-0.476,2.744,0.185
					c0.309,0.363,0.495,0.874,0.56,1.538c0.796-0.354,1.592-0.706,2.384-1.042c-0.048-1.521-0.55-2.552-1.518-3.067
					c-0.972-0.513-2.359-0.415-4.169,0.299c0-0.595,0-1.191,0-1.786c-0.432,0.201-0.865,0.402-1.297,0.602c0,0.606,0,1.21,0,1.816
					c-1.83,0.87-3.251,2.081-4.266,3.636c-1.016,1.553-1.521,3.009-1.521,4.393c0,1.544,0.472,2.561,1.413,3.02
					c0.939,0.466,2.396,0.428,4.373-0.118c0,2.479,0,4.96,0,7.435c-1.54,0.589-2.592,0.493-3.163-0.28
					c-0.321-0.427-0.517-1.245-0.588-2.464c-0.807,0.358-1.609,0.708-2.416,1.043c0,1.562,0.257,2.698,0.778,3.396
					c0.944,1.303,2.746,1.444,5.392,0.383c0,0.881,0,1.764,0,2.646c0.432-0.201,0.864-0.401,1.296-0.603c0-0.88,0-1.768,0-2.65
					c1.646-0.944,2.904-1.896,3.78-2.847c1.574-1.713,2.361-3.75,2.361-6.176C43.007,35.006,42.392,33.99,41.164,33.676z
					 M35.572,34.311c-1.021,0.274-1.827,0.292-2.43,0.056c-0.6-0.238-0.901-0.808-0.901-1.708c0-0.745,0.254-1.574,0.763-2.487
					c0.51-0.914,1.364-1.667,2.567-2.273C35.572,30.034,35.572,32.171,35.572,34.311z M40.088,40.516
					c-0.594,1.332-1.666,2.388-3.221,3.185c0-2.394,0-4.786,0-7.183c1.135-0.219,1.948-0.263,2.429-0.134
					c0.837,0.209,1.257,0.887,1.257,2.024C40.553,39.131,40.397,39.833,40.088,40.516z"/>
			</g>
		</g>
	</g>
</g>
<g>
</g>
<g>
</g>
<g>
</g>
<g>
</g>
<g>
</g>
<g>
</g>
<g>
</g>
<g>
</g>
<g>
</g>
<g>
</g>
<g>
</g>
<g>
</g>
<g>
</g>
<g>
</g>
<g>
</g>
</svg>
