<?xml version="1.0" encoding="iso-8859-1"?>
<!-- Generator: Adobe Illustrator 18.1.1, SVG Export Plug-In . SVG Version: 6.00 Build 0)  -->
<svg version="1.1" id="Capa_1" xmlns="http://www.w3.org/2000/svg" xmlns:xlink="http://www.w3.org/1999/xlink" x="0px" y="0px"
	 viewBox="0 0 179 179" style="enable-background:new 0 0 179 179;" xml:space="preserve">
<g>
	<g>
		<path style="fill:#010002;" d="M45.788,78.381c15.872,0,31.744,0,47.616,0c23.808-26.129-23.808-52.252,0-78.381
			C77.532,0,61.66,0,45.788,0C21.98,26.123,69.602,52.252,45.788,78.381z M51.994,39.19c-4.809-9.726,1.301-17.608,11.2-17.608
			c9.541,0,19.201,7.876,23.999,17.602c4.809,9.726-1.295,17.602-11.2,17.602C66.463,56.793,56.815,48.916,51.994,39.19z"/>
		<path style="fill:#010002;" d="M62.024,44.686c1.724,1.134,3.353,1.707,4.905,1.707c1.736,0,2.876-0.525,3.407-1.587
			c0.531-1.062,0.507-2.697-0.09-4.911c2.787,0,5.567,0,8.336,0c0.632,1.73,0.525,2.906-0.358,3.55
			c-0.471,0.364-1.402,0.585-2.775,0.662c0.394,0.901,0.782,1.808,1.134,2.715c1.76,0,3.037-0.292,3.831-0.871
			c1.468-1.062,1.653-3.079,0.489-6.05c0.991,0,1.981,0,2.971,0c-0.221-0.489-0.442-0.967-0.656-1.456c-0.991,0-1.981,0-2.971,0
			c-1.044-1.85-2.106-3.258-3.145-4.236c-1.903-1.766-4.177-2.649-6.892-2.649c-1.88,0-3.037,0.686-3.395,2.065
			c-0.221,0.853-0.143,2.458,0.274,4.827c-2.482,0-4.976,0-7.459,0c-0.597-1.408-0.513-2.434,0.239-3.079
			c0.412-0.346,0.985-0.555,1.73-0.621c-0.388-0.889-0.77-1.79-1.14-2.685C58.76,32.12,57.597,32.687,57,33.772
			c-0.591,1.086-0.489,2.649,0.292,4.678c-0.662,0-1.343,0-2.005,0c0.221,0.489,0.442,0.967,0.662,1.456c0.674,0,1.354,0,2.035,0
			C58.945,41.953,60.288,43.546,62.024,44.686z M69.835,35.718c0.245-0.937,1.014-1.408,2.297-1.408
			c0.794,0,1.587,0.179,2.357,0.525c1.48,0.662,2.649,1.868,3.538,3.61c-2.691,0-5.37,0-8.061,0
			C69.727,37.168,69.679,36.267,69.835,35.718z M67.466,39.9c0.292,1.146,0.304,2.053,0.036,2.727s-0.913,1.008-1.921,1.008
			c-0.841,0-1.76-0.28-2.787-0.859c-1.014-0.573-1.862-1.528-2.518-2.876C62.668,39.9,65.067,39.9,67.466,39.9z"/>
		<path style="fill:#010002;" d="M160.943,139.637c3.121-3.24,3.401-9.278,2.888-17.346c-3.67-0.245-9.076,0.37-10.991,0
			c-4.636-9.237-11.313-16.445-20.812-20.818c0.328-6.033,1.14-11.582,4.624-14.458c-8.485-0.585-15.663,5.155-20.246,10.412
			c-17.131-17.799-68.022-20.968-92.522,4.624c-4.225-0.334-3.741-8.903,1.736-7.524c-8.926-6.08-13.849,10.585-5.209,12.721
			c-7.202,10.287-7.882,32.364,1.736,40.479c1.408,12.178,3.562,23.611,9.481,31.272h19.44c-0.513-3.95-1.026-8.157-0.585-12.775
			c11.808,2.679,25.825,3.461,39.906,2.321c2.166,3.604,4.272,7.268,6.862,10.448h19.243c-0.698-5.096-1.468-10.43-0.084-15.657
			C121.012,162.46,144.844,156.41,160.943,139.637z M134.39,113.83c2.631,0,4.779,2.136,4.779,4.779s-2.142,4.779-4.779,4.779
			c-2.643,0-4.791-2.136-4.791-4.779S131.747,113.83,134.39,113.83z M94.615,95.291c-13.235-4.565-27.77-4.517-40.939,0.137
			l-1.492-3.097c14.112-4.988,29.709-5.048,43.898-0.149L94.615,95.291z"/>
	</g>
</g>
<g>
</g>
<g>
</g>
<g>
</g>
<g>
</g>
<g>
</g>
<g>
</g>
<g>
</g>
<g>
</g>
<g>
</g>
<g>
</g>
<g>
</g>
<g>
</g>
<g>
</g>
<g>
</g>
<g>
</g>
</svg>
