<?xml version="1.0" encoding="iso-8859-1"?>
<!-- Generator: Adobe Illustrator 16.0.0, SVG Export Plug-In . SVG Version: 6.00 Build 0)  -->
<!DOCTYPE svg PUBLIC "-//W3C//DTD SVG 1.1//EN" "http://www.w3.org/Graphics/SVG/1.1/DTD/svg11.dtd">
<svg version="1.1" id="Capa_1" xmlns="http://www.w3.org/2000/svg" xmlns:xlink="http://www.w3.org/1999/xlink" x="0px" y="0px"
	 width="70.074px" height="70.074px" viewBox="0 0 70.074 70.074" style="enable-background:new 0 0 70.074 70.074;"
	 xml:space="preserve">
<g>
	<g>
		<path d="M35.037,0C19.896,0,7.614,12.279,7.614,27.423c0,15.142,27.423,42.651,27.423,42.651S62.46,42.569,62.46,27.423
			C62.46,12.274,50.179,0,35.037,0z M35.037,45.006c-10.544,0-19.081-8.541-19.081-19.078c0-10.542,8.537-19.083,19.081-19.083
			c10.543,0,19.082,8.541,19.082,19.083C54.118,36.465,45.58,45.006,35.037,45.006z"/>
		<path d="M40.94,33.344c-1.12,1.953-2.737,2.921-4.878,2.921c-2.307,0-4.05-0.922-5.208-2.765
			c-0.708-1.109-1.201-2.415-1.476-3.926h9.042l0.721-2.456H29.115c-0.005-0.275-0.014-0.564-0.014-0.861
			c0-0.657,0.014-1.283,0.053-1.872h9.265l0.721-2.45H29.5c0.318-1.538,0.827-2.784,1.538-3.751
			c1.289-1.763,2.985-2.649,5.099-2.649c1.721,0,3.055,0.479,4.009,1.442c0.953,0.952,1.597,2.249,1.902,3.882h2.819
			c-0.169-2.15-0.99-4.074-2.486-5.774c-1.489-1.696-3.581-2.539-6.277-2.539c-3.17,0-5.653,1.306-7.454,3.91
			c-1.063,1.544-1.796,3.368-2.191,5.48h-3.664l-0.725,2.45h4.113c-0.027,0.433-0.04,0.854-0.04,1.286
			c0,0.493,0.011,0.976,0.04,1.45h-3.388l-0.725,2.453h4.351c0.443,3.006,1.469,5.352,3.058,7.035
			c1.686,1.786,3.767,2.676,6.241,2.676c2.87,0,5.151-1.091,6.847-3.265c1.417-1.806,2.245-4.05,2.505-6.725h-2.817
			C41.967,30.975,41.533,32.32,40.94,33.344z"/>
	</g>
</g>
<g>
</g>
<g>
</g>
<g>
</g>
<g>
</g>
<g>
</g>
<g>
</g>
<g>
</g>
<g>
</g>
<g>
</g>
<g>
</g>
<g>
</g>
<g>
</g>
<g>
</g>
<g>
</g>
<g>
</g>
</svg>
