<?xml version="1.0" encoding="iso-8859-1"?>
<!-- Generator: Adobe Illustrator 18.1.1, SVG Export Plug-In . SVG Version: 6.00 Build 0)  -->
<svg version="1.1" id="Capa_1" xmlns="http://www.w3.org/2000/svg" xmlns:xlink="http://www.w3.org/1999/xlink" x="0px" y="0px"
	 viewBox="0 0 184.973 184.973" style="enable-background:new 0 0 184.973 184.973;" xml:space="preserve">
<g>
	<g>
		<g>
			<path style="fill:#010002;" d="M184.973,149.846H0V35.127h184.973V149.846z M5.967,143.879h173.039V41.094H5.967V143.879z"/>
		</g>
		<g>
			<g>
				<path style="fill:#010002;" d="M92.486,52.413c-22.131,0-40.073,17.942-40.073,40.073s17.942,40.074,40.073,40.074
					s40.073-17.942,40.073-40.074S114.618,52.413,92.486,52.413z M92.486,127.667c-19.434,0-35.187-15.759-35.187-35.181
					s15.759-35.181,35.187-35.181s35.181,15.759,35.181,35.181S111.921,127.667,92.486,127.667z"/>
			</g>
			<g>
				<path style="fill:#010002;" d="M73.971,114.254c2.745-1.909,4.958-4.034,6.629-6.349c1.677-2.333,2.518-4.845,2.518-7.566
					c0-0.782-0.155-1.689-0.477-2.739c-0.191-0.65-0.519-1.551-0.979-2.691h-8.061v-3.795h5.722c0,0.125-0.4-0.627-1.217-2.273
					c-0.817-1.641-1.36-2.84-1.623-3.592c-0.239-0.704-0.448-1.528-0.621-2.464s-0.257-1.933-0.257-3.007
					c0-3.795,1.545-7.184,4.63-10.185c3.085-3.001,7.506-4.499,13.264-4.499c5.418,0,9.523,1.48,12.304,4.433
					c2.781,2.971,4.207,7.166,4.29,12.578h-6.749c0-3.664-0.865-6.45-2.578-8.36c-1.713-1.903-4.32-2.858-7.823-2.858
					c-3.401,0-5.973,0.889-7.727,2.679c-1.748,1.784-2.619,3.95-2.619,6.51c0,1.259,0.269,2.566,0.823,3.896
					c0.549,1.337,1.707,3.711,3.479,7.136h11.952v3.789H88.548c0.239,1.122,0.418,1.993,0.531,2.619
					c0.107,0.627,0.161,1.295,0.161,1.969c0,2.429-0.728,4.839-2.19,7.196c-1.456,2.369-3.741,4.726-6.844,7.059
					c1.671-0.853,3.33-1.528,4.952-2.029c1.623-0.489,3.216-0.746,4.773-0.746c1.748,0,4.069,0.43,6.945,1.295
					c2.87,0.871,4.768,1.301,5.663,1.301c1.134,0,2.184-0.215,3.127-0.65c0.591-0.269,1.474-0.829,2.661-1.671l3.025,4.917
					c-1.366,1.098-2.584,1.903-3.64,2.44c-1.778,0.847-3.658,1.271-5.651,1.271c-1.456,0-3.896-0.555-7.339-1.671
					c-3.431-1.122-6.146-1.677-8.139-1.677c-1.85,0-3.604,0.322-5.251,0.955c-0.967,0.376-2.22,1.038-3.753,1.957L73.971,114.254z"
					/>
			</g>
		</g>
	</g>
</g>
<g>
</g>
<g>
</g>
<g>
</g>
<g>
</g>
<g>
</g>
<g>
</g>
<g>
</g>
<g>
</g>
<g>
</g>
<g>
</g>
<g>
</g>
<g>
</g>
<g>
</g>
<g>
</g>
<g>
</g>
</svg>
