<?xml version="1.0" encoding="iso-8859-1"?>
<!-- Generator: Adobe Illustrator 16.0.0, SVG Export Plug-In . SVG Version: 6.00 Build 0)  -->
<!DOCTYPE svg PUBLIC "-//W3C//DTD SVG 1.1//EN" "http://www.w3.org/Graphics/SVG/1.1/DTD/svg11.dtd">
<svg version="1.1" id="Capa_1" xmlns="http://www.w3.org/2000/svg" xmlns:xlink="http://www.w3.org/1999/xlink" x="0px" y="0px"
	 width="60.731px" height="60.731px" viewBox="0 0 60.731 60.731" style="enable-background:new 0 0 60.731 60.731;"
	 xml:space="preserve">
<g>
	<path d="M30.366,0C13.595,0,0,13.594,0,30.365c0,16.771,13.594,30.366,30.366,30.366c16.771,0,30.365-13.596,30.365-30.366
		C60.731,13.594,47.137,0,30.366,0z M41.908,50.156c-1.341,0.641-2.773,0.965-4.279,0.965c-1.104,0-2.965-0.422-5.566-1.271
		c-2.605-0.845-4.663-1.271-6.174-1.271c-1.4,0-2.726,0.239-3.979,0.719c-0.735,0.296-1.683,0.789-2.842,1.493l-2.732-3.925
		c2.08-1.456,3.756-3.062,5.026-4.815c1.268-1.757,1.903-3.666,1.903-5.73c0-0.589-0.119-1.279-0.359-2.071
		c-0.145-0.497-0.392-1.177-0.746-2.044h-6.103v-2.871h4.337c0,0.091-0.308-0.483-0.925-1.727c-0.62-1.242-1.028-2.149-1.231-2.72
		c-0.183-0.536-0.341-1.157-0.47-1.865c-0.128-0.71-0.192-1.467-0.192-2.278c0-2.873,1.168-5.445,3.506-7.719
		c2.335-2.275,5.69-3.41,10.051-3.41c4.106,0,7.211,1.124,9.318,3.368c2.107,2.247,3.188,5.423,3.25,9.528h-5.111
		c0-2.779-0.647-4.892-1.948-6.338c-1.298-1.445-3.269-2.167-5.925-2.167c-2.579,0-4.527,0.678-5.854,2.03
		c-1.324,1.354-1.99,2.996-1.99,4.928c0,0.957,0.206,1.943,0.624,2.955c0.415,1.013,1.291,2.817,2.635,5.412h9.06v2.871h-7.816
		c0.184,0.844,0.319,1.51,0.401,1.993c0.082,0.475,0.123,0.972,0.123,1.487c0,1.844-0.553,3.659-1.656,5.457
		c-1.104,1.793-2.835,3.576-5.192,5.342c1.268-0.644,2.521-1.154,3.756-1.53c1.237-0.384,2.443-0.573,3.62-0.573
		c1.324,0,3.082,0.329,5.26,0.981c2.184,0.654,3.616,0.98,4.296,0.98c0.864,0,1.655-0.164,2.372-0.497
		c0.44-0.203,1.12-0.625,2.017-1.271l2.292,3.729C43.642,49.132,42.721,49.748,41.908,50.156z"/>
</g>
<g>
</g>
<g>
</g>
<g>
</g>
<g>
</g>
<g>
</g>
<g>
</g>
<g>
</g>
<g>
</g>
<g>
</g>
<g>
</g>
<g>
</g>
<g>
</g>
<g>
</g>
<g>
</g>
<g>
</g>
</svg>
