<?xml version="1.0" encoding="iso-8859-1"?>
<!-- Generator: Adobe Illustrator 18.1.1, SVG Export Plug-In . SVG Version: 6.00 Build 0)  -->
<svg version="1.1" id="Capa_1" xmlns="http://www.w3.org/2000/svg" xmlns:xlink="http://www.w3.org/1999/xlink" x="0px" y="0px"
	 viewBox="0 0 193.112 193.112" style="enable-background:new 0 0 193.112 193.112;" xml:space="preserve">
<g>
	<g>
		<path style="fill:#010002;" d="M108.883,147.01c-0.883,0.406-1.862,0.621-2.93,0.621c-0.853,0-2.613-0.4-5.311-1.205
			c-2.685-0.812-4.863-1.223-6.504-1.223c-1.456,0-2.942,0.245-4.475,0.71c-1.528,0.459-3.073,1.098-4.63,1.886
			c2.906-2.184,5.054-4.386,6.414-6.593c1.366-2.226,2.047-4.475,2.047-6.749c0-0.627-0.06-1.253-0.155-1.85
			c-0.095-0.591-0.257-1.408-0.489-2.452h9.66v-3.556H91.317c-1.665-3.204-2.751-5.43-3.258-6.689
			c-0.513-1.247-0.77-2.458-0.77-3.646c0-2.387,0.823-4.421,2.452-6.092c1.629-1.665,4.052-2.506,7.232-2.506
			c3.282,0,5.722,0.889,7.327,2.679c1.605,1.784,2.399,4.392,2.399,7.829h6.331c-0.078-5.072-1.414-8.998-4.028-11.785
			c-2.608-2.769-6.426-4.159-11.51-4.159c-5.388,0-9.553,1.402-12.423,4.219c-2.888,2.81-4.344,5.991-4.344,9.541
			c0,1.002,0.084,1.945,0.239,2.828c0.161,0.871,0.364,1.629,0.585,2.297c0.251,0.71,0.758,1.826,1.528,3.359
			c0.758,1.539,1.134,2.244,1.134,2.124h-5.346v3.556h7.542c0.424,1.068,0.728,1.909,0.919,2.53
			c0.298,0.973,0.436,1.832,0.436,2.566c0,2.542-0.782,4.899-2.357,7.083c-1.581,2.172-3.646,4.153-6.206,5.955l3.371,4.845
			c1.432-0.871,2.608-1.48,3.509-1.85c1.545-0.603,3.192-0.877,4.911-0.877c1.862,0,4.41,0.525,7.626,1.563
			c3.216,1.062,5.519,1.581,6.874,1.581c1.862,0,3.628-0.4,5.293-1.193c0.991-0.495,2.142-1.253,3.401-2.285l-2.834-4.6
			C110.28,146.241,109.432,146.766,108.883,147.01z"/>
		<path style="fill:#010002;" d="M175.199,63.08h-17.411l-37.663-37.663c2.297-4.266,1.689-9.672-1.897-13.276
			c-4.392-4.38-11.522-4.38-15.914,0c-4.392,4.392-4.392,11.528,0,15.914c3.598,3.604,9.01,4.195,13.27,1.903l33.128,33.122H44.388
			L77.51,29.958c4.26,2.291,9.672,1.689,13.276-1.903c4.386-4.386,4.386-11.522,0-15.914c-4.392-4.38-11.528-4.38-15.914,0
			c-3.604,3.604-4.195,9.01-1.897,13.276L35.312,63.08H17.895C8.055,63.08,0,69.047,0,76.333c0,6.176,5.806,11.361,13.557,12.811
			l7.435,77.331c1.104,9.792,10.06,17.781,19.905,17.781h111.318c9.839,0,18.796-8.008,19.905-17.781l7.435-77.331
			c7.763-1.45,13.557-6.635,13.557-12.811C193.1,69.047,185.045,63.08,175.199,63.08z M96.538,165.412
			c-20.741,0-37.526-16.791-37.526-37.526c0-20.723,16.785-37.526,37.526-37.526c20.729,0,37.52,16.803,37.52,37.526
			C134.058,148.621,117.267,165.412,96.538,165.412z"/>
	</g>
</g>
<g>
</g>
<g>
</g>
<g>
</g>
<g>
</g>
<g>
</g>
<g>
</g>
<g>
</g>
<g>
</g>
<g>
</g>
<g>
</g>
<g>
</g>
<g>
</g>
<g>
</g>
<g>
</g>
<g>
</g>
</svg>
