<?xml version="1.0" encoding="iso-8859-1"?>
<!-- Generator: Adobe Illustrator 18.1.1, SVG Export Plug-In . SVG Version: 6.00 Build 0)  -->
<svg version="1.1" id="Capa_1" xmlns="http://www.w3.org/2000/svg" xmlns:xlink="http://www.w3.org/1999/xlink" x="0px" y="0px"
	 viewBox="0 0 179.006 179.006" style="enable-background:new 0 0 179.006 179.006;" xml:space="preserve">
<g>
	<g>
		<path style="fill:#010002;" d="M105.548,91.066c-1.152,0.537-2.429,0.806-3.825,0.806c-1.098,0-3.377-0.525-6.886-1.581
			c-3.497-1.05-6.325-1.569-8.449-1.569c-1.886,0-3.819,0.304-5.812,0.907c-1.987,0.609-3.986,1.414-6.027,2.458
			c3.789-2.84,6.558-5.698,8.336-8.58c1.76-2.876,2.649-5.818,2.649-8.765c0-0.829-0.072-1.629-0.203-2.393
			c-0.125-0.764-0.34-1.838-0.627-3.198h12.542v-4.6H82.713c-2.172-4.159-3.592-7.065-4.231-8.682
			c-0.668-1.629-1.014-3.21-1.014-4.744c0-3.109,1.08-5.746,3.204-7.918c2.112-2.166,5.257-3.258,9.38-3.258
			c4.266,0,7.429,1.164,9.523,3.485c2.076,2.315,3.109,5.71,3.109,10.174h8.222c-0.101-6.587-1.862-11.689-5.233-15.293
			s-8.348-5.412-14.953-5.412c-7.011,0-12.393,1.832-16.128,5.49c-3.759,3.634-5.633,7.787-5.633,12.381
			c0,1.301,0.107,2.524,0.304,3.658c0.221,1.122,0.465,2.124,0.758,2.983c0.328,0.913,0.979,2.369,1.981,4.362
			c0.991,2.005,1.48,2.912,1.48,2.775h-6.951v4.6h9.81c0.567,1.396,0.943,2.482,1.193,3.3c0.382,1.271,0.573,2.363,0.573,3.318
			c0,3.324-1.02,6.379-3.061,9.201c-2.047,2.828-4.732,5.394-8.073,7.739l4.398,6.307c1.862-1.128,3.371-1.921,4.553-2.399
			c2.011-0.776,4.147-1.146,6.379-1.146c2.429,0,5.746,0.674,9.911,2.035c4.177,1.366,7.172,2.047,8.944,2.047
			c2.423,0,4.714-0.525,6.862-1.551c1.295-0.65,2.775-1.641,4.415-2.983l-3.67-5.979C107.35,90.064,106.264,90.738,105.548,91.066z"
			/>
		<path style="fill:#010002;" d="M89.503,0C50.826,0,19.452,31.368,19.452,70.051s70.051,108.955,70.051,108.955
			s70.051-70.26,70.051-108.955S128.18,0,89.503,0z M89.503,114.97c-26.934,0-48.743-21.815-48.743-48.737
			c0-26.928,21.809-48.749,48.743-48.749s48.743,21.821,48.743,48.749C138.246,93.149,116.438,114.97,89.503,114.97z"/>
	</g>
</g>
<g>
</g>
<g>
</g>
<g>
</g>
<g>
</g>
<g>
</g>
<g>
</g>
<g>
</g>
<g>
</g>
<g>
</g>
<g>
</g>
<g>
</g>
<g>
</g>
<g>
</g>
<g>
</g>
<g>
</g>
</svg>
