<?xml version="1.0" encoding="iso-8859-1"?>
<!-- Generator: Adobe Illustrator 18.1.1, SVG Export Plug-In . SVG Version: 6.00 Build 0)  -->
<svg version="1.1" id="Capa_1" xmlns="http://www.w3.org/2000/svg" xmlns:xlink="http://www.w3.org/1999/xlink" x="0px" y="0px"
	 viewBox="0 0 179.006 179.006" style="enable-background:new 0 0 179.006 179.006;" xml:space="preserve">
<g>
	<g>
		<path style="fill:#010002;" d="M0,35.124v108.758h179.006V35.124H0z M89.503,129.699c-22.215,0-40.193-18.002-40.193-40.205
			s17.984-40.199,40.193-40.199s40.193,18.002,40.193,40.199C129.696,111.703,111.718,129.699,89.503,129.699z"/>
		<path style="fill:#010002;" d="M102.744,109.996c-0.955,0.43-2.005,0.656-3.145,0.656c-0.901,0-2.787-0.43-5.686-1.301
			c-2.876-0.865-5.209-1.301-6.957-1.301c-1.563,0-3.151,0.251-4.791,0.752c-1.641,0.501-3.3,1.175-4.976,2.029
			c3.121-2.339,5.406-4.702,6.874-7.077c1.456-2.375,2.184-4.791,2.184-7.22c0-0.68-0.054-1.349-0.161-1.975
			c-0.107-0.632-0.28-1.51-0.525-2.631H95.9v-3.801H83.906c-1.784-3.437-2.948-5.83-3.485-7.166
			c-0.555-1.349-0.835-2.643-0.835-3.914c0-2.56,0.877-4.732,2.625-6.528c1.748-1.79,4.344-2.685,7.751-2.685
			c3.52,0,6.128,0.955,7.84,2.87c1.712,1.903,2.584,4.708,2.584,8.383h6.778c-0.084-5.43-1.522-9.636-4.314-12.614
			c-2.787-2.971-6.892-4.457-12.334-4.457c-5.776,0-10.221,1.504-13.3,4.517c-3.103,3.007-4.642,6.414-4.642,10.215
			c0,1.074,0.084,2.076,0.257,3.019c0.167,0.937,0.376,1.76,0.621,2.464c0.269,0.758,0.806,1.957,1.623,3.604
			c0.817,1.647,1.223,2.405,1.223,2.291h-5.734v3.801h8.079c0.448,1.146,0.77,2.047,0.973,2.709c0.322,1.05,0.471,1.963,0.471,2.739
			c0,2.733-0.835,5.263-2.518,7.584c-1.689,2.333-3.902,4.457-6.653,6.379l3.622,5.191c1.539-0.925,2.787-1.587,3.759-1.975
			c1.647-0.632,3.419-0.949,5.263-0.949c2.005,0,4.732,0.561,8.175,1.683c3.449,1.122,5.913,1.683,7.369,1.683
			c2.005,0,3.89-0.43,5.663-1.277c1.062-0.543,2.297-1.36,3.646-2.452l-3.031-4.941C104.229,109.161,103.31,109.722,102.744,109.996
			z"/>
	</g>
</g>
<g>
</g>
<g>
</g>
<g>
</g>
<g>
</g>
<g>
</g>
<g>
</g>
<g>
</g>
<g>
</g>
<g>
</g>
<g>
</g>
<g>
</g>
<g>
</g>
<g>
</g>
<g>
</g>
<g>
</g>
</svg>
