<?xml version="1.0" encoding="iso-8859-1"?>
<!-- Generator: Adobe Illustrator 18.1.1, SVG Export Plug-In . SVG Version: 6.00 Build 0)  -->
<svg version="1.1" id="Capa_1" xmlns="http://www.w3.org/2000/svg" xmlns:xlink="http://www.w3.org/1999/xlink" x="0px" y="0px"
	 viewBox="0 0 179.003 179.003" style="enable-background:new 0 0 179.003 179.003;" xml:space="preserve">
<g>
	<g>
		<g>
			<path style="fill:#010002;" d="M70.769,34.092c-1.456,0-2.643,1.128-2.643,2.518s1.187,2.524,2.643,2.524h37.436
				c1.462,0,2.643-1.134,2.643-2.524s-1.181-2.518-2.643-2.518H70.769z"/>
			<path style="fill:#010002;" d="M104.332,30.238c1.748-9.231,8.336-21.881,8.336-21.881S84.857-4.323,78.4,1.555
				c-2.608,2.369,3.795,11.409,1.426,14.028c-2.255,2.506-13.521,0-13.521,0s4.338,7.858,6.367,14.655H104.332z"/>
		</g>
		<g>
			<path style="fill:#010002;" d="M99.374,131.119c-0.71,0.328-1.498,0.495-2.363,0.495c-0.662,0-2.082-0.328-4.236-0.973
				c-2.154-0.638-3.896-0.973-5.203-0.973c-1.164,0-2.351,0.191-3.58,0.567c-1.223,0.37-2.458,0.871-3.711,1.516
				c2.333-1.742,4.046-3.509,5.137-5.287c1.086-1.772,1.629-3.58,1.629-5.388c0-0.507-0.042-1.002-0.125-1.48
				c-0.09-0.471-0.215-1.128-0.394-1.963h7.727v-2.846h-8.95c-1.337-2.566-2.202-4.35-2.613-5.346
				c-0.406-0.996-0.621-1.975-0.621-2.918c0-1.903,0.662-3.532,1.975-4.869c1.301-1.343,3.228-2.005,5.776-2.005
				c2.625,0,4.577,0.71,5.859,2.136c1.283,1.426,1.921,3.514,1.921,6.259h5.06c-0.06-4.052-1.128-7.196-3.216-9.416
				c-2.088-2.214-5.137-3.33-9.213-3.33c-4.314,0-7.632,1.122-9.935,3.371c-2.315,2.244-3.467,4.791-3.467,7.626
				c0,0.806,0.06,1.551,0.185,2.25c0.137,0.698,0.286,1.319,0.465,1.844c0.197,0.567,0.603,1.462,1.217,2.691
				c0.615,1.217,0.913,1.796,0.913,1.701h-4.284v2.846h6.033c0.346,0.859,0.585,1.528,0.74,2.023
				c0.233,0.782,0.352,1.462,0.352,2.047c0,2.041-0.621,3.926-1.88,5.669c-1.259,1.742-2.918,3.33-4.964,4.768l2.703,3.872
				c1.146-0.692,2.082-1.181,2.804-1.474c1.235-0.477,2.56-0.716,3.926-0.716c1.498,0,3.538,0.424,6.104,1.253
				c2.578,0.841,4.41,1.253,5.501,1.253c1.498,0,2.9-0.316,4.231-0.949c0.794-0.4,1.712-1.014,2.727-1.832l-2.244-3.67
				C100.49,130.505,99.815,130.911,99.374,131.119z"/>
			<path style="fill:#010002;" d="M109.362,42.869c-0.37,0.066-0.764,0.113-1.146,0.113H70.775c-0.668,0-1.307-0.131-1.915-0.316
				C42.85,67.429,28.75,104.585,28.75,126.99c0,28.725,29.321,52.013,60.749,52.013c31.422,0,60.755-23.289,60.755-52.013
				C150.242,104.322,135.724,70.621,109.362,42.869z M89.493,145.834c-16.582,0-30.013-13.437-30.013-30.013
				s13.431-30.013,30.013-30.013c16.576,0,30.013,13.437,30.013,30.013C119.506,132.39,106.069,145.834,89.493,145.834z"/>
		</g>
	</g>
</g>
<g>
</g>
<g>
</g>
<g>
</g>
<g>
</g>
<g>
</g>
<g>
</g>
<g>
</g>
<g>
</g>
<g>
</g>
<g>
</g>
<g>
</g>
<g>
</g>
<g>
</g>
<g>
</g>
<g>
</g>
</svg>
