<?xml version="1.0" encoding="iso-8859-1"?>
<!-- Generator: Adobe Illustrator 18.1.1, SVG Export Plug-In . SVG Version: 6.00 Build 0)  -->
<svg version="1.1" id="Capa_1" xmlns="http://www.w3.org/2000/svg" xmlns:xlink="http://www.w3.org/1999/xlink" x="0px" y="0px"
	 viewBox="0 0 179.006 179.006" style="enable-background:new 0 0 179.006 179.006;" xml:space="preserve">
<g>
	<g>
		<path style="fill:#010002;" d="M57.968,102.654c2.029-1.408,3.652-2.971,4.887-4.684c1.235-1.707,1.85-3.568,1.85-5.573
			c0-0.573-0.113-1.241-0.352-2.011c-0.137-0.483-0.376-1.146-0.722-1.987h-5.925v-2.792h4.213c0,0.101-0.304-0.465-0.901-1.671
			c-0.603-1.211-0.996-2.094-1.193-2.643c-0.173-0.513-0.334-1.122-0.453-1.82c-0.125-0.674-0.185-1.42-0.185-2.202
			c0-2.798,1.134-5.299,3.407-7.506c2.267-2.214,5.531-3.318,9.768-3.318c3.986,0,7.011,1.104,9.058,3.276
			c2.047,2.178,3.103,5.269,3.151,9.261H79.61c0-2.703-0.632-4.75-1.891-6.152c-1.265-1.402-3.18-2.112-5.758-2.112
			c-2.506,0-4.398,0.656-5.686,1.975c-1.289,1.319-1.933,2.912-1.933,4.791c0,0.925,0.197,1.88,0.609,2.87
			c0.4,0.979,1.253,2.733,2.56,5.257h8.807v2.792h-7.59c0.173,0.829,0.31,1.468,0.388,1.933c0.078,0.459,0.119,0.943,0.119,1.444
			c0,1.79-0.537,3.562-1.611,5.305s-2.757,3.473-5.048,5.191c1.235-0.621,2.452-1.122,3.652-1.486
			c1.193-0.37,2.363-0.555,3.514-0.555c1.283,0,2.989,0.316,5.108,0.949s3.509,0.955,4.171,0.955c0.841,0,1.617-0.155,2.309-0.489
			c0.424-0.185,1.086-0.609,1.957-1.235l2.226,3.628c-1.002,0.8-1.897,1.396-2.679,1.802c-1.307,0.621-2.691,0.931-4.159,0.931
			c-1.074,0-2.87-0.406-5.406-1.235c-2.53-0.823-4.529-1.241-5.997-1.241c-1.36,0-2.649,0.239-3.861,0.704
			c-0.716,0.286-1.635,0.77-2.763,1.45L57.968,102.654z"/>
		<g>
			<g>
				<polygon style="fill:#010002;" points="123.085,129.654 19.136,129.654 0,43.743 116.963,43.743 113.776,56.059 15.335,56.059 
					28.993,117.339 113.209,117.339 134.362,21.534 179.006,21.534 179.006,33.814 144.225,33.814 				"/>
			</g>
			<g>
				<g>
					<path style="fill:#010002;" d="M53.582,145.979c0,6.343-5.143,11.492-11.474,11.492c-6.337,0-11.48-5.132-11.48-11.492
						c0-6.337,5.143-11.474,11.48-11.474C48.439,134.505,53.582,139.655,53.582,145.979z"/>
				</g>
				<g>
					<path style="fill:#010002;" d="M113.603,145.979c0,6.343-5.143,11.492-11.492,11.492c-6.331,0-11.462-5.132-11.462-11.492
						c0-6.337,5.149-11.474,11.462-11.474C108.454,134.505,113.603,139.655,113.603,145.979z"/>
				</g>
			</g>
		</g>
	</g>
</g>
<g>
</g>
<g>
</g>
<g>
</g>
<g>
</g>
<g>
</g>
<g>
</g>
<g>
</g>
<g>
</g>
<g>
</g>
<g>
</g>
<g>
</g>
<g>
</g>
<g>
</g>
<g>
</g>
<g>
</g>
</svg>
