<?xml version="1.0" encoding="iso-8859-1"?>
<!-- Generator: Adobe Illustrator 18.1.1, SVG Export Plug-In . SVG Version: 6.00 Build 0)  -->
<svg version="1.1" id="Capa_1" xmlns="http://www.w3.org/2000/svg" xmlns:xlink="http://www.w3.org/1999/xlink" x="0px" y="0px"
	 viewBox="0 0 179.006 179.006" style="enable-background:new 0 0 179.006 179.006;" xml:space="preserve">
<g>
	<g>
		<path style="fill:#010002;" d="M54.251,92.128l1.098-3.693h5.108c-0.036-0.722-0.054-1.444-0.054-2.19
			c0-0.644,0.018-1.295,0.054-1.927h-6.206l1.098-3.705h5.531c0.591-3.174,1.695-5.931,3.312-8.27
			c2.709-3.92,6.456-5.883,11.236-5.883c4.069,0,7.226,1.277,9.481,3.837c2.25,2.554,3.497,5.454,3.741,8.706h-4.254
			c-0.465-2.458-1.426-4.415-2.864-5.859c-1.444-1.444-3.455-2.16-6.05-2.16c-3.18,0-5.746,1.337-7.691,3.992
			c-1.08,1.45-1.85,3.347-2.321,5.651h14.547l-1.092,3.705H64.949c-0.06,0.883-0.084,1.826-0.084,2.816
			c0,0.448,0.006,0.877,0.024,1.313h15.12l-1.092,3.693h-13.64c0.418,2.285,1.164,4.254,2.22,5.913
			c1.754,2.787,4.374,4.171,7.87,4.171c3.216,0,5.669-1.462,7.351-4.398c0.883-1.551,1.551-3.592,1.981-6.104h4.254
			c-0.382,4.04-1.647,7.411-3.783,10.15c-2.56,3.288-5.997,4.923-10.323,4.923c-3.735,0-6.874-1.36-9.41-4.046
			c-2.399-2.536-3.944-6.08-4.612-10.609h-6.575C54.251,92.152,54.251,92.128,54.251,92.128z"/>
		<g>
			<g>
				<polygon style="fill:#010002;" points="123.085,129.654 19.136,129.654 0,43.743 116.963,43.743 113.776,56.059 15.335,56.059 
					28.993,117.339 113.209,117.339 134.362,21.534 179.006,21.534 179.006,33.814 144.225,33.814 				"/>
			</g>
			<g>
				<g>
					<path style="fill:#010002;" d="M53.582,145.979c0,6.343-5.143,11.492-11.474,11.492c-6.337,0-11.48-5.132-11.48-11.492
						c0-6.337,5.143-11.474,11.48-11.474C48.439,134.505,53.582,139.655,53.582,145.979z"/>
				</g>
				<g>
					<path style="fill:#010002;" d="M113.603,145.979c0,6.343-5.143,11.492-11.486,11.492c-6.337,0-11.468-5.132-11.468-11.492
						c0-6.337,5.149-11.474,11.468-11.474C108.454,134.505,113.603,139.655,113.603,145.979z"/>
				</g>
			</g>
		</g>
	</g>
</g>
<g>
</g>
<g>
</g>
<g>
</g>
<g>
</g>
<g>
</g>
<g>
</g>
<g>
</g>
<g>
</g>
<g>
</g>
<g>
</g>
<g>
</g>
<g>
</g>
<g>
</g>
<g>
</g>
<g>
</g>
</svg>
