<?xml version="1.0" encoding="iso-8859-1"?>
<!-- Generator: Adobe Illustrator 16.0.0, SVG Export Plug-In . SVG Version: 6.00 Build 0)  -->
<!DOCTYPE svg PUBLIC "-//W3C//DTD SVG 1.1//EN" "http://www.w3.org/Graphics/SVG/1.1/DTD/svg11.dtd">
<svg version="1.1" id="Capa_1" xmlns="http://www.w3.org/2000/svg" xmlns:xlink="http://www.w3.org/1999/xlink" x="0px" y="0px"
	 width="70.074px" height="70.074px" viewBox="0 0 70.074 70.074" style="enable-background:new 0 0 70.074 70.074;"
	 xml:space="preserve">
<g>
	<g>
		<g>
			<g>
				<g style="enable-background:new    ;">
					<g>
						<path d="M12.424,38.662c-0.705,0-1.249,0.15-1.614,0.451c-0.217,0.172-0.42,0.464-0.62,0.872h4.488
							c-0.047-0.562-0.4-0.944-1.065-1.159C13.272,38.712,12.873,38.662,12.424,38.662"/>
						<path d="M8.432,40.453H4.429c0.026,0.431,0.25,0.734,0.677,0.924c0.428,0.182,0.876,0.269,1.346,0.269
							c0.562,0,0.997-0.104,1.317-0.326C8.084,41.109,8.311,40.817,8.432,40.453"/>
						<path d="M4.44,39.985h4.156c0.373-0.758,0.718-1.273,1.039-1.547c0.535-0.44,1.331-0.661,2.375-0.661
							c1.514,0,2.585,0.282,3.223,0.849c0.353,0.314,0.584,0.771,0.7,1.359h1.656v0.468h-1.656
							c-0.107,0.948-0.691,1.599-1.758,1.934c-0.577,0.188-1.352,0.283-2.329,0.283v-0.871c0.78-0.032,1.343-0.101,1.703-0.21
							c0.646-0.21,1.007-0.589,1.087-1.136H9.985c-0.231,0.704-0.624,1.231-1.168,1.571c-0.551,0.34-1.304,0.506-2.268,0.506
							c-0.869,0-1.649-0.178-2.341-0.545c-0.691-0.36-1.046-0.876-1.06-1.528H2.015v-0.47h1.119
							c0.082-0.647,0.414-1.146,0.998-1.501c0.591-0.347,1.364-0.531,2.329-0.543v0.857c-0.435,0.023-0.809,0.087-1.119,0.206
							C4.772,39.209,4.468,39.533,4.44,39.985 M9.803,34.584C4.386,34.584,0,37.108,0,40.225s4.386,5.644,9.803,5.644
							c5.417,0,9.804-2.527,9.804-5.644S15.22,34.584,9.803,34.584"/>
					</g>
				</g>
				<path d="M9.803,46.623c-4.97,0-9.062-2.131-9.705-4.891C0.04,41.977,0,42.229,0,42.482c0,3.116,4.386,5.644,9.803,5.644
					c5.417,0,9.804-2.527,9.804-5.644c0-0.253-0.04-0.506-0.098-0.75C18.869,44.492,14.777,46.623,9.803,46.623z"/>
				<path d="M9.803,48.881c-4.97,0-9.062-2.123-9.705-4.886C0.04,44.239,0,44.492,0,44.748c0,3.116,4.386,5.644,9.803,5.644
					c5.417,0,9.804-2.527,9.804-5.644c0-0.256-0.04-0.509-0.098-0.753C18.869,46.758,14.777,48.881,9.803,48.881z"/>
				<path d="M9.803,51.142c-4.97,0-9.062-2.126-9.705-4.891C0.04,46.504,0,46.753,0,47.011c0,3.116,4.386,5.644,9.803,5.644
					c5.417,0,9.804-2.527,9.804-5.644c0-0.258-0.04-0.507-0.098-0.757C18.869,49.016,14.777,51.142,9.803,51.142z"/>
				<path d="M9.803,53.411c-4.97,0-9.062-2.13-9.705-4.893C0.04,48.768,0,49.016,0,49.275c0,3.116,4.386,5.644,9.803,5.644
					c5.417,0,9.804-2.527,9.804-5.644c0-0.26-0.04-0.508-0.098-0.757C18.869,51.281,14.777,53.411,9.803,53.411z"/>
			</g>
			<g>
				<g style="enable-background:new    ;">
					<g>
						<path d="M13.326,19.525c-0.759,0-1.341,0.165-1.733,0.486c-0.234,0.185-0.451,0.501-0.663,0.934h4.814
							c-0.052-0.598-0.43-1.013-1.145-1.24C14.235,19.585,13.807,19.525,13.326,19.525"/>
						<path d="M9.044,21.453H4.749c0.03,0.462,0.271,0.792,0.729,0.99c0.459,0.196,0.941,0.292,1.44,0.292
							c0.605,0,1.07-0.112,1.411-0.346C8.672,22.153,8.911,21.843,9.044,21.453"/>
						<path d="M4.763,20.947h4.454c0.403-0.812,0.773-1.364,1.115-1.658c0.575-0.474,1.428-0.707,2.549-0.707
							c1.625,0,2.775,0.301,3.459,0.908c0.378,0.342,0.628,0.828,0.749,1.458h1.78v0.503h-1.78c-0.114,1.021-0.74,1.712-1.885,2.079
							c-0.618,0.201-1.447,0.304-2.497,0.304v-0.935c0.836-0.03,1.441-0.106,1.827-0.227c0.691-0.225,1.079-0.631,1.166-1.219
							h-4.987c-0.248,0.758-0.671,1.322-1.252,1.687c-0.588,0.362-1.398,0.542-2.434,0.542c-0.932,0-1.77-0.194-2.51-0.584
							c-0.742-0.39-1.121-0.94-1.136-1.645H2.162V20.95h1.204c0.089-0.696,0.443-1.231,1.07-1.606
							c0.633-0.374,1.462-0.566,2.497-0.589v0.924c-0.467,0.024-0.868,0.096-1.202,0.22C5.12,20.113,4.792,20.469,4.763,20.947
							 M10.513,15.156C4.705,15.156,0,17.862,0,21.205c0,3.342,4.705,6.052,10.513,6.052c5.811,0,10.516-2.71,10.516-6.052
							C21.029,17.86,16.324,15.156,10.513,15.156"/>
					</g>
				</g>
				<path d="M10.513,28.067c-5.333,0-9.72-2.284-10.411-5.244C0.044,23.087,0,23.356,0,23.634c0,3.344,4.705,6.054,10.513,6.054
					c5.811,0,10.516-2.71,10.516-6.054c0-0.274-0.044-0.542-0.103-0.811C20.237,25.783,15.849,28.067,10.513,28.067z"/>
				<path d="M10.513,30.497c-5.333,0-9.72-2.287-10.411-5.244C0.044,25.514,0,25.788,0,26.062c0,3.344,4.705,6.054,10.513,6.054
					c5.811,0,10.516-2.71,10.516-6.054c0-0.274-0.044-0.543-0.103-0.809C20.237,28.21,15.849,30.497,10.513,30.497z"/>
			</g>
		</g>
		<g>
			<g>
				<path d="M70.074,21.735h-45.64v14.974h45.64V21.735z M56.253,30.915c-0.444,0.69-1.12,1.317-1.981,1.85
					c-0.872,0.535-1.926,0.974-3.116,1.281c-1.19,0.306-2.512,0.477-3.905,0.477c-1.39,0-2.705-0.171-3.896-0.477
					c-1.186-0.307-2.239-0.743-3.111-1.281c-0.862-0.533-1.537-1.16-1.984-1.85c-0.438-0.682-0.644-1.42-0.584-2.189
					c0.064-0.756,0.388-1.467,0.917-2.104c0.522-0.633,1.246-1.193,2.11-1.663c0.862-0.463,1.872-0.836,2.979-1.094
					c1.103-0.254,2.307-0.395,3.565-0.395c1.264,0,2.471,0.14,3.574,0.395c1.106,0.255,2.119,0.631,2.981,1.094
					c0.872,0.47,1.593,1.03,2.117,1.663c0.527,0.637,0.847,1.348,0.912,2.104C56.898,29.495,56.693,30.232,56.253,30.915z"/>
				<path d="M51.146,29.2c-0.1-0.114-0.221-0.217-0.362-0.31c-0.144-0.091-0.312-0.176-0.504-0.25
					c-0.114-0.047-0.258-0.093-0.427-0.143c-0.166-0.047-0.358-0.096-0.577-0.145c-0.221-0.049-0.461-0.098-0.729-0.147
					c-0.271-0.049-0.568-0.1-0.89-0.153l-0.005-2.261c0.188,0.005,0.354,0.016,0.518,0.04c0.162,0.021,0.311,0.051,0.445,0.094
					c0.139,0.04,0.26,0.089,0.374,0.147c0.109,0.058,0.214,0.128,0.301,0.206c0.048,0.042,0.092,0.084,0.128,0.131
					c0.041,0.049,0.073,0.096,0.103,0.145c0.027,0.049,0.053,0.103,0.07,0.154c0.019,0.054,0.032,0.112,0.039,0.17h1.448
					c-0.014-0.13-0.045-0.252-0.093-0.371c-0.044-0.118-0.107-0.227-0.186-0.33c-0.082-0.105-0.175-0.203-0.289-0.294
					c-0.109-0.089-0.239-0.175-0.388-0.252c-0.144-0.08-0.304-0.147-0.481-0.211c-0.178-0.061-0.37-0.112-0.579-0.156
					c-0.203-0.044-0.43-0.079-0.667-0.107c-0.234-0.029-0.487-0.049-0.752-0.059v-0.584h-0.767v0.598
					c-0.27,0.002-0.527,0.014-0.762,0.04c-0.242,0.023-0.468,0.058-0.68,0.105c-0.215,0.049-0.411,0.105-0.591,0.176
					c-0.181,0.067-0.347,0.149-0.5,0.243c-0.152,0.091-0.292,0.187-0.406,0.283c-0.118,0.098-0.219,0.201-0.296,0.306
					c-0.078,0.104-0.137,0.212-0.179,0.324c-0.043,0.113-0.063,0.227-0.068,0.342c-0.004,0.132,0.01,0.256,0.041,0.375
					c0.032,0.12,0.078,0.231,0.145,0.336c0.065,0.105,0.152,0.201,0.253,0.29c0.104,0.091,0.228,0.174,0.369,0.248
					c0.142,0.076,0.306,0.145,0.483,0.213c0.186,0.065,0.384,0.125,0.607,0.179s0.463,0.105,0.728,0.147
					c0.263,0.042,0.54,0.08,0.842,0.112l-0.01,2.68c-0.236-0.015-0.46-0.035-0.661-0.066c-0.2-0.032-0.383-0.074-0.548-0.125
					c-0.164-0.051-0.308-0.118-0.438-0.189c-0.128-0.073-0.232-0.154-0.319-0.248c-0.05-0.053-0.091-0.117-0.13-0.182
					c-0.039-0.067-0.073-0.145-0.103-0.227c-0.027-0.081-0.055-0.172-0.071-0.271c-0.018-0.096-0.034-0.202-0.038-0.316h-1.487
					c-0.005,0.143,0,0.276,0.014,0.401c0.014,0.129,0.043,0.247,0.077,0.36c0.036,0.112,0.082,0.219,0.142,0.317
					c0.055,0.098,0.125,0.189,0.203,0.273c0.144,0.156,0.319,0.297,0.531,0.419c0.21,0.121,0.456,0.226,0.737,0.312
					c0.28,0.089,0.593,0.156,0.941,0.209c0.345,0.051,0.728,0.087,1.146,0.101v1.005h0.823l-0.002-1.005
					c0.255-0.014,0.499-0.037,0.729-0.061c0.229-0.023,0.438-0.054,0.635-0.089c0.2-0.034,0.378-0.072,0.542-0.119
					c0.167-0.044,0.319-0.091,0.452-0.145c0.242-0.096,0.456-0.205,0.639-0.334c0.178-0.129,0.328-0.266,0.449-0.428
					c0.116-0.156,0.208-0.33,0.256-0.516c0.052-0.189,0.075-0.39,0.07-0.608c-0.005-0.149-0.036-0.292-0.087-0.422
					C51.314,29.432,51.242,29.312,51.146,29.2z M46.866,27.97c-0.154-0.02-0.301-0.04-0.439-0.063
					c-0.14-0.026-0.271-0.052-0.393-0.082c-0.121-0.033-0.235-0.066-0.34-0.103c-0.105-0.038-0.205-0.078-0.297-0.122
					c-0.087-0.044-0.164-0.091-0.234-0.145c-0.062-0.049-0.121-0.107-0.162-0.167c-0.048-0.058-0.082-0.126-0.101-0.194
					c-0.027-0.068-0.036-0.143-0.034-0.218c0-0.063,0.009-0.125,0.034-0.188c0.019-0.06,0.05-0.123,0.091-0.184
					c0.037-0.058,0.087-0.122,0.145-0.178c0.057-0.058,0.13-0.116,0.207-0.172c0.073-0.057,0.164-0.11,0.265-0.153
					c0.101-0.043,0.219-0.081,0.342-0.112c0.128-0.029,0.268-0.051,0.42-0.069c0.153-0.017,0.324-0.026,0.497-0.031V27.97z
					 M49.93,30.413c-0.011,0.061-0.029,0.12-0.052,0.176c-0.025,0.058-0.051,0.112-0.087,0.165
					c-0.036,0.051-0.073,0.105-0.118,0.154c-0.092,0.098-0.201,0.182-0.333,0.256c-0.128,0.075-0.278,0.141-0.443,0.192
					c-0.168,0.052-0.351,0.093-0.561,0.124c-0.201,0.033-0.425,0.049-0.664,0.056l-0.012-2.59c0.174,0.028,0.336,0.054,0.484,0.081
					c0.146,0.028,0.287,0.057,0.41,0.084c0.123,0.031,0.242,0.059,0.342,0.089c0.101,0.031,0.183,0.058,0.258,0.091
					c0.135,0.051,0.244,0.112,0.34,0.175c0.096,0.063,0.179,0.135,0.244,0.212c0.062,0.078,0.116,0.161,0.148,0.25
					c0.036,0.091,0.053,0.188,0.055,0.292C49.946,30.291,49.941,30.354,49.93,30.413z"/>
			</g>
			<rect x="24.435" y="37.836" width="45.64" height="1.971"/>
			<rect x="24.435" y="40.683" width="45.64" height="1.974"/>
			<rect x="24.435" y="43.532" width="45.64" height="1.966"/>
			<rect x="24.435" y="46.374" width="45.64" height="1.969"/>
		</g>
	</g>
</g>
<g>
</g>
<g>
</g>
<g>
</g>
<g>
</g>
<g>
</g>
<g>
</g>
<g>
</g>
<g>
</g>
<g>
</g>
<g>
</g>
<g>
</g>
<g>
</g>
<g>
</g>
<g>
</g>
<g>
</g>
</svg>
