<?xml version="1.0" encoding="iso-8859-1"?>
<!-- Generator: Adobe Illustrator 18.1.1, SVG Export Plug-In . SVG Version: 6.00 Build 0)  -->
<svg version="1.1" id="Capa_1" xmlns="http://www.w3.org/2000/svg" xmlns:xlink="http://www.w3.org/1999/xlink" x="0px" y="0px"
	 viewBox="0 0 179.006 179.006" style="enable-background:new 0 0 179.006 179.006;" xml:space="preserve">
<g>
	<g>
		<path style="fill:#010002;" d="M86.764,76.107h25.866c1.987-9.368,10.287-16.403,20.252-16.403
			c11.444,0,20.723,9.273,20.723,20.717s-9.278,20.717-20.723,20.717c-2.87,0-5.615-0.591-8.109-1.653v8.962h54.233V52.401H86.764
			V76.107z"/>
		<path style="fill:#010002;" d="M132.047,63.971v2.399c-2.417,0.024-4.296,0.77-5.633,2.238c-1.337,1.462-2.005,3.109-2.005,4.935
			c0,2.041,0.621,3.64,1.862,4.791c1.241,1.158,3.168,1.981,5.776,2.476v9.821c-2.035-0.167-3.419-0.931-4.165-2.291
			c-0.43-0.752-0.698-1.951-0.788-3.604h-2.321v4.481c0.066,0.131,0.09,0.316,0.155,0.436c1.247,2.25,3.616,3.485,7.113,3.711v3.497
			h1.712v-3.497c2.172-0.233,3.843-0.734,4.988-1.474c2.082-1.349,3.115-3.616,3.115-6.82c0-2.208-0.806-3.878-2.429-5.006
			c-0.996-0.686-2.894-1.42-5.674-2.202v-8.777c1.647,0.06,2.858,0.692,3.616,1.909c0.406,0.656,0.656,1.444,0.734,2.363h3.156
			c-0.066-2.041-0.722-3.676-2.011-4.917c-1.277-1.241-3.115-1.939-5.501-2.112v-2.363h-1.701V63.971z M132.047,77.528
			c-1.349-0.269-2.417-0.734-3.21-1.408c-0.788-0.668-1.187-1.605-1.187-2.792c0-0.985,0.34-1.927,1.002-2.834
			c0.674-0.895,1.814-1.372,3.389-1.438L132.047,77.528L132.047,77.528z M136.964,82.534c1.104,0.788,1.659,1.921,1.659,3.425
			c0,0.949-0.209,1.784-0.621,2.506c-0.782,1.402-2.202,2.154-4.248,2.25v-9.475C135.257,81.651,136.331,82.08,136.964,82.534z"/>
		<path style="fill:#010002;" d="M0,153.754h120.083V80.797H0V153.754z M60.039,90.309c14.899,0,26.97,12.071,26.97,26.976
			s-12.071,26.97-26.97,26.97s-26.964-12.065-26.964-26.97S45.139,90.309,60.039,90.309z"/>
		<path style="fill:#010002;" d="M53.517,127.584c-0.555-0.979-0.895-2.548-1.014-4.69H48.35c0,2.697,0.442,4.833,1.331,6.408
			c1.629,2.918,4.72,4.535,9.267,4.839v4.553h2.232v-4.559c2.834-0.322,4.994-0.955,6.498-1.921
			c2.709-1.754,4.057-4.708,4.057-8.867c0-2.876-1.05-5.054-3.162-6.522c-1.301-0.889-3.765-1.85-7.393-2.858v-11.421
			c2.154,0.078,3.729,0.895,4.72,2.482c0.531,0.865,0.853,1.88,0.961,3.079h4.105c-0.084-2.655-0.949-4.791-2.613-6.402
			c-1.665-1.617-4.057-2.53-7.166-2.751v-3.073h-2.232v3.109c-3.139,0.036-5.591,1.002-7.333,2.912s-2.613,4.052-2.613,6.426
			c0,2.649,0.806,4.744,2.429,6.241s4.123,2.572,7.518,3.216v12.787C56.303,130.346,54.495,129.362,53.517,127.584z M61.178,118.341
			c1.951,0.537,3.347,1.104,4.177,1.689c1.438,1.02,2.16,2.506,2.16,4.463c0,1.229-0.269,2.321-0.8,3.258
			c-1.014,1.832-2.864,2.81-5.537,2.924V118.341z M54.776,111.682c-1.032-0.871-1.545-2.094-1.545-3.634
			c0-1.283,0.436-2.506,1.313-3.676c0.877-1.175,2.351-1.802,4.41-1.874v11.033C57.198,113.168,55.808,112.553,54.776,111.682z"/>
		<path style="fill:#010002;" d="M80.314,25.252H27.465V57.36h52.849V25.252z M53.887,53.177c-6.558,0-11.868-5.316-11.868-11.868
			s5.311-11.868,11.868-11.868s11.868,5.316,11.868,11.868C65.755,47.86,60.444,53.177,53.887,53.177z"/>
		<path style="fill:#010002;" d="M54.388,39.847v-5.03c0.949,0.036,1.641,0.4,2.076,1.098c0.239,0.376,0.376,0.835,0.424,1.354
			h1.808c-0.036-1.164-0.418-2.106-1.152-2.816c-0.734-0.71-1.784-1.116-3.156-1.211v-1.354h-0.979v1.366
			c-1.384,0.018-2.464,0.442-3.234,1.283c-0.764,0.847-1.146,1.79-1.146,2.834c0,1.17,0.358,2.088,1.068,2.745
			c0.716,0.662,1.82,1.134,3.312,1.414v5.627c-1.164-0.101-1.963-0.537-2.393-1.313c-0.245-0.436-0.394-1.122-0.448-2.071h-1.826
			c0,1.187,0.197,2.124,0.585,2.822c0.722,1.289,2.076,1.999,4.081,2.124v2.005h0.979v-2.005c1.247-0.131,2.202-0.418,2.858-0.847
			c1.193-0.77,1.784-2.076,1.784-3.902c0-1.265-0.465-2.226-1.39-2.864C57.067,40.712,55.987,40.294,54.388,39.847z M53.409,39.656
			c-0.77-0.149-1.384-0.418-1.838-0.806s-0.68-0.919-0.68-1.605c0-0.567,0.191-1.11,0.573-1.623
			c0.388-0.513,1.038-0.788,1.945-0.823V39.656z M56.828,45.915c-0.453,0.811-1.265,1.235-2.44,1.295v-5.43
			c0.859,0.233,1.474,0.477,1.838,0.74c0.632,0.448,0.955,1.104,0.955,1.963C57.181,45.026,57.061,45.503,56.828,45.915z"/>
	</g>
</g>
<g>
</g>
<g>
</g>
<g>
</g>
<g>
</g>
<g>
</g>
<g>
</g>
<g>
</g>
<g>
</g>
<g>
</g>
<g>
</g>
<g>
</g>
<g>
</g>
<g>
</g>
<g>
</g>
<g>
</g>
</svg>
