<?xml version="1.0" encoding="iso-8859-1"?>
<!-- Generator: Adobe Illustrator 18.1.1, SVG Export Plug-In . SVG Version: 6.00 Build 0)  -->
<svg version="1.1" id="Capa_1" xmlns="http://www.w3.org/2000/svg" xmlns:xlink="http://www.w3.org/1999/xlink" x="0px" y="0px"
	 viewBox="0 0 175.39 175.39" style="enable-background:new 0 0 175.39 175.39;" xml:space="preserve">
<g>
	<g>
		<g>
			<path style="fill:#010002;" d="M96.168,49.048c5.979-6.558,14.38-9.881,25.186-9.994V28.337h7.655v10.567
				c10.687,0.752,18.891,3.896,24.613,9.44c5.722,5.549,8.718,12.877,8.986,21.988h-14.1c-0.37-4.087-1.48-7.596-3.306-10.561
				c-3.383-5.418-8.783-8.27-16.194-8.545v39.25c12.459,3.491,20.92,6.766,25.383,9.827c7.25,5.048,10.872,12.518,10.872,22.4
				c0,14.291-4.636,24.44-13.939,30.455c-5.149,3.335-12.59,5.537-22.316,6.605v15.627h-7.65v-15.627
				c-15.633-1.026-26.236-6.558-31.833-16.594c-3.061-5.43-4.594-12.763-4.594-22.006h14.255c0.43,7.357,1.605,12.733,3.497,16.117
				c3.353,6.08,9.577,9.481,18.67,10.233v-43.904c-11.665-2.202-20.263-5.883-25.831-11.051c-5.561-5.155-8.336-12.304-8.336-21.439
				C87.182,62.962,90.177,55.611,96.168,49.048z M106.998,82.653c3.55,3.007,8.33,5.102,14.344,6.289V51.064
				c-7.101,0.269-12.149,2.417-15.156,6.444c-3.007,4.034-4.511,8.252-4.511,12.656C101.687,75.487,103.46,79.646,106.998,82.653z
				 M148.014,137.853c1.832-3.216,2.745-6.957,2.745-11.2c0-6.719-2.476-11.814-7.417-15.311c-2.846-2.041-7.62-3.974-14.332-5.794
				v42.389C138.193,147.495,144.524,144.136,148.014,137.853z"/>
		</g>
		<g>
			<path style="fill:#010002;" d="M16.976,52.252c3.652-3.998,8.777-6.033,15.365-6.098v-6.54h4.672v6.444
				c6.522,0.453,11.528,2.375,15.019,5.758c3.491,3.389,5.322,7.858,5.484,13.419H48.91c-0.233-2.494-0.901-4.636-2.011-6.444
				c-2.065-3.312-5.358-5.048-9.881-5.215v23.951c7.602,2.13,12.763,4.129,15.484,6.003c4.427,3.079,6.635,7.632,6.635,13.67
				c0,8.718-2.834,14.917-8.509,18.587c-3.145,2.029-7.685,3.365-13.616,4.034v9.541H32.34v-9.541
				c-9.541-0.621-16.015-3.998-19.422-10.126c-1.862-3.33-2.792-7.793-2.792-13.431h8.7c0.263,4.493,0.979,7.769,2.13,9.833
				c2.047,3.705,5.842,5.782,11.391,6.235V85.547c-7.113-1.349-12.369-3.592-15.759-6.737c-3.395-3.151-5.09-7.512-5.09-13.079
				C11.492,60.731,13.33,56.244,16.976,52.252z M23.593,72.754c2.166,1.838,5.084,3.109,8.753,3.837v-23.11
				c-4.332,0.161-7.411,1.474-9.243,3.932c-1.832,2.458-2.751,5.03-2.751,7.721C20.347,68.374,21.433,70.916,23.593,72.754z
				 M48.624,106.437c1.116-1.969,1.677-4.254,1.677-6.838c0-4.099-1.51-7.214-4.529-9.338c-1.736-1.247-4.654-2.423-8.747-3.544
				v25.86C42.627,112.32,46.494,110.268,48.624,106.437z"/>
		</g>
		<g>
			<path style="fill:#010002;" d="M63.881,7.387c2.13-2.339,5.126-3.526,8.974-3.568V0h2.727v3.765
				c3.813,0.269,6.737,1.384,8.771,3.359c2.041,1.975,3.109,4.594,3.204,7.834h-5.024c-0.125-1.456-0.525-2.709-1.175-3.765
				c-1.205-1.933-3.127-2.948-5.77-3.049v13.992c4.445,1.247,7.459,2.411,9.052,3.509c2.584,1.796,3.872,4.457,3.872,7.984
				c0,5.096-1.653,8.712-4.97,10.854c-1.838,1.187-4.487,1.969-7.954,2.357v5.573h-2.727V46.84
				c-5.573-0.37-9.356-2.339-11.349-5.913c-1.092-1.933-1.635-4.553-1.635-7.84h5.084c0.155,2.619,0.573,4.541,1.247,5.746
				c1.193,2.16,3.413,3.371,6.653,3.64V26.821c-4.159-0.782-7.226-2.094-9.207-3.926c-1.987-1.844-2.971-4.386-2.971-7.644
				C60.689,12.345,61.745,9.726,63.881,7.387z M67.754,19.357c1.265,1.074,2.971,1.82,5.114,2.238V8.097
				c-2.53,0.101-4.332,0.865-5.4,2.297c-1.074,1.438-1.605,2.942-1.605,4.511C65.85,16.803,66.483,18.288,67.754,19.357z
				 M82.361,39.029c0.65-1.146,0.979-2.476,0.979-3.992c0-2.387-0.877-4.213-2.643-5.46c-1.014-0.722-2.721-1.408-5.114-2.065
				v15.108C78.87,42.466,81.12,41.273,82.361,39.029z"/>
		</g>
	</g>
</g>
<g>
</g>
<g>
</g>
<g>
</g>
<g>
</g>
<g>
</g>
<g>
</g>
<g>
</g>
<g>
</g>
<g>
</g>
<g>
</g>
<g>
</g>
<g>
</g>
<g>
</g>
<g>
</g>
<g>
</g>
</svg>
