<?xml version="1.0" encoding="iso-8859-1"?>
<!-- Generator: Adobe Illustrator 18.1.1, SVG Export Plug-In . SVG Version: 6.00 Build 0)  -->
<svg version="1.1" id="Capa_1" xmlns="http://www.w3.org/2000/svg" xmlns:xlink="http://www.w3.org/1999/xlink" x="0px" y="0px"
	 viewBox="0 0 179.006 179.006" style="enable-background:new 0 0 179.006 179.006;" xml:space="preserve">
<g>
	<g>
		<path style="fill:#010002;" d="M86.764,49.447c0,4.231,0,8.455,0,12.686c10.263-1.897,20.52-0.543,30.789,7.655
			c3.789-5.376,9.237-10.078,15.323-13.044c11.444-5.663,20.723,1.522,20.723,13.181c0,11.23-9.278,22.585-20.723,28.247
			c-2.87,1.313-5.615,1.963-8.109,1.921c0,2.983,0,5.973,0,8.962c18.074-7.471,36.165-20.055,54.239-3.586
			c0-18.682,0-37.365,0-56.047C148.265,21.427,117.506,77.462,86.764,49.447z"/>
		<path style="fill:#010002;" d="M132.047,61.405c0,0.8,0,1.599,0,2.393c-2.417,1.122-4.296,2.709-5.633,4.744
			c-1.337,2.041-2.005,3.956-2.005,5.782c0,2.035,0.621,3.389,1.862,4.01c1.241,0.627,3.168,0.603,5.776-0.101
			c0,3.276,0,6.552,0,9.821c-2.035,0.758-3.419,0.615-4.165-0.418c-0.43-0.567-0.698-1.641-0.788-3.258
			c-0.776,0.34-1.545,0.662-2.321,0.985c0,1.492,0,2.983,0,4.481c0.066,0.113,0.09,0.274,0.155,0.37
			c1.247,1.736,3.616,1.939,7.113,0.573c0,1.164,0,2.333,0,3.497c0.579-0.257,1.134-0.519,1.712-0.782c0-1.164,0-2.339,0-3.497
			c2.172-1.229,3.843-2.464,4.988-3.705c2.082-2.244,3.115-4.923,3.115-8.127c0-2.208-0.806-3.562-2.429-3.992
			c-0.996-0.263-2.894-0.167-5.674,0.322c0-2.918,0-5.842,0-8.777c1.647-0.692,2.858-0.603,3.616,0.28
			c0.406,0.477,0.656,1.158,0.734,2.035c1.056-0.453,2.112-0.901,3.156-1.343c-0.066-2.011-0.722-3.377-2.011-4.075
			c-1.277-0.692-3.115-0.579-5.501,0.34c0-0.788,0-1.575,0-2.363C133.181,60.88,132.626,61.142,132.047,61.405z M132.047,74.955
			c-1.349,0.352-2.417,0.37-3.21,0.036c-0.788-0.322-1.187-1.08-1.187-2.267c0-0.985,0.34-2.076,1.002-3.276
			c0.674-1.193,1.814-2.184,3.389-2.971C132.047,69.311,132.047,72.139,132.047,74.955z M136.964,77.736
			c1.104,0.304,1.659,1.193,1.659,2.697c0,0.949-0.209,1.874-0.621,2.775c-0.782,1.748-2.202,3.127-4.248,4.159
			c0-3.151,0-6.319,0-9.475C135.257,77.617,136.331,77.569,136.964,77.736z"/>
		<path style="fill:#010002;" d="M0,77.849c0,24.321,0,48.636,0,72.957c40.026,36.475,80.057-36.47,120.083,0
			c0-24.315,0-48.63,0-72.957C80.057,41.374,40.026,114.325,0,77.849z M60.039,141.295c-14.899,7.375-26.964-1.987-26.964-17.155
			c0-14.613,12.065-29.405,26.964-36.78c14.899-7.375,26.97,1.981,26.97,17.155C87.009,119.128,74.938,133.914,60.039,141.295z"/>
		<path style="fill:#010002;" d="M68.571,110.059c-1.301-0.334-3.765-0.209-7.393,0.424c0-3.807,0-7.608,0-11.421
			c2.154-0.901,3.729-0.782,4.72,0.364c0.531,0.621,0.853,1.51,0.961,2.649c1.366-0.603,2.739-1.181,4.105-1.748
			c-0.084-2.613-0.949-4.392-2.613-5.305c-1.665-0.901-4.057-0.752-7.166,0.442c0-1.02,0-2.047,0-3.079
			c-0.746,0.346-1.486,0.68-2.232,1.02c0,1.038,0,2.076,0,3.109c-3.139,1.468-5.591,3.52-7.333,6.182
			c-1.742,2.655-2.613,5.143-2.613,7.524c0,2.655,0.806,4.415,2.429,5.221s4.123,0.77,7.518-0.125c0,4.26,0,8.521,0,12.787
			c-2.643,0.985-4.457,0.8-5.43-0.543c-0.555-0.734-0.895-2.154-1.014-4.248c-1.384,0.603-2.769,1.187-4.153,1.742
			c0,2.697,0.442,4.648,1.331,5.859c1.629,2.25,4.72,2.536,9.267,0.746c0,1.522,0,3.037,0,4.559c0.746-0.346,1.486-0.68,2.232-1.014
			c0-1.516,0-3.037,0-4.559c2.834-1.605,4.994-3.21,6.498-4.827c2.709-2.924,4.057-6.408,4.057-10.567
			C71.728,112.392,70.678,110.631,68.571,110.059z M58.947,111.061c-1.748,0.448-3.139,0.459-4.177,0.054
			c-1.032-0.418-1.545-1.408-1.545-2.954c0-1.283,0.436-2.703,1.313-4.26c0.877-1.569,2.351-2.858,4.41-3.861
			C58.947,103.71,58.947,107.385,58.947,111.061z M66.716,121.801c-1.014,2.273-2.864,4.075-5.537,5.412c0-4.105,0-8.228,0-12.334
			c1.951-0.358,3.347-0.418,4.177-0.191c1.438,0.376,2.16,1.551,2.16,3.509C67.515,119.421,67.247,120.632,66.716,121.801z"/>
		<path style="fill:#010002;" d="M80.314,54.411c0-10.699,0-21.403,0-32.108c-17.62-16.051-35.234,16.045-52.849,0
			c0,10.699,0,21.403,0,32.108C45.08,70.468,62.694,38.361,80.314,54.411z M53.887,26.481c6.558-3.246,11.868,0.871,11.868,7.56
			c0,6.432-5.316,12.942-11.868,16.188c-6.552,3.246-11.868-0.871-11.868-7.56C42.019,36.248,47.335,29.727,53.887,26.481z"/>
		<path style="fill:#010002;" d="M51.017,44.19c-0.245-0.34-0.394-0.955-0.448-1.874c-0.609,0.263-1.217,0.519-1.826,0.764
			c0,1.187,0.197,2.047,0.585,2.584c0.722,0.991,2.076,1.122,4.081,0.334c0,0.662,0,1.337,0,2.005
			c0.328-0.149,0.65-0.298,0.979-0.448c0-0.668,0-1.337,0-2.005c1.247-0.704,2.202-1.414,2.858-2.124
			c1.193-1.283,1.784-2.822,1.784-4.648c0-1.265-0.465-2.041-1.39-2.285c-0.573-0.155-1.653-0.101-3.252,0.179
			c0-1.671,0-3.353,0-5.03c0.949-0.394,1.641-0.346,2.076,0.161c0.239,0.274,0.376,0.662,0.424,1.158
			c0.603-0.263,1.205-0.519,1.808-0.77c-0.036-1.146-0.418-1.927-1.152-2.333c-0.734-0.394-1.784-0.328-3.156,0.197
			c0-0.453,0-0.901,0-1.36c-0.328,0.149-0.65,0.298-0.979,0.448c0,0.453,0,0.913,0,1.366c-1.384,0.638-2.464,1.551-3.234,2.715
			c-0.764,1.17-1.146,2.273-1.146,3.318c0,1.164,0.358,1.945,1.068,2.297c0.716,0.358,1.82,0.346,3.312-0.06
			c0,1.868,0,3.753,0,5.621C52.246,44.864,51.446,44.775,51.017,44.19z M54.388,38.605c0.859-0.161,1.474-0.191,1.838-0.09
			c0.632,0.161,0.955,0.674,0.955,1.545c0,0.543-0.119,1.074-0.352,1.587c-0.453,1.008-1.265,1.802-2.44,2.387
			C54.388,42.221,54.388,40.407,54.388,38.605z M51.572,36.94c-0.453-0.179-0.68-0.621-0.68-1.301c0-0.567,0.191-1.193,0.573-1.874
			c0.388-0.686,1.038-1.253,1.945-1.701c0,1.617,0,3.234,0,4.845C52.64,37.119,52.025,37.131,51.572,36.94z"/>
	</g>
</g>
<g>
</g>
<g>
</g>
<g>
</g>
<g>
</g>
<g>
</g>
<g>
</g>
<g>
</g>
<g>
</g>
<g>
</g>
<g>
</g>
<g>
</g>
<g>
</g>
<g>
</g>
<g>
</g>
<g>
</g>
</svg>
