<?xml version="1.0" encoding="iso-8859-1"?>
<!-- Generator: Adobe Illustrator 16.0.0, SVG Export Plug-In . SVG Version: 6.00 Build 0)  -->
<!DOCTYPE svg PUBLIC "-//W3C//DTD SVG 1.1//EN" "http://www.w3.org/Graphics/SVG/1.1/DTD/svg11.dtd">
<svg version="1.1" id="Capa_1" xmlns="http://www.w3.org/2000/svg" xmlns:xlink="http://www.w3.org/1999/xlink" x="0px" y="0px"
	 width="79.676px" height="79.675px" viewBox="0 0 79.676 79.675" style="enable-background:new 0 0 79.676 79.675;"
	 xml:space="preserve">
<g>
	<g>
		<g>
			<path d="M37.74,36.555c0.376-0.413,0.907-0.623,1.585-0.629V35.25h0.483v0.663c0.673,0.049,1.192,0.245,1.551,0.596
				c0.36,0.351,0.548,0.812,0.565,1.385h-0.887c-0.026-0.256-0.094-0.479-0.211-0.666c-0.215-0.341-0.551-0.52-1.021-0.537v2.474
				c0.786,0.22,1.315,0.426,1.6,0.619c0.456,0.318,0.684,0.788,0.684,1.411c0,0.901-0.291,1.542-0.875,1.918
				c-0.324,0.213-0.794,0.348-1.407,0.418v0.985h-0.483v-0.985c-0.985-0.066-1.653-0.413-2.004-1.047
				c-0.194-0.343-0.292-0.803-0.292-1.385h0.902c0.027,0.465,0.1,0.803,0.221,1.015c0.211,0.384,0.604,0.598,1.176,0.646v-2.767
				c-0.737-0.139-1.278-0.372-1.628-0.697c-0.348-0.325-0.526-0.775-0.526-1.351C37.17,37.431,37.359,36.967,37.74,36.555z
				 M38.422,38.672c0.225,0.189,0.526,0.323,0.903,0.395V36.68c-0.446,0.017-0.765,0.154-0.955,0.407
				c-0.189,0.252-0.285,0.518-0.285,0.796C38.083,38.219,38.195,38.483,38.422,38.672z M41.004,42.148
				c0.116-0.203,0.175-0.439,0.175-0.704c0-0.427-0.157-0.746-0.467-0.968c-0.183-0.132-0.482-0.253-0.905-0.367v2.669
				C40.384,42.757,40.783,42.545,41.004,42.148z"/>
		</g>
		<path d="M52.396,9.472H37.388h-7.041H16.957c-1.371,0-2.49,1.023-2.49,2.273c0,1.249,1.119,2.272,2.49,2.272h10.896v1.654H7.863
			c-1.371,0-2.494,1.023-2.494,2.273s1.121,2.275,2.494,2.275h19.99v1.654H2.496C1.121,21.873,0,22.896,0,24.148
			c0,1.249,1.121,2.272,2.496,2.272h25.357v1.654H6.831c-1.371,0-2.493,1.023-2.493,2.273s1.119,2.273,2.493,2.273h23.517h7.041
			h12.997v9.284c0,1.374,1.013,2.496,2.253,2.496c1.236,0,2.252-1.122,2.252-2.496V30.127V20.063v-8.092
			C54.89,10.593,53.765,9.472,52.396,9.472z"/>
		<path d="M27.276,70.204h15.006h7.044h13.39c1.368,0,2.493-1.022,2.493-2.272s-1.125-2.278-2.493-2.278H51.816v-1.654h19.994
			c1.371,0,2.493-1.021,2.493-2.271s-1.122-2.276-2.493-2.276H51.816v-1.656H77.18c1.371,0,2.496-1.022,2.496-2.274
			c0-1.248-1.12-2.272-2.496-2.272H51.816v-1.653h21.022c1.373,0,2.496-1.021,2.496-2.271c0-1.251-1.123-2.277-2.496-2.277H49.326
			h-7.044H29.289v-9.285c0-1.371-1.016-2.495-2.254-2.495c-1.238,0-2.251,1.122-2.251,2.495v11.776v10.066v8.094
			C24.784,69.081,25.905,70.204,27.276,70.204z"/>
	</g>
</g>
<g>
</g>
<g>
</g>
<g>
</g>
<g>
</g>
<g>
</g>
<g>
</g>
<g>
</g>
<g>
</g>
<g>
</g>
<g>
</g>
<g>
</g>
<g>
</g>
<g>
</g>
<g>
</g>
<g>
</g>
</svg>
