<?xml version="1.0" encoding="iso-8859-1"?>
<!-- Generator: Adobe Illustrator 18.1.1, SVG Export Plug-In . SVG Version: 6.00 Build 0)  -->
<svg version="1.1" id="Capa_1" xmlns="http://www.w3.org/2000/svg" xmlns:xlink="http://www.w3.org/1999/xlink" x="0px" y="0px"
	 viewBox="0 0 179.006 179.006" style="enable-background:new 0 0 179.006 179.006;" xml:space="preserve">
<g>
	<g>
		<g>
			<path style="fill:#010002;" d="M66.304,58.27c-1.068,0.453-2.124,0.907-3.186,1.343c0,1.211,0.143,2.166,0.376,2.995l3.437-1.42
				C66.62,60.549,66.393,59.642,66.304,58.27z"/>
			<path style="fill:#010002;" d="M25.962,23.31c0,18.253,0,36.481,0,54.734l27.167-11.176c-1.122-2.273-1.742-4.97-1.742-7.978
				c0-11.242,9.278-22.603,20.729-28.265s20.729,1.528,20.729,13.181c0,5.746-2.434,11.516-6.337,16.534v13.121
				c10.573-3.413,21.17-3.729,31.756,5.919c0-18.7,0-37.388,0-56.071C87.486-4.722,56.721,51.343,25.962,23.31z"/>
			<path style="fill:#010002;" d="M71.262,35.274c0,0.8,0,1.599,0,2.399c-2.417,1.122-4.302,2.703-5.633,4.744
				c-1.343,2.041-2.011,3.962-2.011,5.788c0,2.047,0.621,3.395,1.862,4.016c1.247,0.621,3.174,0.597,5.788-0.107
				c0,2.423,0,4.851,0,7.286l1.712-0.698c0-2.315,0-4.612,0-6.934c1.504-0.274,2.572-0.322,3.204-0.137
				c1.11,0.298,1.653,1.187,1.653,2.691c0,0.883-0.191,1.76-0.549,2.608l2.966-1.217c0.107-0.042,0.197-0.06,0.292-0.095
				c0.334-1.116,0.537-2.273,0.537-3.544c0-2.214-0.811-3.562-2.429-3.998c-1.002-0.257-2.888-0.161-5.674,0.34
				c0-2.93,0-5.854,0-8.789c1.653-0.698,2.858-0.609,3.616,0.28c0.406,0.477,0.65,1.152,0.734,2.041
				c1.056-0.459,2.112-0.907,3.162-1.354c-0.072-2.011-0.734-3.377-2.011-4.075c-1.289-0.692-3.121-0.579-5.519,0.34
				c0-0.788,0-1.575,0-2.357C72.408,34.755,71.835,35.017,71.262,35.274z M71.262,48.842c-1.354,0.352-2.417,0.364-3.21,0.036
				c-0.794-0.316-1.187-1.08-1.187-2.261c0-0.991,0.34-2.082,1.008-3.276c0.674-1.199,1.808-2.19,3.389-2.971
				C71.262,43.186,71.262,46.014,71.262,48.842z"/>
		</g>
		<g>
			<path style="fill:#010002;" d="M89.825,90.3H86.86v37.884c0,3.425-2.787,7.369-6.223,8.795L15.49,163.788h74.335
				c3.437,0,6.223-2.798,6.223-6.235V96.53C96.049,93.093,93.262,90.3,89.825,90.3z"/>
			<path style="fill:#010002;" d="M77.569,60.43L6.223,89.793C2.787,91.207,0,95.139,0,98.576v61.029
				c0,3.431,2.787,5.09,6.223,3.664l71.346-29.357c3.443-1.414,6.223-5.358,6.223-8.807V64.094
				C83.793,60.663,81.012,59.016,77.569,60.43z M71.143,102.95c-2.518,0.841-4.553-0.525-4.553-3.043
				c0-2.518,2.035-5.233,4.553-6.074c2.518-0.841,4.553,0.525,4.553,3.055C75.696,99.406,73.661,102.115,71.143,102.95z"/>
		</g>
		<g>
			<path style="fill:#010002;" d="M103.621,86.189c0,12.107,0,24.202,0,36.302c19.911,18.145,39.829-18.145,59.746,0
				c0-12.101,0-24.196,0-36.302C143.45,68.044,123.532,104.346,103.621,86.189z M133.497,117.76
				c-7.411,3.67-13.419-0.991-13.419-8.533c0-7.286,6.009-14.637,13.419-18.3c7.411-3.67,13.414,0.985,13.414,8.533
				C146.91,106.739,140.908,114.09,133.497,117.76z"/>
			<path style="fill:#010002;" d="M137.733,102.228c-0.638-0.161-1.868-0.113-3.676,0.209c0-1.886,0-3.795,0-5.68
				c1.086-0.448,1.862-0.388,2.357,0.173c0.263,0.31,0.418,0.752,0.477,1.325c0.674-0.304,1.366-0.597,2.047-0.871
				c-0.042-1.295-0.471-2.178-1.301-2.625c-0.841-0.448-2.029-0.376-3.58,0.215c0-0.507,0-1.02,0-1.528
				c-0.37,0.173-0.734,0.34-1.11,0.507c0,0.519,0,1.032,0,1.551c-1.569,0.734-2.781,1.754-3.646,3.085
				c-0.865,1.319-1.301,2.566-1.301,3.741c0,1.331,0.394,2.202,1.205,2.608c0.806,0.388,2.053,0.376,3.741-0.072
				c0,2.112,0,4.242,0,6.355c-1.319,0.489-2.214,0.394-2.697-0.269c-0.28-0.37-0.448-1.074-0.513-2.112
				c-0.68,0.298-1.366,0.591-2.065,0.865c0,1.343,0.215,2.321,0.656,2.924c0.811,1.122,2.351,1.259,4.606,0.37
				c0,0.758,0,1.504,0,2.261c0.37-0.161,0.74-0.34,1.11-0.501c0-0.758,0-1.516,0-2.273c1.408-0.8,2.488-1.599,3.234-2.387
				c1.354-1.456,2.023-3.192,2.023-5.269C139.314,103.38,138.789,102.508,137.733,102.228z M132.948,102.717
				c-0.871,0.227-1.569,0.233-2.082,0.024c-0.513-0.197-0.77-0.686-0.77-1.456c0-0.638,0.215-1.349,0.65-2.118
				s1.164-1.414,2.19-1.921C132.948,99.072,132.948,100.891,132.948,102.717z M136.814,108.064
				c-0.507,1.122-1.414,2.023-2.757,2.691c0-2.053,0-4.099,0-6.14c0.973-0.179,1.665-0.209,2.094-0.107
				c0.704,0.191,1.074,0.782,1.074,1.748C137.214,106.876,137.083,107.485,136.814,108.064z"/>
		</g>
		<g>
			<path style="fill:#010002;" d="M141.272,37.601c0,7.644,0,15.287,0,22.931c12.578,11.468,25.156-11.456,37.734,0
				c0-7.644,0-15.287,0-22.931C166.428,26.132,153.85,49.075,141.272,37.601z M160.139,57.536c-4.678,2.333-8.479-0.621-8.479-5.376
				c0-4.6,3.801-9.249,8.479-11.564c4.684-2.321,8.479,0.621,8.479,5.388C168.618,50.579,164.823,55.221,160.139,57.536z"/>
			<path style="fill:#010002;" d="M162.818,47.727c-0.406-0.113-1.181-0.078-2.333,0.131c0-1.199,0-2.393,0-3.598
				c0.68-0.286,1.17-0.251,1.486,0.113c0.161,0.197,0.274,0.477,0.304,0.841c0.424-0.191,0.871-0.37,1.295-0.561
				c-0.024-0.817-0.298-1.372-0.823-1.653c-0.531-0.286-1.289-0.239-2.261,0.125c0-0.322,0-0.632,0-0.955
				c-0.227,0.107-0.459,0.209-0.692,0.316c0,0.334,0,0.65,0,0.985c-0.991,0.459-1.754,1.116-2.315,1.939
				c-0.549,0.835-0.817,1.617-0.817,2.363c0,0.847,0.251,1.384,0.764,1.641c0.507,0.251,1.295,0.239,2.363-0.054
				c0,1.349,0,2.679,0,4.028c-0.829,0.31-1.39,0.251-1.701-0.167c-0.173-0.239-0.28-0.674-0.322-1.343
				c-0.43,0.185-0.871,0.37-1.307,0.549c0,0.853,0.131,1.468,0.412,1.856c0.507,0.704,1.48,0.794,2.912,0.233
				c0,0.471,0,0.949,0,1.426c0.233-0.113,0.465-0.209,0.698-0.322c0-0.477,0-0.955,0-1.426c0.883-0.507,1.575-1.008,2.047-1.522
				c0.853-0.919,1.277-2.011,1.277-3.324C163.814,48.455,163.48,47.894,162.818,47.727z M159.793,48.037
				c-0.555,0.137-0.99,0.143-1.319,0.024c-0.328-0.125-0.489-0.442-0.489-0.931c0-0.394,0.137-0.853,0.412-1.349
				c0.28-0.489,0.74-0.889,1.384-1.205C159.793,45.728,159.793,46.879,159.793,48.037z M162.233,51.414
				c-0.334,0.71-0.901,1.277-1.742,1.689c0-1.283,0-2.584,0-3.873c0.615-0.113,1.056-0.125,1.319-0.06
				c0.448,0.125,0.674,0.489,0.674,1.11C162.484,50.662,162.406,51.044,162.233,51.414z"/>
		</g>
	</g>
</g>
<g>
</g>
<g>
</g>
<g>
</g>
<g>
</g>
<g>
</g>
<g>
</g>
<g>
</g>
<g>
</g>
<g>
</g>
<g>
</g>
<g>
</g>
<g>
</g>
<g>
</g>
<g>
</g>
<g>
</g>
</svg>
