<?xml version="1.0" encoding="iso-8859-1"?>
<!-- Generator: Adobe Illustrator 16.0.0, SVG Export Plug-In . SVG Version: 6.00 Build 0)  -->
<!DOCTYPE svg PUBLIC "-//W3C//DTD SVG 1.1//EN" "http://www.w3.org/Graphics/SVG/1.1/DTD/svg11.dtd">
<svg version="1.1" id="Capa_1" xmlns="http://www.w3.org/2000/svg" xmlns:xlink="http://www.w3.org/1999/xlink" x="0px" y="0px"
	 width="70.075px" height="70.075px" viewBox="0 0 70.075 70.075" style="enable-background:new 0 0 70.075 70.075;"
	 xml:space="preserve">
<g>
	<g>
		<g>
			<path d="M23.469,20.436c1.19-1.308,2.859-1.964,5.003-1.988v-2.13h1.521v2.093c2.126,0.145,3.755,0.775,4.894,1.876
				c1.13,1.107,1.728,2.563,1.785,4.371h-2.804c-0.072-0.811-0.292-1.509-0.651-2.095c-0.675-1.077-1.743-1.642-3.222-1.7v7.801
				c2.479,0.693,4.156,1.346,5.043,1.952c1.441,1.005,2.16,2.488,2.16,4.454c0,2.838-0.925,4.856-2.77,6.054
				c-1.024,0.666-2.504,1.098-4.434,1.312v3.109h-1.518v-3.109c-3.107-0.203-5.211-1.307-6.323-3.301
				c-0.611-1.076-0.918-2.534-0.918-4.37h2.834c0.083,1.462,0.319,2.532,0.698,3.202c0.666,1.214,1.899,1.889,3.709,2.035v-8.724
				c-2.316-0.439-4.032-1.172-5.134-2.195c-1.103-1.023-1.656-2.444-1.656-4.256C21.681,23.204,22.276,21.74,23.469,20.436z
				 M25.626,27.112c0.703,0.598,1.652,1.012,2.847,1.246v-7.526c-1.408,0.049-2.41,0.481-3.006,1.279
				c-0.602,0.804-0.903,1.638-0.903,2.512C24.563,25.687,24.918,26.517,25.626,27.112z M33.773,38.085
				c0.361-0.642,0.542-1.39,0.542-2.227c0-1.334-0.493-2.354-1.474-3.045c-0.566-0.406-1.516-0.79-2.853-1.151v8.422
				C31.818,39.996,33.077,39.33,33.773,38.085z"/>
		</g>
		<g>
			<path d="M9.198,14.536c0.715-0.788,1.717-1.183,3.011-1.196v-1.28h0.918v1.259c1.28,0.091,2.261,0.466,2.945,1.128
				c0.685,0.665,1.042,1.541,1.077,2.632h-1.686c-0.049-0.488-0.176-0.911-0.397-1.264c-0.407-0.649-1.049-0.99-1.939-1.023v4.702
				c1.492,0.415,2.503,0.803,3.036,1.173c0.872,0.602,1.308,1.504,1.308,2.681c0,1.705-0.56,2.924-1.669,3.646
				c-0.617,0.397-1.509,0.66-2.675,0.789v1.876h-0.918v-1.876C10.335,27.66,9.067,27,8.399,25.797
				c-0.365-0.649-0.547-1.525-0.547-2.632h1.705c0.049,0.88,0.189,1.52,0.421,1.927c0.401,0.729,1.139,1.13,2.231,1.222v-5.251
				c-1.399-0.265-2.427-0.711-3.089-1.324c-0.665-0.619-0.999-1.473-0.999-2.563C8.121,16.201,8.478,15.321,9.198,14.536z
				 M10.492,18.553c0.422,0.36,1,0.612,1.714,0.752v-4.526c-0.849,0.029-1.455,0.287-1.812,0.769
				c-0.36,0.482-0.535,0.988-0.535,1.508C9.859,17.701,10.069,18.198,10.492,18.553z M15.402,25.159
				c0.219-0.388,0.329-0.829,0.329-1.335c0-0.809-0.297-1.417-0.89-1.834c-0.341-0.243-0.914-0.475-1.714-0.694v5.076
				C14.222,26.32,14.981,25.913,15.402,25.159z"/>
		</g>
		<g>
			<path d="M22.267,1.694c0.491-0.535,1.177-0.809,2.062-0.815V0h0.626v0.865c0.88,0.056,1.546,0.317,2.013,0.771
				c0.467,0.453,0.715,1.05,0.731,1.801h-1.146c-0.035-0.336-0.126-0.624-0.271-0.862c-0.278-0.446-0.722-0.68-1.326-0.704v3.216
				c1.023,0.285,1.712,0.552,2.082,0.804c0.593,0.416,0.892,1.023,0.892,1.834c0,1.168-0.383,1.999-1.139,2.49
				c-0.421,0.276-1.033,0.45-1.827,0.542v1.282h-0.628v-1.282c-1.28-0.082-2.151-0.535-2.606-1.359
				c-0.25-0.444-0.374-1.043-0.374-1.801h1.168c0.032,0.604,0.133,1.042,0.283,1.319c0.275,0.493,0.785,0.776,1.53,0.834V6.154
				c-0.956-0.177-1.661-0.483-2.116-0.905c-0.454-0.423-0.678-1.007-0.678-1.757C21.534,2.833,21.773,2.231,22.267,1.694z
				 M23.155,4.442c0.29,0.245,0.682,0.419,1.174,0.519V1.859c-0.583,0.026-1,0.201-1.243,0.532
				c-0.243,0.332-0.366,0.671-0.366,1.032C22.72,3.858,22.863,4.2,23.155,4.442z M26.516,8.965C26.661,8.706,26.74,8.4,26.74,8.052
				c0-0.552-0.202-0.972-0.608-1.257c-0.236-0.167-0.628-0.327-1.177-0.475v3.468C25.707,9.754,26.229,9.481,26.516,8.965z"/>
		</g>
		<g>
			<path d="M59.309,35.599h-1.396v17.77c0,1.608-1.307,3.46-2.92,4.129L24.423,70.074h34.886c1.605,0,2.915-1.309,2.915-2.922
				V38.521C62.224,36.91,60.914,35.599,59.309,35.599z"/>
			<path d="M53.551,21.583L20.079,35.354c-1.615,0.664-2.92,2.512-2.92,4.126v28.637c0,1.606,1.305,2.386,2.92,1.72l33.472-13.779
				c1.615-0.664,2.925-2.512,2.925-4.122V23.305C56.476,21.691,55.166,20.92,53.551,21.583z M50.54,41.534
				c-1.182,0.392-2.135-0.247-2.135-1.429s0.953-2.454,2.135-2.847c1.182-0.39,2.135,0.247,2.135,1.429S51.722,41.142,50.54,41.534z
				"/>
		</g>
	</g>
</g>
<g>
</g>
<g>
</g>
<g>
</g>
<g>
</g>
<g>
</g>
<g>
</g>
<g>
</g>
<g>
</g>
<g>
</g>
<g>
</g>
<g>
</g>
<g>
</g>
<g>
</g>
<g>
</g>
<g>
</g>
</svg>
