<?xml version="1.0" encoding="iso-8859-1"?>
<!-- Generator: Adobe Illustrator 18.1.1, SVG Export Plug-In . SVG Version: 6.00 Build 0)  -->
<svg version="1.1" id="Capa_1" xmlns="http://www.w3.org/2000/svg" xmlns:xlink="http://www.w3.org/1999/xlink" x="0px" y="0px"
	 viewBox="0 0 184.973 184.973" style="enable-background:new 0 0 184.973 184.973;" xml:space="preserve">
<g>
	<g>
		<g>
			<path style="fill:#010002;" d="M184.973,149.848c-61.656-57.36-123.317,57.36-184.973,0C0,111.606,0,73.37,0,35.123
				c61.656,57.36,123.317-57.354,184.973,0C184.973,73.37,184.973,111.606,184.973,149.848z M5.967,148.905
				c57.682,43.612,115.357-53.654,173.039-10.048c0-34.262,0-68.524,0-102.791C121.324-7.552,63.649,89.72,5.967,46.12
				C5.967,80.382,5.967,114.643,5.967,148.905z"/>
		</g>
		<g>
			<g>
				<path style="fill:#010002;" d="M92.486,52.421c-22.131,11.11-40.073,33.474-40.073,55.205c0,22.525,17.942,36.052,40.073,24.936
					c22.131-11.11,40.073-33.474,40.073-55.205C132.56,54.825,114.618,41.299,92.486,52.421z M92.486,127.669
					c-19.434,9.589-35.181-1.48-35.181-21.188c0-19.16,15.759-39.584,35.181-49.179c19.428-9.595,35.181,1.48,35.181,21.188
					C127.667,97.65,111.921,118.074,92.486,127.669z"/>
			</g>
			<g>
				<path style="fill:#010002;" d="M73.965,122.531c2.751-3.043,4.964-6.128,6.629-9.189c1.677-3.073,2.518-5.967,2.518-8.688
					c0-0.782-0.149-1.617-0.477-2.518c-0.185-0.573-0.513-1.331-0.979-2.261c-2.679,1.199-5.364,2.363-8.061,3.449
					c0-1.271,0-2.53,0-3.801c1.903-0.776,3.819-1.587,5.722-2.411c0,0.125-0.4-0.459-1.217-1.742
					c-0.817-1.295-1.366-2.25-1.617-2.888c-0.245-0.609-0.448-1.343-0.621-2.202c-0.167-0.865-0.257-1.832-0.257-2.9
					c0-3.789,1.545-7.823,4.63-12.178c3.085-4.35,7.506-7.87,13.264-10.567c5.418-2.53,9.523-2.906,12.304-1.146
					c2.781,1.76,4.207,5.358,4.29,10.746c-2.25,0.931-4.499,1.909-6.749,2.912c0-3.67-0.865-6.08-2.578-7.214
					c-1.712-1.122-4.32-0.871-7.823,0.746c-3.401,1.587-5.973,3.664-7.727,6.259c-1.748,2.59-2.619,5.132-2.619,7.691
					c0,1.259,0.269,2.44,0.829,3.532c0.549,1.092,1.701,2.948,3.473,5.561c3.986-1.844,7.972-3.711,11.958-5.549
					c0,1.271,0,2.536,0,3.801c-3.431,1.581-6.868,3.18-10.317,4.773c0.239,1.008,0.418,1.808,0.537,2.375
					c0.107,0.585,0.155,1.211,0.155,1.886c0,2.429-0.728,5.167-2.19,8.216c-1.456,3.043-3.741,6.444-6.844,10.138
					c1.677-1.587,3.335-3.007,4.952-4.248c1.623-1.235,3.216-2.226,4.779-2.942c1.748-0.817,4.069-1.468,6.945-1.933
					c2.87-0.465,4.768-0.877,5.663-1.289c1.134-0.513,2.184-1.193,3.127-2.047c0.591-0.519,1.474-1.468,2.661-2.822
					c1.008,1.211,2.017,2.423,3.025,3.658c-1.366,1.641-2.584,2.971-3.64,3.962c-1.778,1.611-3.658,2.858-5.651,3.753
					c-1.456,0.65-3.896,1.223-7.339,1.695c-3.431,0.477-6.146,1.181-8.139,2.106c-1.85,0.853-3.604,1.957-5.251,3.33
					c-0.967,0.823-2.22,2.029-3.753,3.604C76.382,124.978,75.183,123.761,73.965,122.531z"/>
			</g>
		</g>
	</g>
</g>
<g>
</g>
<g>
</g>
<g>
</g>
<g>
</g>
<g>
</g>
<g>
</g>
<g>
</g>
<g>
</g>
<g>
</g>
<g>
</g>
<g>
</g>
<g>
</g>
<g>
</g>
<g>
</g>
<g>
</g>
</svg>
