<?xml version="1.0" encoding="iso-8859-1"?>
<!-- Generator: Adobe Illustrator 18.1.1, SVG Export Plug-In . SVG Version: 6.00 Build 0)  -->
<svg version="1.1" id="Capa_1" xmlns="http://www.w3.org/2000/svg" xmlns:xlink="http://www.w3.org/1999/xlink" x="0px" y="0px"
	 viewBox="0 0 179.006 179.006" style="enable-background:new 0 0 179.006 179.006;" xml:space="preserve">
<g>
	<g>
		<path style="fill:#010002;" d="M0,35.125c0,36.255,0,72.503,0,108.764c59.669,54.37,119.337-54.382,179.006,0
			c0-36.255,0-72.509,0-108.764C119.337-19.263,59.669,89.501,0,35.125z M89.503,129.7c-22.215,10.997-40.199-2.954-40.199-25.58
			c0-21.791,17.99-43.845,40.199-54.836c22.215-10.991,40.193,2.96,40.193,25.586C129.696,96.661,111.718,118.715,89.503,129.7z"/>
		<path style="fill:#010002;" d="M102.744,104.09c-0.955,0.847-2.005,1.528-3.145,2.029c-0.901,0.394-2.787,0.788-5.68,1.241
			c-2.882,0.436-5.215,1.074-6.963,1.862c-1.563,0.71-3.151,1.683-4.791,2.912c-1.635,1.229-3.294,2.625-4.97,4.213
			c3.121-3.682,5.406-7.083,6.874-10.108c1.456-3.031,2.184-5.776,2.184-8.21c0-0.68-0.054-1.319-0.161-1.903
			c-0.107-0.585-0.28-1.378-0.525-2.387c3.449-1.563,6.898-3.151,10.347-4.702c0-1.265,0-2.536,0-3.801
			c-3.998,1.79-7.996,3.64-11.993,5.442c-1.79-2.631-2.948-4.505-3.491-5.609c-0.549-1.098-0.829-2.279-0.829-3.55
			c0-2.56,0.877-5.114,2.631-7.697c1.748-2.572,4.338-4.636,7.745-6.194c3.52-1.605,6.128-1.826,7.84-0.674
			c1.712,1.152,2.584,3.574,2.584,7.256c2.255-0.985,4.517-1.939,6.778-2.846c-0.084-5.4-1.522-9.04-4.314-10.83
			c-2.787-1.79-6.892-1.456-12.334,1.026c-5.776,2.637-10.221,6.146-13.306,10.478c-3.097,4.338-4.642,8.36-4.642,12.166
			c0,1.074,0.084,2.041,0.257,2.912c0.173,0.865,0.376,1.605,0.621,2.214c0.269,0.644,0.811,1.623,1.629,2.924
			c0.817,1.301,1.223,1.886,1.223,1.766c-1.909,0.817-3.825,1.605-5.734,2.357c0,1.271,0,2.542,0,3.807
			c2.697-1.068,5.388-2.196,8.079-3.365c0.453,0.949,0.776,1.707,0.979,2.279c0.322,0.907,0.471,1.754,0.471,2.542
			c0,2.733-0.835,5.627-2.518,8.682c-1.689,3.061-3.902,6.128-6.653,9.141c1.211,1.253,2.417,2.488,3.622,3.717
			c1.539-1.563,2.787-2.763,3.759-3.58c1.653-1.36,3.419-2.452,5.263-3.276c2.005-0.901,4.732-1.593,8.175-2.041
			c3.449-0.442,5.913-0.991,7.369-1.617c2.005-0.883,3.89-2.118,5.663-3.705c1.068-0.985,2.297-2.297,3.646-3.932
			c-1.008-1.247-2.017-2.488-3.031-3.717C104.229,102.634,103.31,103.571,102.744,104.09z"/>
	</g>
</g>
<g>
</g>
<g>
</g>
<g>
</g>
<g>
</g>
<g>
</g>
<g>
</g>
<g>
</g>
<g>
</g>
<g>
</g>
<g>
</g>
<g>
</g>
<g>
</g>
<g>
</g>
<g>
</g>
<g>
</g>
</svg>
