<?xml version="1.0" encoding="iso-8859-1"?>
<!-- Generator: Adobe Illustrator 18.1.1, SVG Export Plug-In . SVG Version: 6.00 Build 0)  -->
<svg version="1.1" id="Capa_1" xmlns="http://www.w3.org/2000/svg" xmlns:xlink="http://www.w3.org/1999/xlink" x="0px" y="0px"
	 viewBox="0 0 179.006 179.006" style="enable-background:new 0 0 179.006 179.006;" xml:space="preserve">
<g>
	<g>
		<path style="fill:#010002;" d="M103.824,55.639c-4.791,10.824-9.571,21.821-14.362,32.812
			c-4.768-6.635-9.535-13.276-14.297-20.084c-2.906,1.223-5.806,2.381-8.712,3.443c3.419,4.571,6.838,9.004,10.263,13.36
			c-2.333,0.996-4.66,1.957-6.993,2.864c0,1.76,0,3.52,0,5.287c3.359-1.307,6.725-2.733,10.084-4.207
			c1.677,2.112,3.347,4.207,5.024,6.301c-4.421,1.999-8.843,3.944-13.264,5.716c0,1.76,0,3.52,0,5.281
			c4.732-1.891,9.463-3.998,14.195-6.14c0,6.146,0,12.298,0,18.438c2.47-1.122,4.941-2.25,7.399-3.359c0-6.146,0-12.298,0-18.438
			c4.869-2.208,9.738-4.368,14.601-6.313c0-1.76,0-3.52,0-5.281c-4.559,1.814-9.099,3.825-13.658,5.877
			c1.677-3.604,3.353-7.202,5.024-10.782c3.312-1.456,6.617-2.858,9.929-4.147c0-1.76,0-3.526,0-5.287
			c-2.273,0.883-4.535,1.82-6.808,2.792c3.437-7.292,6.868-14.499,10.305-21.576C109.647,53.246,106.741,54.416,103.824,55.639z"/>
		<path style="fill:#010002;" d="M0,35.125c0,36.255,0,72.503,0,108.764c59.669,54.37,119.337-54.382,179.006,0
			c0-36.255,0-72.509,0-108.764C119.337-19.263,59.669,89.501,0,35.125z M89.503,129.7c-22.215,10.997-40.199-2.954-40.199-25.58
			c0-21.791,17.99-43.845,40.199-54.836c22.215-10.991,40.193,2.96,40.193,25.586C129.696,96.661,111.718,118.715,89.503,129.7z"/>
	</g>
</g>
<g>
</g>
<g>
</g>
<g>
</g>
<g>
</g>
<g>
</g>
<g>
</g>
<g>
</g>
<g>
</g>
<g>
</g>
<g>
</g>
<g>
</g>
<g>
</g>
<g>
</g>
<g>
</g>
<g>
</g>
</svg>
