<?xml version="1.0" encoding="iso-8859-1"?>
<!-- Generator: Adobe Illustrator 18.1.1, SVG Export Plug-In . SVG Version: 6.00 Build 0)  -->
<svg version="1.1" id="Capa_1" xmlns="http://www.w3.org/2000/svg" xmlns:xlink="http://www.w3.org/1999/xlink" x="0px" y="0px"
	 viewBox="0 0 184.973 184.973" style="enable-background:new 0 0 184.973 184.973;" xml:space="preserve">
<g>
	<g>
		<g>
			<path style="fill:#010002;" d="M184.973,149.846H0V35.127h184.973V149.846z M5.967,143.879h173.039V41.094H5.967V143.879z"/>
		</g>
		<g>
			<g>
				<path style="fill:#010002;" d="M92.486,52.413c-22.131,0-40.073,17.942-40.073,40.073s17.942,40.074,40.073,40.074
					s40.073-17.942,40.073-40.074S114.618,52.413,92.486,52.413z M92.486,127.667c-19.434,0-35.187-15.759-35.187-35.181
					s15.759-35.181,35.187-35.181s35.181,15.759,35.181,35.181S111.921,127.667,92.486,127.667z"/>
			</g>
			<g>
				<path style="fill:#010002;" d="M79.037,68.315l13.414,24.774l13.479-24.774h8.181l-9.66,16.373h6.373v4.953h-9.308l-4.72,8.008
					h12.805v4.952H95.906v17.286h-6.939V102.6H75.648v-4.952h12.441l-4.702-8.008h-9.469v-4.953h6.558l-9.619-16.373H79.037z"/>
			</g>
		</g>
	</g>
</g>
<g>
</g>
<g>
</g>
<g>
</g>
<g>
</g>
<g>
</g>
<g>
</g>
<g>
</g>
<g>
</g>
<g>
</g>
<g>
</g>
<g>
</g>
<g>
</g>
<g>
</g>
<g>
</g>
<g>
</g>
</svg>
