<?xml version="1.0" encoding="iso-8859-1"?>
<!-- Generator: Adobe Illustrator 18.1.1, SVG Export Plug-In . SVG Version: 6.00 Build 0)  -->
<svg version="1.1" id="Capa_1" xmlns="http://www.w3.org/2000/svg" xmlns:xlink="http://www.w3.org/1999/xlink" x="0px" y="0px"
	 viewBox="0 0 179.006 179.006" style="enable-background:new 0 0 179.006 179.006;" xml:space="preserve">
<g>
	<g>
		<polygon style="fill:#010002;" points="103.829,61.999 89.461,88.426 75.165,61.999 66.453,61.999 76.71,79.452 69.723,79.452 
			69.723,84.739 79.807,84.739 84.831,93.271 71.567,93.271 71.567,98.564 85.762,98.564 85.762,116.989 93.167,116.989 
			93.167,98.564 107.768,98.564 107.768,93.271 94.109,93.271 99.134,84.739 109.056,84.739 109.056,79.452 102.26,79.452 
			112.559,61.999 		"/>
		<path style="fill:#010002;" d="M0,35.124v108.758h179.006V35.124H0z M89.503,129.699c-22.215,0-40.199-18.002-40.199-40.205
			S67.3,49.295,89.503,49.295s40.199,18.002,40.199,40.199C129.702,111.703,111.718,129.699,89.503,129.699z"/>
	</g>
</g>
<g>
</g>
<g>
</g>
<g>
</g>
<g>
</g>
<g>
</g>
<g>
</g>
<g>
</g>
<g>
</g>
<g>
</g>
<g>
</g>
<g>
</g>
<g>
</g>
<g>
</g>
<g>
</g>
<g>
</g>
</svg>
