<?xml version="1.0" encoding="iso-8859-1"?>
<!-- Generator: Adobe Illustrator 18.1.1, SVG Export Plug-In . SVG Version: 6.00 Build 0)  -->
<svg version="1.1" id="Capa_1" xmlns="http://www.w3.org/2000/svg" xmlns:xlink="http://www.w3.org/1999/xlink" x="0px" y="0px"
	 viewBox="0 0 155.139 155.139" style="enable-background:new 0 0 155.139 155.139;" xml:space="preserve">
<g>
	<g>
		<g>
			<path style="fill:#010002;" d="M77.569,0C34.727,0,0,34.727,0,77.569s34.727,77.569,77.569,77.569s77.569-34.727,77.569-77.569
				S120.411,0,77.569,0z M77.575,145.681c-37.627,0-68.118-30.491-68.118-68.106c0-37.621,30.491-68.112,68.118-68.112
				c37.615,0,68.106,30.491,68.106,68.112C145.681,115.19,115.19,145.681,77.575,145.681z"/>
		</g>
		<g>
			<path style="fill:#010002;" d="M51.536,30.783l25.974,47.98l26.081-47.98h15.836l-18.706,31.696h12.339v9.589H95.052
				l-9.129,15.496h24.786v9.589H84.21v33.474H70.773V97.153H44.99v-9.589h24.088l-9.105-15.496H41.655v-9.589h12.68L35.724,30.783
				C35.724,30.783,51.536,30.783,51.536,30.783z"/>
		</g>
	</g>
</g>
<g>
</g>
<g>
</g>
<g>
</g>
<g>
</g>
<g>
</g>
<g>
</g>
<g>
</g>
<g>
</g>
<g>
</g>
<g>
</g>
<g>
</g>
<g>
</g>
<g>
</g>
<g>
</g>
<g>
</g>
</svg>
