<?xml version="1.0" encoding="iso-8859-1"?>
<!-- Generator: Adobe Illustrator 18.1.1, SVG Export Plug-In . SVG Version: 6.00 Build 0)  -->
<svg version="1.1" id="Capa_1" xmlns="http://www.w3.org/2000/svg" xmlns:xlink="http://www.w3.org/1999/xlink" x="0px" y="0px"
	 viewBox="0 0 179.011 179.011" style="enable-background:new 0 0 179.011 179.011;" xml:space="preserve">
<g>
	<g>
		<polygon style="fill:#010002;" points="139.33,31.266 130.081,48.248 120.893,31.266 115.284,31.266 121.889,42.484 
			117.396,42.484 117.396,45.879 123.888,45.879 127.104,51.369 118.583,51.369 118.583,54.77 127.707,54.77 127.707,66.614 
			132.456,66.614 132.456,54.77 141.842,54.77 141.842,51.369 133.071,51.369 136.299,45.879 142.678,45.879 142.678,42.484 
			138.316,42.484 144.915,31.266 		"/>
		<g>
			<path style="fill:#010002;" d="M82.675,15.168c-21.224-0.185-42.49,7.781-58.678,23.969c-31.994,31.994-31.994,83.888,0,115.877
				c31.988,31.994,83.882,31.994,115.877,0.012c16.188-16.2,24.154-36.726,23.969-57.944H82.675V15.168z"/>
		</g>
		<g>
			<path style="fill:#010002;" d="M179.01,87.707H92.043V0l2.912,0.03c22.388,0.209,43.415,9.028,59.215,24.81
				c15.55,15.562,24.601,37.418,24.81,59.955L179.01,87.707z M97.831,81.925h75.308c-0.907-20.001-9.219-39.167-23.05-53.004
				c-14.034-14.034-32.49-22.149-52.258-23.038V81.925z"/>
		</g>
	</g>
</g>
<g>
</g>
<g>
</g>
<g>
</g>
<g>
</g>
<g>
</g>
<g>
</g>
<g>
</g>
<g>
</g>
<g>
</g>
<g>
</g>
<g>
</g>
<g>
</g>
<g>
</g>
<g>
</g>
<g>
</g>
</svg>
