<?xml version="1.0" encoding="iso-8859-1"?>
<!-- Generator: Adobe Illustrator 16.0.0, SVG Export Plug-In . SVG Version: 6.00 Build 0)  -->
<!DOCTYPE svg PUBLIC "-//W3C//DTD SVG 1.1//EN" "http://www.w3.org/Graphics/SVG/1.1/DTD/svg11.dtd">
<svg version="1.1" id="Capa_1" xmlns="http://www.w3.org/2000/svg" xmlns:xlink="http://www.w3.org/1999/xlink" x="0px" y="0px"
	 width="72.41px" height="72.411px" viewBox="0 0 72.41 72.411" style="enable-background:new 0 0 72.41 72.411;"
	 xml:space="preserve">
<g>
	<g>
		<g>
			<path d="M72.41,58.661c-24.136-22.455-48.274,22.455-72.41,0C0,43.69,0,28.721,0,13.749c24.136,22.455,48.274-22.452,72.41,0
				C72.41,28.721,72.41,43.69,72.41,58.661z M2.336,58.291c22.58,17.074,45.158-21.004,67.738-3.933c0-13.412,0-26.825,0-40.24
				C47.494-2.957,24.916,35.122,2.336,18.054C2.336,31.467,2.336,44.878,2.336,58.291z"/>
		</g>
		<g>
			<g>
				<path d="M36.205,20.521c-8.664,4.349-15.687,13.104-15.687,21.61c0,8.819,7.023,14.113,15.687,9.761
					c8.663-4.348,15.687-13.103,15.687-21.61C51.892,21.462,44.868,16.167,36.205,20.521z M36.205,49.979
					c-7.607,3.752-13.772-0.58-13.772-8.297c0-7.5,6.169-15.495,13.772-19.251c7.605-3.756,13.773,0.58,13.773,8.294
					C49.979,38.227,43.812,46.222,36.205,49.979z"/>
			</g>
			<g>
				<path d="M30.94,29.145c1.75,2.472,3.501,4.891,5.251,7.309c1.759-4.05,3.518-8.106,5.276-12.104
					c1.067-0.464,2.135-0.913,3.202-1.327c-1.261,2.628-2.521,5.3-3.782,7.993c0.833-0.366,1.663-0.729,2.496-1.068
					c0,0.648,0,1.294,0,1.939c-1.216,0.501-2.427,1.028-3.643,1.58c-0.618,1.322-1.233,2.651-1.849,3.978
					c1.674-0.771,3.345-1.526,5.012-2.224c0,0.645,0,1.291,0,1.939c-1.79,0.746-3.574,1.558-5.36,2.381c0,2.261,0,4.519,0,6.771
					c-0.909,0.419-1.811,0.844-2.717,1.264c0-2.259,0-4.517,0-6.771c-1.738,0.81-3.476,1.599-5.211,2.324c0-0.644,0-1.293,0-1.938
					c1.621-0.68,3.244-1.414,4.868-2.167c-0.615-0.76-1.225-1.521-1.838-2.287c-1.236,0.554-2.474,1.094-3.709,1.603
					c0-0.644,0-1.292,0-1.939c0.854-0.348,1.709-0.72,2.568-1.095c-1.253-1.586-2.51-3.187-3.765-4.836
					C28.808,30.054,29.873,29.606,30.94,29.145z"/>
			</g>
		</g>
	</g>
</g>
<g>
</g>
<g>
</g>
<g>
</g>
<g>
</g>
<g>
</g>
<g>
</g>
<g>
</g>
<g>
</g>
<g>
</g>
<g>
</g>
<g>
</g>
<g>
</g>
<g>
</g>
<g>
</g>
<g>
</g>
</svg>
