<?xml version="1.0" encoding="iso-8859-1"?>
<!-- Generator: Adobe Illustrator 18.1.1, SVG Export Plug-In . SVG Version: 6.00 Build 0)  -->
<svg version="1.1" id="Capa_1" xmlns="http://www.w3.org/2000/svg" xmlns:xlink="http://www.w3.org/1999/xlink" x="0px" y="0px"
	 viewBox="0 0 179.006 179.006" style="enable-background:new 0 0 179.006 179.006;" xml:space="preserve">
<g>
	<g>
		<path style="fill:#010002;" d="M61.077,66.459l10.496,19.38l10.543-19.38h6.396l-7.566,12.799h4.988v3.878h-7.274l-3.693,6.259
			h10.024v3.867H74.282v13.521h-5.424V93.262H58.44v-3.867h9.732l-3.676-6.259h-7.399v-3.878h5.12l-7.524-12.799
			C54.692,66.459,61.077,66.459,61.077,66.459z"/>
		<g>
			<g>
				<polygon style="fill:#010002;" points="123.085,129.654 19.136,129.654 0,43.743 116.963,43.743 113.776,56.059 15.335,56.059 
					28.993,117.339 113.209,117.339 134.362,21.534 179.006,21.534 179.006,33.814 144.231,33.814 				"/>
			</g>
			<g>
				<g>
					<path style="fill:#010002;" d="M53.582,145.979c0,6.343-5.143,11.492-11.48,11.492s-11.486-5.132-11.486-11.492
						c0-6.337,5.143-11.474,11.486-11.474C48.439,134.505,53.582,139.655,53.582,145.979z"/>
				</g>
				<g>
					<path style="fill:#010002;" d="M113.603,145.979c0,6.343-5.149,11.492-11.492,11.492c-6.337,0-11.468-5.132-11.468-11.492
						c0-6.337,5.132-11.474,11.468-11.474C108.454,134.505,113.603,139.655,113.603,145.979z"/>
				</g>
			</g>
		</g>
	</g>
</g>
<g>
</g>
<g>
</g>
<g>
</g>
<g>
</g>
<g>
</g>
<g>
</g>
<g>
</g>
<g>
</g>
<g>
</g>
<g>
</g>
<g>
</g>
<g>
</g>
<g>
</g>
<g>
</g>
<g>
</g>
</svg>
